<svg width="18" height="18" viewBox="0 0 18 18" fill="none" xmlns="http://www.w3.org/2000/svg">
<path d="M15.2 9.83672C15.0167 9.83672 14.825 9.77839 14.6417 9.73672C14.2704 9.65491 13.9056 9.54629 13.55 9.41172C13.1634 9.27108 12.7385 9.27839 12.3569 9.43223C11.9754 9.58607 11.6643 9.87559 11.4834 10.2451L11.3 10.6201C10.4884 10.1685 9.74251 9.60775 9.08336 8.95339C8.429 8.29424 7.86821 7.54839 7.41669 6.73672L7.76669 6.50339C8.13616 6.32249 8.42567 6.01133 8.57952 5.6298C8.73336 5.24827 8.74067 4.82332 8.60002 4.43672C8.46771 4.08041 8.35914 3.71572 8.27502 3.34506C8.23336 3.16172 8.20002 2.97006 8.17502 2.77839C8.07383 2.19141 7.76638 1.65984 7.30804 1.27942C6.8497 0.899003 6.2706 0.69473 5.67502 0.703389H3.17502C2.81588 0.700017 2.46023 0.774067 2.13228 0.920498C1.80433 1.06693 1.51178 1.2823 1.27455 1.55196C1.03732 1.82161 0.860968 2.13922 0.757513 2.48315C0.654058 2.82708 0.625922 3.18927 0.675023 3.54506C1.11897 7.03621 2.71338 10.28 5.2064 12.7639C7.69942 15.2479 10.9489 16.8305 14.4417 17.2617H14.7584C15.3729 17.2626 15.9662 17.0372 16.425 16.6284C16.6887 16.3926 16.8993 16.1035 17.0429 15.7803C17.1866 15.4571 17.26 15.1071 17.2584 14.7534V12.2534C17.2481 11.6745 17.0374 11.1172 16.662 10.6764C16.2866 10.2357 15.7699 9.93891 15.2 9.83672ZM15.6167 14.8367C15.6165 14.955 15.5912 15.072 15.5423 15.1797C15.4935 15.2875 15.4222 15.3836 15.3334 15.4617C15.2402 15.5421 15.1314 15.6022 15.0137 15.6381C14.896 15.6739 14.7722 15.6848 14.65 15.6701C11.5291 15.2699 8.63022 13.8421 6.41062 11.612C4.19102 9.3818 2.77703 6.47617 2.39169 3.35339C2.37843 3.23132 2.39005 3.10783 2.42586 2.99038C2.46167 2.87293 2.52091 2.76396 2.60002 2.67006C2.67811 2.58117 2.77424 2.50992 2.88201 2.46107C2.98977 2.41222 3.1067 2.38687 3.22502 2.38672H5.72502C5.91881 2.38241 6.10804 2.44579 6.26014 2.56595C6.41224 2.68611 6.5177 2.85553 6.55836 3.04506C6.59169 3.27283 6.63336 3.49783 6.68336 3.72006C6.77962 4.15934 6.90774 4.59104 7.06669 5.01172L5.90002 5.55339C5.80027 5.59916 5.71054 5.66418 5.63599 5.74472C5.56143 5.82526 5.50352 5.91973 5.46558 6.02272C5.42764 6.1257 5.41042 6.23517 5.4149 6.34482C5.41938 6.45448 5.44547 6.56218 5.49169 6.66172C6.69102 9.23069 8.75606 11.2957 11.325 12.4951C11.5279 12.5784 11.7555 12.5784 11.9584 12.4951C12.0623 12.4579 12.1578 12.4004 12.2393 12.326C12.3209 12.2517 12.3868 12.1618 12.4334 12.0617L12.95 10.8951C13.3808 11.0491 13.8205 11.1771 14.2667 11.2784C14.4889 11.3284 14.7139 11.3701 14.9417 11.4034C15.1312 11.444 15.3006 11.5495 15.4208 11.7016C15.541 11.8537 15.6043 12.0429 15.6 12.2367L15.6167 14.8367Z" fill="white"/>
</svg>
