<svg width="24" height="24" viewBox="0 0 24 24" fill="none" xmlns="http://www.w3.org/2000/svg">
<g clip-path="url(#clip0_11566_47524)">
<path d="M15.9346 13.5327C18.1143 11.353 18.1143 7.81889 15.9346 5.63914C13.7548 3.45938 10.2207 3.45938 8.04098 5.63914C5.86122 7.81889 5.86122 11.353 8.04098 13.5327C10.2207 15.7125 13.7548 15.7125 15.9346 13.5327Z" fill="#FF9171"/>
<path d="M6.03686 16.5271C6.58368 16.5271 7.02696 16.0838 7.02696 15.537C7.02696 14.9902 6.58368 14.5469 6.03686 14.5469C5.49004 14.5469 5.04675 14.9902 5.04675 15.537C5.04675 16.0838 5.49004 16.5271 6.03686 16.5271Z" fill="#B7EABC"/>
<path d="M6.03686 16.5271C6.58368 16.5271 7.02696 16.0838 7.02696 15.537C7.02696 14.9902 6.58368 14.5469 6.03686 14.5469C5.49004 14.5469 5.04675 14.9902 5.04675 15.537C5.04675 16.0838 5.49004 16.5271 6.03686 16.5271Z" fill="#B7EABC"/>
<path d="M11.9901 18.2832C12.4588 18.2832 12.8387 17.9033 12.8387 17.4346C12.8387 16.9659 12.4588 16.5859 11.9901 16.5859C11.5214 16.5859 11.1414 16.9659 11.1414 17.4346C11.1414 17.9033 11.5214 18.2832 11.9901 18.2832Z" fill="#B7EABC"/>
<path d="M11.9901 18.2832C12.4588 18.2832 12.8387 17.9033 12.8387 17.4346C12.8387 16.9659 12.4588 16.5859 11.9901 16.5859C11.5214 16.5859 11.1414 16.9659 11.1414 17.4346C11.1414 17.9033 11.5214 18.2832 11.9901 18.2832Z" fill="#B7EABC"/>
<path d="M12.1581 2.56846C12.7351 2.47493 13.127 1.93138 13.0334 1.35442C12.9399 0.777457 12.3964 0.385556 11.8194 0.479086C11.2424 0.572616 10.8505 1.11616 10.9441 1.69312C11.0376 2.27009 11.5811 2.66199 12.1581 2.56846Z" fill="#B7EABC"/>
<path d="M12.1581 2.56846C12.7351 2.47493 13.127 1.93138 13.0334 1.35442C12.9399 0.777457 12.3964 0.385556 11.8194 0.479086C11.2424 0.572616 10.8505 1.11616 10.9441 1.69312C11.0376 2.27009 11.5811 2.66199 12.1581 2.56846Z" fill="#B7EABC"/>
<path d="M4.96438 9.7834C5.07218 9.32736 4.78987 8.87028 4.33384 8.76248C3.8778 8.65468 3.42072 8.93699 3.31292 9.39302C3.20513 9.84906 3.48743 10.3061 3.94346 10.4139C4.3995 10.5217 4.85658 10.2394 4.96438 9.7834Z" fill="#B7EABC"/>
<path d="M4.96438 9.7834C5.07218 9.32736 4.78987 8.87028 4.33384 8.76248C3.8778 8.65468 3.42072 8.93699 3.31292 9.39302C3.20513 9.84906 3.48743 10.3061 3.94346 10.4139C4.3995 10.5217 4.85658 10.2394 4.96438 9.7834Z" fill="#B7EABC"/>
<path d="M20.4369 10.1859C20.7683 9.85456 20.7683 9.31731 20.4369 8.98595C20.1056 8.65458 19.5683 8.65458 19.237 8.98595C18.9056 9.31731 18.9056 9.85456 19.237 10.1859C19.5683 10.5173 20.1056 10.5173 20.4369 10.1859Z" fill="#B7EABC"/>
<path d="M20.4369 10.1859C20.7683 9.85456 20.7683 9.31731 20.4369 8.98595C20.1056 8.65458 19.5683 8.65458 19.237 8.98595C18.9056 9.31731 18.9056 9.85456 19.237 10.1859C19.5683 10.5173 20.1056 10.5173 20.4369 10.1859Z" fill="#B7EABC"/>
<path d="M17.7267 16.1554C18.2664 16.0679 18.633 15.5595 18.5455 15.0198C18.458 14.4801 17.9496 14.1135 17.4098 14.201C16.8701 14.2884 16.5035 14.7969 16.591 15.3366C16.6785 15.8763 17.187 16.2429 17.7267 16.1554Z" fill="#B7EABC"/>
<path d="M17.7267 16.1554C18.2664 16.0679 18.633 15.5595 18.5455 15.0198C18.458 14.4801 17.9496 14.1135 17.4098 14.201C16.8701 14.2884 16.5035 14.7969 16.591 15.3366C16.6785 15.8763 17.187 16.2429 17.7267 16.1554Z" fill="#B7EABC"/>
<path d="M9.42699 10.574C9.97381 10.574 10.4171 10.1307 10.4171 9.58385C10.4171 9.03703 9.97381 8.59375 9.42699 8.59375C8.88017 8.59375 8.43689 9.03703 8.43689 9.58385C8.43689 10.1307 8.88017 10.574 9.42699 10.574Z" fill="#B7EABC"/>
<path d="M9.42699 10.574C9.97381 10.574 10.4171 10.1307 10.4171 9.58385C10.4171 9.03703 9.97381 8.59375 9.42699 8.59375C8.88017 8.59375 8.43689 9.03703 8.43689 9.58385C8.43689 10.1307 8.88017 10.574 9.42699 10.574Z" fill="#B7EABC"/>
<path d="M13.142 8.59292C13.6817 8.50543 14.0483 7.99698 13.9608 7.45727C13.8734 6.91756 13.3649 6.55097 12.8252 6.63846C12.2855 6.72595 11.9189 7.2344 12.0064 7.77411C12.0939 8.31382 12.6023 8.68041 13.142 8.59292Z" fill="#B7EABC"/>
<path d="M13.142 8.59292C13.6817 8.50543 14.0483 7.99698 13.9608 7.45727C13.8734 6.91756 13.3649 6.55097 12.8252 6.63846C12.2855 6.72595 11.9189 7.2344 12.0064 7.77411C12.0939 8.31382 12.6023 8.68041 13.142 8.59292Z" fill="#B7EABC"/>
<path d="M12.581 13.1365C13.1279 13.1365 13.5711 12.6932 13.5711 12.1464C13.5711 11.5995 13.1279 11.1562 12.581 11.1562C12.0342 11.1562 11.5909 11.5995 11.5909 12.1464C11.5909 12.6932 12.0342 13.1365 12.581 13.1365Z" fill="#B7EABC"/>
<path d="M12.581 13.1365C13.1279 13.1365 13.5711 12.6932 13.5711 12.1464C13.5711 11.5995 13.1279 11.1562 12.581 11.1562C12.0342 11.1562 11.5909 11.5995 11.5909 12.1464C11.5909 12.6932 12.0342 13.1365 12.581 13.1365Z" fill="#B7EABC"/>
<path d="M6.37658 4.96458C6.9234 4.96458 7.36668 4.5213 7.36668 3.97448C7.36668 3.42766 6.9234 2.98438 6.37658 2.98438C5.82976 2.98438 5.38647 3.42766 5.38647 3.97448C5.38647 4.5213 5.82976 4.96458 6.37658 4.96458Z" fill="#B7EABC"/>
<path d="M6.37658 4.96458C6.9234 4.96458 7.36668 4.5213 7.36668 3.97448C7.36668 3.42766 6.9234 2.98438 6.37658 2.98438C5.82976 2.98438 5.38647 3.42766 5.38647 3.97448C5.38647 4.5213 5.82976 4.96458 6.37658 4.96458Z" fill="#B7EABC"/>
<path d="M18.511 4.35675C19.0163 4.14732 19.2561 3.56795 19.0467 3.06269C18.8373 2.55743 18.2579 2.31761 17.7526 2.52704C17.2474 2.73647 17.0075 3.31585 17.217 3.82111C17.4264 4.32637 18.0058 4.56618 18.511 4.35675Z" fill="#B7EABC"/>
<path d="M18.511 4.35675C19.0163 4.14732 19.2561 3.56795 19.0467 3.06269C18.8373 2.55743 18.2579 2.31761 17.7526 2.52704C17.2474 2.73647 17.0075 3.31585 17.217 3.82111C17.4264 4.32637 18.0058 4.56618 18.511 4.35675Z" fill="#B7EABC"/>
<path d="M13.0838 19.6875C12.825 19.6875 12.6151 19.8974 12.6151 20.1562V23.5311C12.6151 23.79 12.825 23.9998 13.0838 23.9998C13.3427 23.9998 13.5526 23.7899 13.5526 23.5311V20.1562C13.5526 19.8974 13.3427 19.6875 13.0838 19.6875Z" fill="black"/>
<path d="M2.7201 22.8488C2.56392 22.9905 2.36391 23.0623 2.12566 23.0623C1.47051 23.0623 0.937465 22.5156 0.937465 21.8436C0.937465 21.1716 1.47051 20.6249 2.12566 20.6249C2.33335 20.6249 2.53753 20.6806 2.71616 20.7858C2.93914 20.9171 3.22657 20.8429 3.35795 20.6198C3.48934 20.3968 3.41505 20.1095 3.19198 19.9781C2.86925 19.7879 2.50055 19.6875 2.12566 19.6875C0.95359 19.6875 0 20.6547 0 21.8436C0 23.0325 0.95359 23.9998 2.12566 23.9998C2.59729 23.9998 3.02065 23.8419 3.34999 23.5432C3.54174 23.3692 3.55613 23.0728 3.38223 22.8811C3.20829 22.6893 2.91186 22.6748 2.7201 22.8488Z" fill="black"/>
<path d="M11.3567 19.7177C11.111 19.6361 10.8457 19.7691 10.7641 20.0148L10.0267 22.2345L9.25204 20.0027C9.16711 19.7582 8.90007 19.6286 8.65549 19.7136C8.41095 19.7985 8.28149 20.0655 8.36637 20.3101L9.52138 23.6374C9.59848 23.8547 9.80454 24 10.0348 24H10.0384C10.2702 23.9984 10.476 23.85 10.5518 23.6274L11.6537 20.3103C11.7353 20.0647 11.6024 19.7994 11.3567 19.7177Z" fill="black"/>
<path d="M6.15031 19.6875C5.2526 19.6875 4.52222 20.4178 4.52222 21.3155V22.3682C4.52222 23.2659 5.2526 23.9963 6.15031 23.9963C7.04803 23.9963 7.77836 23.2659 7.77836 22.3682V21.3155C7.77841 20.4178 7.04803 19.6875 6.15031 19.6875ZM6.84094 22.3682C6.84094 22.749 6.53116 23.0588 6.15036 23.0588C5.76956 23.0588 5.45973 22.749 5.45973 22.3682V21.3155C5.45973 20.9348 5.76951 20.625 6.15036 20.625C6.53116 20.625 6.84094 20.9348 6.84094 21.3155V22.3682Z" fill="black"/>
<path d="M19.5484 19.6875H18.9559C18.697 19.6875 18.4872 19.8974 18.4872 20.1562C18.4872 20.4151 18.697 20.625 18.9559 20.625H19.0797V23.5311C19.0797 23.79 19.2895 23.9998 19.5484 23.9998C19.8073 23.9998 20.0171 23.7899 20.0171 23.5311V20.1562C20.0171 19.8974 19.8073 19.6875 19.5484 19.6875Z" fill="black"/>
<path d="M24 21.1556C24 20.359 23.3519 19.7109 22.5553 19.7109C21.7587 19.7109 21.1107 20.359 21.1107 21.1556C21.1107 21.9445 21.7464 22.5873 22.5324 22.5997C22.2858 22.9503 22.0464 23.1375 22.0384 23.1437C21.8324 23.2986 21.7899 23.591 21.9439 23.7981C22.0359 23.9218 22.1773 23.9871 22.3204 23.9871C22.4177 23.9871 22.5157 23.957 22.5998 23.8944C22.6483 23.8583 23.7827 22.9969 23.9819 21.3831C23.9937 21.309 24 21.233 24 21.1556ZM22.0481 21.1556C22.0481 20.8759 22.2756 20.6484 22.5553 20.6484C22.835 20.6484 23.0625 20.8759 23.0625 21.1556C23.0625 21.4353 22.835 21.6628 22.5553 21.6628C22.2756 21.6628 22.0481 21.4353 22.0481 21.1556Z" fill="black"/>
<path d="M19.8401 8.26966C19.2788 8.26966 18.7986 8.62271 18.6093 9.1183H18.0235C17.9728 8.45148 17.8133 7.80444 17.5475 7.18923C17.4448 6.95159 17.1689 6.84214 16.9313 6.94484C16.6937 7.04749 16.5843 7.32338 16.6869 7.56103C16.9636 8.20146 17.1039 8.88309 17.1039 9.58708C17.1039 10.8285 16.659 11.9679 15.9206 12.8547L15.6254 12.5595C15.4424 12.3766 15.1456 12.3765 14.9626 12.5595C14.7795 12.7425 14.7795 13.0393 14.9625 13.2224L15.2577 13.5175C14.3709 14.256 13.2315 14.7008 11.9901 14.7008C10.7487 14.7008 9.60921 14.256 8.72251 13.5175L8.76835 13.4717C8.95139 13.2887 8.95139 12.9919 8.76835 12.8088C8.58531 12.6258 8.28851 12.6258 8.10542 12.8088L8.05958 12.8546C7.32114 11.9679 6.87631 10.8285 6.87631 9.58703C6.87631 8.3456 7.32114 7.2062 8.05958 6.31945L8.44516 6.70503C8.5367 6.79658 8.65665 6.84232 8.7766 6.84232C8.89655 6.84232 9.01654 6.79658 9.10804 6.70503C9.29108 6.52199 9.29108 6.22519 9.10804 6.0421L8.72246 5.65652C9.60921 4.91808 10.7486 4.47326 11.99 4.47326C12.6868 4.47326 13.362 4.61078 13.9969 4.88194C14.235 4.98366 14.5104 4.87304 14.612 4.63502C14.7138 4.39695 14.6032 4.12152 14.3651 4.01985C13.7566 3.75994 13.1172 3.6038 12.4587 3.55365V2.98048C13.0722 2.78216 13.5171 2.20581 13.5171 1.52718C13.5171 0.6851 12.832 0 11.99 0C11.1479 0 10.4628 0.6851 10.4628 1.52718C10.4628 2.20576 10.9078 2.78212 11.5213 2.98048V3.55384C10.2045 3.65518 9.00469 4.17997 8.05756 4.99167L7.6845 4.61861C7.78087 4.42399 7.83534 4.20505 7.83534 3.97354C7.83534 3.16915 7.18094 2.5147 6.3765 2.5147C5.57211 2.5147 4.91767 3.16915 4.91767 3.97354C4.91767 4.77793 5.57211 5.43238 6.3765 5.43238C6.60801 5.43238 6.82695 5.37791 7.02157 5.28154L7.39464 5.6546C6.58293 6.60172 6.05814 7.80159 5.9568 9.1183H5.37084C5.18147 8.62271 4.7013 8.26966 4.13994 8.26966C3.4135 8.26966 2.82257 8.86064 2.82257 9.58703C2.82257 10.3134 3.41355 10.9044 4.13994 10.9044C4.7013 10.9044 5.18147 10.5514 5.37084 10.0558H5.95675C6.05809 11.3725 6.58293 12.5723 7.39464 13.5195L6.68183 14.2323C6.48722 14.1359 6.26827 14.0814 6.03676 14.0814C5.23237 14.0814 4.57793 14.7358 4.57793 15.5402C4.57793 16.3446 5.23237 16.9991 6.03676 16.9991C6.84116 16.9991 7.4956 16.3446 7.4956 15.5402C7.4956 15.3087 7.44113 15.0898 7.34476 14.8952L8.05756 14.1823C9.00473 14.9941 10.2045 15.5188 11.5213 15.6202V16.2061C11.0256 16.3955 10.6726 16.8757 10.6726 17.437C10.6726 18.1634 11.2636 18.7544 11.99 18.7544C12.7164 18.7544 13.3074 18.1634 13.3074 17.437C13.3074 16.8757 12.9543 16.3955 12.4587 16.2061V15.6202C13.7754 15.5188 14.9753 14.994 15.9224 14.1823L16.2645 14.5244C16.1681 14.719 16.1136 14.938 16.1136 15.1695C16.1136 15.9739 16.7681 16.6283 17.5725 16.6283C18.3769 16.6283 19.0313 15.9739 19.0313 15.1695C19.0313 14.3651 18.3769 13.7107 17.5725 13.7107C17.341 13.7107 17.122 13.7652 16.9274 13.8615L16.5853 13.5195C17.397 12.5723 17.9218 11.3725 18.0231 10.0558H18.6091C18.7984 10.5514 19.2786 10.9044 19.84 10.9044C20.5664 10.9044 21.1574 10.3134 21.1574 9.58703C21.1575 8.86059 20.5665 8.26966 19.8401 8.26966ZM11.9901 0.937512C12.3153 0.937512 12.5798 1.20206 12.5798 1.52722C12.5798 1.85238 12.3153 2.11694 11.9901 2.11694C11.6649 2.11694 11.4004 1.85238 11.4004 1.52722C11.4004 1.20206 11.6649 0.937512 11.9901 0.937512ZM6.3766 4.49491C6.08912 4.49491 5.85522 4.26101 5.85522 3.97354C5.85522 3.68607 6.08912 3.45217 6.3766 3.45217C6.66407 3.45217 6.89797 3.68607 6.89797 3.97354C6.89797 4.26101 6.66407 4.49491 6.3766 4.49491ZM4.14004 9.96694C3.93056 9.96694 3.76013 9.79651 3.76013 9.58703C3.76013 9.37756 3.93056 9.20713 4.14004 9.20713C4.34951 9.20713 4.51995 9.37756 4.51995 9.58703C4.51995 9.79651 4.34956 9.96694 4.14004 9.96694ZM6.03691 16.0616C5.74943 16.0616 5.51553 15.8277 5.51553 15.5402C5.51553 15.2527 5.74943 15.0189 6.03691 15.0189C6.32438 15.0189 6.55828 15.2527 6.55828 15.5402C6.55823 15.8277 6.32433 16.0616 6.03691 16.0616ZM11.9901 17.817C11.7806 17.817 11.6102 17.6466 11.6102 17.4371C11.6102 17.2276 11.7806 17.0572 11.9901 17.0572C12.1996 17.0572 12.37 17.2276 12.37 17.4371C12.37 17.6466 12.1996 17.817 11.9901 17.817ZM17.5726 14.6482C17.86 14.6482 18.0939 14.882 18.0939 15.1695C18.0939 15.457 17.86 15.6909 17.5726 15.6909C17.2851 15.6909 17.0512 15.457 17.0512 15.1695C17.0512 14.882 17.2851 14.6482 17.5726 14.6482ZM19.8401 9.96694C19.6307 9.96694 19.4602 9.79651 19.4602 9.58703C19.4602 9.37756 19.6306 9.20713 19.8401 9.20713C20.0496 9.20713 20.2201 9.37756 20.2201 9.58703C20.22 9.79651 20.0496 9.96694 19.8401 9.96694Z" fill="black"/>
<path d="M7.9682 9.58384C7.9682 10.3882 8.62265 11.0427 9.42704 11.0427C10.2314 11.0427 10.8859 10.3882 10.8859 9.58384C10.8859 8.77944 10.2314 8.125 9.42704 8.125C8.62265 8.125 7.9682 8.7794 7.9682 9.58384ZM9.94836 9.58384C9.94836 9.87131 9.71446 10.1052 9.42699 10.1052C9.13952 10.1052 8.90562 9.87131 8.90562 9.58384C8.90562 9.29636 9.13952 9.06247 9.42699 9.06247C9.71446 9.06247 9.94836 9.29636 9.94836 9.58384Z" fill="black"/>
<path d="M12.9861 6.14844C12.1817 6.14844 11.5273 6.80284 11.5273 7.60727C11.5273 8.41167 12.1817 9.06611 12.9861 9.06611C13.7905 9.06611 14.445 8.41167 14.445 7.60727C14.445 6.80288 13.7905 6.14844 12.9861 6.14844ZM12.9861 8.12865C12.6986 8.12865 12.4647 7.89475 12.4647 7.60727C12.4647 7.3198 12.6986 7.0859 12.9861 7.0859C13.2736 7.0859 13.5075 7.3198 13.5075 7.60727C13.5075 7.89475 13.2736 8.12865 12.9861 8.12865Z" fill="black"/>
<path d="M12.5811 10.6875C11.7767 10.6875 11.1223 11.3419 11.1223 12.1463C11.1223 12.9507 11.7767 13.6051 12.5811 13.6051C13.3855 13.6051 14.0399 12.9507 14.0399 12.1463C14.0399 11.3419 13.3855 10.6875 12.5811 10.6875ZM12.5811 12.6677C12.2936 12.6677 12.0597 12.4338 12.0597 12.1463C12.0597 11.8589 12.2936 11.625 12.5811 11.625C12.8686 11.625 13.1024 11.8589 13.1024 12.1463C13.1024 12.4338 12.8686 12.6677 12.5811 12.6677Z" fill="black"/>
<path d="M18.1286 4.90986C18.933 4.90986 19.5874 4.25546 19.5874 3.45102C19.5874 2.64659 18.933 1.99219 18.1286 1.99219C17.3242 1.99219 16.6698 2.64663 16.6698 3.45102C16.6698 4.25542 17.3242 4.90986 18.1286 4.90986ZM18.1286 2.9297C18.4161 2.9297 18.65 3.1636 18.65 3.45107C18.65 3.73854 18.4161 3.97244 18.1286 3.97244C17.8411 3.97244 17.6073 3.73854 17.6073 3.45107C17.6072 3.16355 17.8411 2.9297 18.1286 2.9297Z" fill="black"/>
<path d="M15.9294 6.10203C16.0527 6.10203 16.1737 6.05188 16.2608 5.96469C16.348 5.8775 16.3982 5.75656 16.3982 5.63281C16.3982 5.50953 16.348 5.38859 16.2608 5.30141C16.1737 5.21422 16.0527 5.16406 15.9294 5.16406C15.8062 5.16406 15.6852 5.21422 15.598 5.30141C15.5108 5.38859 15.4607 5.50953 15.4607 5.63281C15.4607 5.75656 15.5108 5.8775 15.598 5.96469C15.6852 6.05183 15.8062 6.10203 15.9294 6.10203Z" fill="black"/>
<path d="M15.7181 19.6875H14.9588C14.8343 19.6875 14.7149 19.737 14.627 19.8251C14.5391 19.9132 14.4898 20.0327 14.4901 20.1571V23.5328C14.4905 23.6572 14.5473 23.7764 14.6356 23.864C14.7234 23.951 14.8421 23.9998 14.9656 23.9998H14.9681C14.9889 23.9997 15.482 23.9971 15.7543 23.9923C16.7946 23.9742 17.5497 23.0705 17.5497 21.8437C17.5498 20.554 16.8137 19.6875 15.7181 19.6875ZM15.7379 23.0551C15.6525 23.0565 15.5427 23.0578 15.4328 23.0589C15.4315 22.6631 15.4291 21.0373 15.4284 20.625H15.7181C16.5478 20.625 16.6123 21.5577 16.6123 21.8437C16.6123 22.439 16.3419 23.0445 15.7379 23.0551Z" fill="black"/>
</g>
<defs>
<clipPath id="clip0_11566_47524">
<rect width="24" height="24" fill="white"/>
</clipPath>
</defs>
</svg>
