<svg width="106" height="32" viewBox="0 0 106 32" fill="none" xmlns="http://www.w3.org/2000/svg">
<path fill-rule="evenodd" clip-rule="evenodd" d="M7.52539 0.260159C7.29769 0.484507 7.26767 0.99485 7.30615 3.97155L7.35093 7.42278L10.5511 10.3339C13.216 12.7582 13.8343 13.245 14.2486 13.245C14.909 13.245 15.5603 12.6011 15.5603 11.948C15.5603 11.422 15.2058 11.0521 11.5393 7.75064L9.92318 6.29548L9.92235 4.65212C9.92186 3.59088 9.99201 2.93925 10.1205 2.81253C10.3973 2.53961 14.7528 2.53961 15.0296 2.81253C15.1709 2.95184 15.2286 3.93901 15.2286 6.21372C15.2286 8.48843 15.2863 9.4756 15.4276 9.61492C15.5689 9.75423 16.5717 9.81114 18.8846 9.81114C21.8304 9.81114 22.169 9.83975 22.4171 10.1102C22.8117 10.5399 22.8231 14.5637 22.4311 14.9504C22.2146 15.1636 21.6949 15.2073 19.3727 15.2073C17.5157 15.2073 16.5369 15.2678 16.4621 15.3873C16.3989 15.4879 16.8129 16.0285 17.4011 16.6137L18.4529 17.6601H21.6171C23.857 17.6601 24.8395 17.6027 24.9803 17.4638C25.2643 17.1837 25.2643 7.83469 24.9803 7.55458C24.839 7.41526 23.8324 7.35835 21.507 7.35835C18.3113 7.35835 18.2264 7.34969 17.9745 6.99485C17.7627 6.69692 17.7162 6.07081 17.7162 3.5119C17.7162 1.30374 17.658 0.33505 17.5172 0.196223C17.3716 0.0526531 16.0384 0 12.5537 0C8.41864 0 7.75443 0.034339 7.52539 0.260159ZM0.154411 7.58254C0.0205742 7.74164 -0.0213845 9.22378 0.00979432 12.6925L0.0537432 17.5783L3.45357 17.6601C5.32347 17.705 6.94676 17.8013 7.0607 17.8741C7.21493 17.9725 7.268 18.824 7.268 21.1961C7.268 23.0822 7.33816 24.5151 7.43965 24.7022C7.60334 25.0037 7.83536 25.0184 12.4014 25.0184C15.036 25.0184 17.3096 24.9738 17.4539 24.9191C17.6822 24.8328 17.7162 24.3493 17.7162 21.1907V17.5616L15.1871 15.2661C11.5131 11.9318 11.1136 11.6098 10.6502 11.6098C10.0452 11.6098 9.42399 12.2968 9.42399 12.9657C9.42399 13.4725 9.66878 13.7426 12.3263 16.1699L15.2286 18.8207V20.4225C15.2286 22.5759 15.2412 22.5656 12.5926 22.5656C11.4763 22.5656 10.4187 22.4894 10.2423 22.3964C9.94192 22.2379 9.92152 22.0236 9.92152 19.0334C9.92152 17.1448 9.85137 15.7106 9.74987 15.5235C9.589 15.2271 9.37108 15.2073 6.2789 15.2073C3.50083 15.2073 2.93862 15.1667 2.71904 14.9504C2.50842 14.7425 2.4585 14.278 2.4585 12.5229C2.4585 10.6278 2.49697 10.318 2.76183 10.0818C3.01839 9.85284 3.48922 9.81114 5.82018 9.81114C7.66885 9.81114 8.61284 9.75113 8.68963 9.62865C8.75514 9.52416 8.34036 9.00025 7.71894 8.40226L6.63381 7.35835H3.48839C1.02692 7.35835 0.302179 7.40708 0.154411 7.58254Z" fill="white"/>
<path fill-rule="evenodd" clip-rule="evenodd" d="M35.4071 0.159922C32.9321 0.679748 31.5032 2.71687 32.0192 4.98994C32.3815 6.58605 33.1796 7.35149 35.8475 8.66209C37.667 9.55572 38.171 10.017 38.1641 10.7819C38.1546 11.8262 37.5327 12.2649 36.0658 12.262C35.0283 12.2598 33.9571 12.0167 32.5721 11.4686L31.7014 11.124V12.5208V13.9174L32.4063 14.2212C32.794 14.3882 33.6979 14.6111 34.4148 14.7165C36.7371 15.0578 38.9097 14.5754 40.0751 13.4596C40.8982 12.6714 41.1984 11.9164 41.2012 10.6284C41.2052 8.67288 40.3365 7.64991 37.4348 6.19295C35.3283 5.13531 35.0183 4.86404 35.0183 4.07751C35.0183 3.09035 35.4455 2.72831 36.7045 2.64933C37.5428 2.59668 38.0306 2.67108 38.979 2.99632L40.1864 3.41035L40.4217 2.84981C40.5511 2.54158 40.769 2.02273 40.9058 1.697C41.0426 1.37127 41.1546 1.08004 41.1546 1.04996C41.1546 1.01987 40.5481 0.806476 39.8069 0.575587C38.3185 0.112011 36.4678 -0.0627913 35.4071 0.159922ZM73.3285 7.35835V14.7167H74.7382H76.1479V11.8631C76.1479 8.5666 76.3258 7.48475 76.9731 6.84654C77.7961 6.03516 79.3497 6.08094 79.8442 6.93108C79.9776 7.16033 80.0731 8.51378 80.1282 10.9558L80.2111 14.6349L81.6747 14.6824L83.1383 14.7298L83.0844 10.5126C83.0313 6.3653 83.0237 6.28371 82.6177 5.5845C82.3633 5.14643 82.049 4.68601 81.4568 4.43987C81.1274 4.30297 80.5187 4.00621 79.3819 4.00621C78.2362 4.00621 77.9501 4.06704 77.2867 4.45148C76.8642 4.69643 76.4748 5.00924 76.4214 5.14643C76.1545 5.83223 76.0694 5.15412 76.1142 2.69823L76.1633 0H74.746H73.3285V7.35835ZM65.7283 3.01529C65.3935 3.93557 65.2423 4.13343 64.5275 4.58573C63.8157 5.03606 63.7095 5.1739 63.7095 5.64909C63.7095 6.17431 63.7361 6.19688 64.4144 6.24528L65.1192 6.29548L65.2021 9.64762C65.2965 13.4609 65.4054 13.8326 66.6118 14.4544C67.3866 14.8539 69.5017 14.9157 70.5506 14.5695L71.1725 14.3643V13.3067V12.249L70.5506 12.3785C69.4108 12.616 68.6696 12.5264 68.3275 12.1097C68.0432 11.7636 68.018 11.4717 68.059 9.01153L68.1044 6.29548L69.5556 6.24822L71.0067 6.20097V5.14447V4.08797H69.5141H68.0215V3.0251V1.96223H67.0664H66.1113L65.7283 3.01529ZM46.1299 4.03401C45.7452 4.09435 43.7909 4.72553 43.6726 4.82757C43.6278 4.86632 44.4224 6.52326 44.5584 6.67484C44.5841 6.70362 45.1055 6.57493 45.7168 6.38869C47.9066 5.72186 49.1304 6.09664 49.1762 7.44829L49.1981 8.09419L47.3738 8.19933C44.6284 8.35745 43.3927 8.91473 42.886 10.223C42.5162 11.1777 42.6352 12.6775 43.1454 13.4913C44.1968 15.169 47.5874 15.2573 49.1216 13.647L49.5148 13.2342L49.792 13.9346L50.0689 14.6349L51.0847 14.6837L52.1004 14.7322L52.0967 10.6775C52.0927 6.16041 52.0095 5.73674 50.9552 4.86191C50.0266 4.09157 47.9907 3.7423 46.1299 4.03401ZM56.8546 4.14782C55.9548 4.39882 55.3518 4.79274 54.8471 5.45908C54.3451 6.12199 54.3696 7.71221 54.8947 8.54697C55.2164 9.0583 55.6339 9.33334 57.3447 10.1607C59.5717 11.2378 59.9115 11.5564 59.4979 12.1789C59.0365 12.873 57.5359 12.8982 55.608 12.2443C55.1096 12.0752 54.6389 11.9369 54.562 11.9369C54.4852 11.9369 54.4222 12.4402 54.4222 13.0552C54.4222 14.1092 54.4477 14.1851 54.866 14.373C55.7186 14.7561 57.9885 14.9415 59.2698 14.7329C61.5928 14.3547 62.4657 13.4759 62.4657 11.5153C62.4657 9.91955 62.0512 9.39269 60.0948 8.50184C57.7333 7.42654 57.4956 7.2748 57.4379 6.80435C57.3371 5.98381 58.6224 5.82602 60.4384 6.43627L61.5622 6.81383L61.8987 6.0641C62.458 4.81809 62.4227 4.70052 61.3877 4.36154C60.1805 3.96599 57.8937 3.85823 56.8546 4.14782ZM99.615 4.10433C98.6312 4.32246 97.5419 4.74859 97.5419 4.91554C97.5419 4.996 97.7363 5.4527 97.9739 5.93018L98.4058 6.79863L99.5891 6.40733C101.728 5.69994 103.015 6.11675 103.015 7.51713V8.13033L101.11 8.21323C99.4367 8.286 99.0907 8.3532 98.2568 8.7674C96.856 9.46333 96.6297 9.85627 96.6297 11.5937C96.6297 12.9098 96.6672 13.0737 97.0944 13.6259C97.7858 14.5197 98.4112 14.7816 99.8637 14.7864C101.261 14.7908 102.421 14.3612 103.012 13.6205L103.342 13.2069L103.67 13.9617L103.998 14.7167H104.999H106L105.999 10.8331C105.998 8.50429 105.925 6.68923 105.815 6.29924C105.555 5.37618 104.609 4.50609 103.519 4.1869C102.557 3.905 100.692 3.86559 99.615 4.10433ZM84.606 4.16941C84.606 4.21437 85.5455 6.56659 86.6936 9.39662C88.6866 14.3089 88.7727 14.5689 88.5866 15.1242C88.1577 16.4055 87.0474 17.135 85.8601 16.9154L85.2694 16.806V17.9545V19.1029L85.9359 19.214C87.5806 19.488 89.4958 18.7259 90.3927 17.4406C90.8381 16.8021 95.5518 4.77181 95.5518 4.27308C95.5518 4.12984 95.134 4.08863 94.0273 4.12264L92.503 4.16973L91.3814 7.60363C90.7645 9.49228 90.2495 11.1847 90.2373 11.3646C90.2248 11.5444 90.0842 11.2133 89.9248 10.6287C89.7653 10.0442 89.2021 8.33342 88.6733 6.82692L87.7119 4.08797H86.159C85.3049 4.08797 84.606 4.1246 84.606 4.16941ZM49.2807 10.4243C49.28 12.183 47.3292 13.3927 46.0694 12.4155C45.2248 11.7606 45.6851 10.3223 46.8452 9.99134C47.136 9.90843 47.8028 9.83403 48.3274 9.82585L49.281 9.81114L49.2807 10.4243ZM103.015 10.6067C103.015 12.1378 101.418 13.2279 100.143 12.5664C99.6432 12.3071 99.5375 12.1104 99.5345 11.4339C99.5302 10.4119 100.437 9.85267 102.144 9.8252L103.015 9.81114V10.6067Z" fill="white"/>
<path fill-rule="evenodd" clip-rule="evenodd" d="M45.964 20.6843V25.181H46.6072C47.0858 25.181 47.3123 25.089 47.4926 24.8213L47.7347 24.4617L48.1984 24.8213C48.8011 25.2886 50.1352 25.3143 50.8697 24.8726C52.3452 23.9856 52.523 20.5397 51.1626 19.1984C50.6629 18.7057 50.4952 18.6403 49.7315 18.6409C49.1618 18.6413 48.6822 18.7521 48.3273 18.9655L47.7883 19.2896V17.7385V16.1875H46.8762H45.964V20.6843ZM34.189 16.6671C32.5893 16.9812 31.7257 18.2899 32.1944 19.6899C32.3826 20.2521 33.5593 21.4201 33.9376 21.4201C34.0402 21.4201 34.4746 21.6392 34.9028 21.9071C35.53 22.2992 35.6816 22.4838 35.6816 22.8555C35.6816 23.1093 35.5921 23.4052 35.4826 23.5132C35.2126 23.7794 33.7591 23.7485 32.9452 23.4594C32.5803 23.3298 32.2257 23.2226 32.1574 23.2213C32.0891 23.22 32.033 23.5833 32.033 24.0287C32.033 24.8254 32.0433 24.8414 32.6549 25.0089C32.9971 25.1026 33.7993 25.1796 34.4378 25.1799C35.8241 25.1807 36.5805 24.861 37.1442 24.0364C37.4653 23.5668 37.5228 23.3092 37.4653 22.602C37.3795 21.549 36.9332 21.0299 35.4561 20.2655C34.1621 19.5959 33.8573 19.3318 33.8573 18.8802C33.8573 18.2851 34.2484 18.1008 35.3081 18.1968C35.8327 18.2444 36.4196 18.3327 36.6122 18.3932C36.9047 18.4849 37.0041 18.4002 37.2168 17.8767C37.3568 17.5323 37.4437 17.2052 37.41 17.1501C37.2225 16.844 34.9915 16.5095 34.189 16.6671ZM77.7182 18.6812C77.6237 18.93 76.3156 25.6168 76.3087 25.8878C76.2972 26.3206 76.0057 25.5011 75.6498 24.0364C75.1849 22.1236 75.063 21.8765 74.6157 21.9416C74.3588 21.979 74.154 22.272 73.8374 23.0553L73.4076 24.1182L66.9771 24.161C61.4393 24.1978 60.5332 24.2379 60.4509 24.4493C60.3983 24.5842 60.4476 24.8041 60.5602 24.9379C60.7352 25.1457 61.7372 25.181 67.4653 25.181H74.166L74.3393 24.7314C74.5723 24.1273 74.667 24.3301 75.2362 26.6527C75.4897 27.687 75.7639 28.6619 75.8453 28.8193C75.9937 29.1057 76.5594 29.2139 76.7007 28.9829C76.742 28.9155 77.0996 27.1909 77.4953 25.1506C77.8908 23.1104 78.2385 21.4647 78.2676 21.4935C78.2968 21.5223 78.5459 22.3453 78.8211 23.3225C79.0962 24.2997 79.3835 25.1617 79.4592 25.2381C79.7979 25.5792 80.2606 25.1335 80.7099 24.0333C80.9661 23.4054 81.2215 22.8918 81.2772 22.8918C81.333 22.8918 81.5263 23.315 81.7069 23.832L82.0353 24.7722H85.1683H88.3013L88.6418 23.832C88.829 23.315 89.0283 22.8918 89.0847 22.8918C89.1411 22.8918 89.4118 23.4252 89.6861 24.0773C90.1116 25.0888 90.244 25.2628 90.5879 25.2628C90.9613 25.2628 91.0274 25.1277 91.4885 23.424C91.7621 22.4127 92.0253 21.5848 92.0734 21.5844C92.1213 21.584 92.4945 23.2577 92.9026 25.3037C93.5872 28.7366 93.6723 29.0277 94.0063 29.0746C94.485 29.1416 94.5725 28.9449 95.2201 26.3484C95.7495 24.2266 95.7714 24.1782 95.9796 24.6663L96.1938 25.1689L97.8196 25.2159C99.1916 25.2554 99.4535 25.306 99.499 25.5395C99.5326 25.7133 99.3649 25.912 99.0475 26.0737C98.2654 26.4725 98.0394 27.0788 98.0394 28.7785C98.0394 30.9732 98.5898 31.7218 100.204 31.7218C100.765 31.7218 101.187 31.6493 101.647 31.1957C101.647 31.1957 101.958 30.8883 102.02 30.4273C102.082 29.9662 102.02 28.8709 102.02 28.8709C102.02 26.952 101.647 26.3975 101 26.0678C100.684 25.9069 100.527 25.6994 100.527 25.4441C100.527 25.2337 100.372 24.8677 100.183 24.6308C99.8608 24.2266 99.7535 24.1999 98.4516 24.1999C96.9076 24.1999 96.9687 24.2398 96.4484 22.8918C96.1673 22.163 96.0217 21.9829 95.6814 21.9427C95.2853 21.8958 95.2404 21.9708 94.8982 23.2509C94.6986 23.9977 94.4423 24.9399 94.3287 25.3446L94.1224 26.0804L93.3843 22.3195C92.651 18.5834 92.6432 18.5582 92.2062 18.5082C91.7208 18.4526 91.7824 18.3075 90.8646 21.6654L90.4622 23.1371L89.9486 22.0318C89.1186 20.246 88.7879 20.3378 87.9805 22.5778L87.5138 23.8729H85.1892H82.8644L82.2823 22.3603C81.7713 21.0329 81.6514 20.8478 81.3024 20.8478C80.9726 20.8478 80.8306 21.0206 80.4677 21.8634C80.2273 22.422 79.9901 22.9189 79.9407 22.9675C79.8636 23.0435 79.6035 22.1703 78.7856 19.09C78.6524 18.5883 78.5474 18.4768 78.2093 18.4768C77.9819 18.4768 77.7608 18.5688 77.7182 18.6812ZM39.9919 18.9583C38.4186 19.7789 38.0214 22.7337 39.2854 24.2148C39.5296 24.5008 39.973 24.8354 40.2707 24.958C41.3281 25.3936 42.8901 25.2515 43.6175 25.0015C44.0865 24.8403 44.1397 24.7549 44.1397 24.1649C44.1397 23.5575 44.1115 23.5166 43.7666 23.6258C43.5612 23.6907 42.9083 23.7799 42.3154 23.8237C41.5498 23.8803 41.332 23.8191 40.8833 23.5202C40.6886 23.3094 40.4783 22.9716 40.4162 22.7691L40.3029 22.4012H42.3872H44.4714L44.4707 21.3792C44.4701 20.1903 44.1133 19.4731 43.2705 18.9665C42.5479 18.532 40.8175 18.5278 39.9919 18.9583ZM54.2977 18.8841C53.6766 19.1503 53.6758 19.1526 54.0118 19.7931C54.2845 20.3128 54.4375 20.3664 54.9211 20.1111C55.0925 20.0207 55.5467 19.9347 55.9308 19.9198C56.4776 19.8987 56.6954 19.9736 56.9352 20.2658C57.4675 20.914 57.3347 21.0373 55.983 21.15C54.3777 21.2837 53.6262 21.6284 53.3093 22.3765C52.9496 23.2254 53.1502 24.2423 53.7806 24.7652C54.4898 25.3536 55.9359 25.3578 56.8085 24.774L57.4169 24.3669L57.5738 24.774C57.7 25.1014 57.8451 25.181 58.3153 25.181H58.8999V22.6383C58.8999 19.8186 58.7701 19.3267 57.9103 18.8883C57.2841 18.569 55.0391 18.5664 54.2977 18.8841ZM42.3759 20.1239C42.6375 20.3267 42.8129 20.6251 42.8129 20.8668C42.8129 21.2638 42.7919 21.27 41.6106 21.2229C40.5152 21.1791 40.4127 21.1457 40.4581 20.8478C40.5213 20.4347 41.2432 19.7849 41.6389 19.7849C41.8039 19.7849 42.1356 19.9375 42.3759 20.1239ZM49.7773 20.3559C50.0534 20.6457 50.1858 21.012 50.2354 21.6232C50.3191 22.6555 50.1057 23.2705 49.5361 23.6386C48.9267 24.0323 48.2019 23.714 47.9424 22.9384C47.644 22.047 47.8235 20.6118 48.2787 20.2483C48.7958 19.8354 49.3169 19.8729 49.7773 20.3559ZM57.1658 22.8586C57.0229 23.5011 56.5668 23.8904 55.9371 23.908C54.409 23.9509 54.6341 22.4311 56.1844 22.2385C57.1542 22.118 57.3091 22.2158 57.1658 22.8586ZM100.975 26.5714C101.336 26.739 101.421 27.0869 101.531 27.4163C101.531 27.6951 101.647 28.0766 101.446 28.2215C100.996 28.5456 99.9648 28.6544 99.219 28.4563C98.6029 28.2928 98.5369 28.2253 98.5369 27.7591C98.5369 27.0134 99.2502 26.3257 100.024 26.3257C100.351 26.3257 100.779 26.4362 100.975 26.5714ZM99.8636 27.4703C99.8636 27.7401 100.012 27.9684 100.092 27.9684C100.269 27.9684 100.38 27.3058 100.261 27.1148C100.092 26.8927 99.8636 27.0069 99.8636 27.4703Z" fill="white"/>
</svg>
