<svg width="16" height="18" viewBox="0 0 16 18" fill="none" xmlns="http://www.w3.org/2000/svg">
<path d="M15.05 7.02298C14.933 5.80541 14.5027 4.63888 13.801 3.63699C13.0993 2.63511 12.1501 1.832 11.0459 1.30589C9.9416 0.779775 8.71992 0.548579 7.49979 0.634815C6.27965 0.721051 5.10263 1.12178 4.08336 1.79798C3.20769 2.38352 2.47257 3.15573 1.93081 4.05914C1.38905 4.96255 1.0541 5.97473 0.950023 7.02298C0.847925 8.06436 0.978918 9.11541 1.3335 10.0999C1.68808 11.0843 2.25735 11.9775 3.00002 12.7146L7.41669 17.1396C7.49416 17.2178 7.58633 17.2797 7.68788 17.3221C7.78943 17.3644 7.89835 17.3861 8.00836 17.3861C8.11837 17.3861 8.22729 17.3644 8.32884 17.3221C8.43039 17.2797 8.52255 17.2178 8.60002 17.1396L13 12.7146C13.7427 11.9775 14.312 11.0843 14.6665 10.0999C15.0211 9.11541 15.1521 8.06436 15.05 7.02298ZM11.8334 11.5396L8.00002 15.373L4.16669 11.5396C3.60176 10.9747 3.16902 10.2916 2.89958 9.53944C2.63013 8.7873 2.53068 7.98481 2.60836 7.18965C2.68654 6.38223 2.94316 5.60228 3.35967 4.90618C3.77617 4.21008 4.34215 3.61523 5.01669 3.16465C5.90081 2.57734 6.93861 2.26406 8.00002 2.26406C9.06143 2.26406 10.0992 2.57734 10.9834 3.16465C11.6558 3.61349 12.2206 4.20571 12.637 4.89876C13.0534 5.59181 13.3111 6.36848 13.3917 7.17298C13.4719 7.97083 13.3737 8.77654 13.1042 9.53177C12.8347 10.287 12.4006 10.9728 11.8334 11.5396ZM8.00002 3.99798C7.25834 3.99798 6.53332 4.21791 5.91664 4.62997C5.29995 5.04202 4.8193 5.62769 4.53548 6.31292C4.25165 6.99814 4.17738 7.75214 4.32208 8.47957C4.46677 9.207 4.82393 9.87518 5.34837 10.3996C5.87282 10.9241 6.54101 11.2812 7.26843 11.4259C7.99586 11.5706 8.74986 11.4964 9.43509 11.2125C10.1203 10.9287 10.706 10.4481 11.118 9.83137C11.5301 9.21468 11.75 8.48966 11.75 7.74798C11.7478 6.75409 11.352 5.80154 10.6492 5.09876C9.94646 4.39597 8.99391 4.00018 8.00002 3.99798ZM8.00002 9.83131C7.58798 9.83131 7.18519 9.70913 6.84259 9.48021C6.49998 9.25129 6.23296 8.92592 6.07527 8.54524C5.91759 8.16456 5.87633 7.74567 5.95672 7.34154C6.03711 6.93741 6.23552 6.5662 6.52688 6.27484C6.81824 5.98348 7.18946 5.78506 7.59358 5.70468C7.99771 5.62429 8.4166 5.66555 8.79728 5.82323C9.17796 5.98091 9.50333 6.24794 9.73225 6.59054C9.96117 6.93314 10.0834 7.33593 10.0834 7.74798C10.0834 8.30051 9.86386 8.83042 9.47316 9.22112C9.08246 9.61182 8.55256 9.83131 8.00002 9.83131Z" fill="white"/>
</svg>
