<svg width="18" height="18" viewBox="0 0 18 18" fill="none" xmlns="http://www.w3.org/2000/svg">
<path d="M12.0917 9.59364C12.9087 8.95086 13.505 8.06941 13.7977 7.07193C14.0904 6.07444 14.0649 5.01053 13.7248 4.0282C13.3847 3.04587 12.7469 2.19397 11.9001 1.59102C11.0532 0.988075 10.0395 0.664063 9 0.664062C7.96045 0.664062 6.94676 0.988075 6.09994 1.59102C5.25312 2.19397 4.61528 3.04587 4.27517 4.0282C3.93506 5.01053 3.90959 6.07444 4.2023 7.07193C4.49501 8.06941 5.09134 8.95086 5.90833 9.59364C4.5084 10.1545 3.2869 11.0848 2.37407 12.2852C1.46125 13.4857 0.8913 14.9114 0.724997 16.4103C0.712959 16.5197 0.722594 16.6305 0.753352 16.7362C0.784109 16.8419 0.835387 16.9405 0.904257 17.0264C1.04335 17.1999 1.24565 17.311 1.46666 17.3353C1.68768 17.3596 1.9093 17.2951 2.08277 17.156C2.25624 17.017 2.36735 16.8147 2.39166 16.5936C2.57465 14.9646 3.3514 13.4602 4.57351 12.3676C5.79562 11.2751 7.37741 10.6712 9.01667 10.6712C10.6559 10.6712 12.2377 11.2751 13.4598 12.3676C14.6819 13.4602 15.4587 14.9646 15.6417 16.5936C15.6643 16.7984 15.762 16.9875 15.9159 17.1245C16.0698 17.2615 16.269 17.3366 16.475 17.3353H16.5667C16.7851 17.3102 16.9848 17.1997 17.1221 17.028C17.2595 16.8563 17.3234 16.6373 17.3 16.4186C17.1329 14.9155 16.5599 13.4861 15.6424 12.2838C14.7249 11.0815 13.4974 10.1515 12.0917 9.59364ZM9 9.00198C8.34073 9.00198 7.69626 8.80648 7.1481 8.44021C6.59993 8.07394 6.17269 7.55334 5.9204 6.94425C5.66811 6.33517 5.6021 5.66495 5.73071 5.01834C5.85933 4.37174 6.1768 3.77779 6.64297 3.31162C7.10915 2.84544 7.70309 2.52798 8.3497 2.39936C8.9963 2.27074 9.66652 2.33675 10.2756 2.58904C10.8847 2.84134 11.4053 3.26858 11.7716 3.81674C12.1378 4.36491 12.3333 5.00937 12.3333 5.66864C12.3333 6.5527 11.9821 7.40054 11.357 8.02567C10.7319 8.65079 9.88405 9.00198 9 9.00198Z" fill="white"/>
</svg>
