<svg width="16" height="18" viewBox="0 0 16 18" fill="none" xmlns="http://www.w3.org/2000/svg">
<path d="M8.83333 15.6641H3C2.77899 15.6641 2.56702 15.5763 2.41074 15.42C2.25446 15.2637 2.16667 15.0517 2.16667 14.8307V3.16406C2.16667 2.94305 2.25446 2.73109 2.41074 2.57481C2.56702 2.41853 2.77899 2.33073 3 2.33073H7.16667V4.83073C7.16667 5.49377 7.43006 6.12966 7.8989 6.5985C8.36774 7.06734 9.00362 7.33073 9.66667 7.33073H12.1667V8.9974C12.1667 9.21841 12.2545 9.43037 12.4107 9.58665C12.567 9.74293 12.779 9.83073 13 9.83073C13.221 9.83073 13.433 9.74293 13.5893 9.58665C13.7455 9.43037 13.8333 9.21841 13.8333 8.9974V6.4974C13.8333 6.4974 13.8333 6.4974 13.8333 6.4474C13.8247 6.37084 13.8079 6.29542 13.7833 6.2224V6.1474C13.7433 6.06171 13.6898 5.98295 13.625 5.91406L8.625 0.914062C8.55611 0.849243 8.47735 0.795797 8.39167 0.755729C8.36679 0.752196 8.34154 0.752196 8.31667 0.755729C8.23201 0.70718 8.13852 0.676016 8.04167 0.664062H3C2.33696 0.664063 1.70107 0.927455 1.23223 1.3963C0.763392 1.86514 0.5 2.50102 0.5 3.16406V14.8307C0.5 15.4938 0.763392 16.1297 1.23223 16.5985C1.70107 17.0673 2.33696 17.3307 3 17.3307H8.83333C9.05435 17.3307 9.26631 17.2429 9.42259 17.0867C9.57887 16.9304 9.66667 16.7184 9.66667 16.4974C9.66667 16.2764 9.57887 16.0644 9.42259 15.9081C9.26631 15.7519 9.05435 15.6641 8.83333 15.6641ZM8.83333 3.50573L10.9917 5.66406H9.66667C9.44565 5.66406 9.23369 5.57627 9.07741 5.41998C8.92113 5.2637 8.83333 5.05174 8.83333 4.83073V3.50573ZM4.66667 5.66406C4.44565 5.66406 4.23369 5.75186 4.07741 5.90814C3.92113 6.06442 3.83333 6.27638 3.83333 6.4974C3.83333 6.71841 3.92113 6.93037 4.07741 7.08665C4.23369 7.24293 4.44565 7.33073 4.66667 7.33073H5.5C5.72101 7.33073 5.93297 7.24293 6.08926 7.08665C6.24554 6.93037 6.33333 6.71841 6.33333 6.4974C6.33333 6.27638 6.24554 6.06442 6.08926 5.90814C5.93297 5.75186 5.72101 5.66406 5.5 5.66406H4.66667ZM9.66667 8.9974H4.66667C4.44565 8.9974 4.23369 9.08519 4.07741 9.24147C3.92113 9.39775 3.83333 9.60972 3.83333 9.83073C3.83333 10.0517 3.92113 10.2637 4.07741 10.42C4.23369 10.5763 4.44565 10.6641 4.66667 10.6641H9.66667C9.88768 10.6641 10.0996 10.5763 10.2559 10.42C10.4122 10.2637 10.5 10.0517 10.5 9.83073C10.5 9.60972 10.4122 9.39775 10.2559 9.24147C10.0996 9.08519 9.88768 8.9974 9.66667 8.9974ZM15.2583 13.4057L13.5917 11.7391C13.5124 11.6632 13.419 11.6037 13.3167 11.5641C13.1138 11.4807 12.8862 11.4807 12.6833 11.5641C12.581 11.6037 12.4876 11.6632 12.4083 11.7391L10.7417 13.4057C10.5847 13.5627 10.4966 13.7755 10.4966 13.9974C10.4966 14.2193 10.5847 14.4321 10.7417 14.5891C10.8986 14.746 11.1114 14.8341 11.3333 14.8341C11.5553 14.8341 11.7681 14.746 11.925 14.5891L12.1667 14.3391V16.4974C12.1667 16.7184 12.2545 16.9304 12.4107 17.0867C12.567 17.2429 12.779 17.3307 13 17.3307C13.221 17.3307 13.433 17.2429 13.5893 17.0867C13.7455 16.9304 13.8333 16.7184 13.8333 16.4974V14.3391L14.075 14.5891C14.1525 14.6672 14.2446 14.7292 14.3462 14.7715C14.4477 14.8138 14.5567 14.8356 14.6667 14.8356C14.7767 14.8356 14.8856 14.8138 14.9871 14.7715C15.0887 14.7292 15.1809 14.6672 15.2583 14.5891C15.3364 14.5116 15.3984 14.4194 15.4407 14.3179C15.4831 14.2163 15.5048 14.1074 15.5048 13.9974C15.5048 13.8874 15.4831 13.7785 15.4407 13.6769C15.3984 13.5754 15.3364 13.4832 15.2583 13.4057ZM8 13.9974C8.22101 13.9974 8.43297 13.9096 8.58926 13.7533C8.74554 13.597 8.83333 13.3851 8.83333 13.1641C8.83333 12.943 8.74554 12.7311 8.58926 12.5748C8.43297 12.4185 8.22101 12.3307 8 12.3307H4.66667C4.44565 12.3307 4.23369 12.4185 4.07741 12.5748C3.92113 12.7311 3.83333 12.943 3.83333 13.1641C3.83333 13.3851 3.92113 13.597 4.07741 13.7533C4.23369 13.9096 4.44565 13.9974 4.66667 13.9974H8Z" fill="white"/>
</svg>
