<svg width="18" height="18" viewBox="0 0 18 18" fill="none" xmlns="http://www.w3.org/2000/svg">
<path d="M17.0917 15.9075L14 12.8409C15.2001 11.3445 15.7812 9.44527 15.624 7.5336C15.4668 5.62194 14.5831 3.84317 13.1546 2.56306C11.7261 1.28294 9.8615 0.59878 7.9441 0.651247C6.0267 0.703714 4.20226 1.48882 2.84595 2.84514C1.48963 4.20146 0.704522 6.02589 0.652055 7.94329C0.599588 9.86069 1.28375 11.7253 2.56387 13.1538C3.84398 14.5822 5.62275 15.466 7.53441 15.6232C9.44608 15.7804 11.3453 15.1993 12.8417 13.9992L15.9083 17.0659C15.9858 17.144 16.078 17.206 16.1795 17.2483C16.2811 17.2906 16.39 17.3124 16.5 17.3124C16.61 17.3124 16.7189 17.2906 16.8205 17.2483C16.922 17.206 17.0142 17.144 17.0917 17.0659C17.2419 16.9105 17.3258 16.7028 17.3258 16.4867C17.3258 16.2706 17.2419 16.0629 17.0917 15.9075ZM8.16666 13.9992C7.01294 13.9992 5.88512 13.6571 4.92584 13.0161C3.96655 12.3751 3.21888 11.4641 2.77737 10.3982C2.33585 9.33227 2.22034 8.15938 2.44542 7.02783C2.6705 5.89627 3.22607 4.85687 4.04187 4.04107C4.85768 3.22526 5.89708 2.66969 7.02864 2.44461C8.16019 2.21953 9.33308 2.33505 10.399 2.77656C11.4649 3.21807 12.3759 3.96574 13.0169 4.92503C13.6579 5.88432 14 7.01213 14 8.16585C14 9.71295 13.3854 11.1967 12.2915 12.2906C11.1975 13.3846 9.71376 13.9992 8.16666 13.9992Z" fill="white"/>
</svg>
