<svg width="24" height="24" viewBox="0 0 24 24" fill="none" xmlns="http://www.w3.org/2000/svg">
<g clip-path="url(#clip0_9476_59925)">
<path d="M10.875 6.375H1.875C1.67627 6.37559 1.48585 6.4548 1.34533 6.59533C1.2048 6.73585 1.12559 6.92627 1.125 7.125V22.125C1.12559 22.3237 1.2048 22.5142 1.34533 22.6547C1.48585 22.7952 1.67627 22.8744 1.875 22.875H10.875C11.0737 22.8744 11.2642 22.7952 11.4047 22.6547C11.5452 22.5142 11.6244 22.3237 11.625 22.125V7.125C11.6244 6.92627 11.5452 6.73585 11.4047 6.59533C11.2642 6.4548 11.0737 6.37559 10.875 6.375Z" fill="#00B6BD"/>
<path d="M11.625 7.125V22.125C11.6244 22.3237 11.5452 22.5142 11.4047 22.6547C11.2642 22.7952 11.0737 22.8744 10.875 22.875H1.875C1.67627 22.8744 1.48585 22.7952 1.34533 22.6547C1.2048 22.5142 1.12559 22.3237 1.125 22.125H9.375C9.77246 22.1238 10.1533 21.9654 10.4343 21.6843C10.7154 21.4033 10.8738 21.0225 10.875 20.625V6.375C11.0737 6.37559 11.2642 6.4548 11.4047 6.59533C11.5452 6.73585 11.6244 6.92627 11.625 7.125Z" fill="#009698"/>
<path d="M22.7475 7.37994C23.028 7.66114 23.1856 8.04212 23.1856 8.43931C23.1856 8.83651 23.028 9.21749 22.7475 9.49869L20.625 11.6212L18.5025 9.49869L20.625 7.37994C20.7639 7.23975 20.9292 7.12848 21.1114 7.05254C21.2935 6.9766 21.4889 6.9375 21.6863 6.9375C21.8836 6.9375 22.079 6.9766 22.2611 7.05254C22.4433 7.12848 22.6086 7.23975 22.7475 7.37994Z" fill="#57A4FF"/>
<path d="M22.125 19.2516C22.4059 19.5333 22.5637 19.9149 22.5637 20.3128C22.5637 20.7107 22.4059 21.0923 22.125 21.3741C22.1252 21.177 22.0866 20.9818 22.0113 20.7997C21.936 20.6176 21.8255 20.4522 21.6862 20.3129C21.5469 20.1735 21.3814 20.063 21.1993 19.9877C21.0172 19.9124 20.822 19.8738 20.625 19.8741H18.5062L17.8837 19.2516L20.0025 17.1328L22.125 19.2516Z" fill="#FFDE55"/>
<path d="M21.6863 20.3137C21.8963 20.5235 22.0393 20.7909 22.0973 21.082C22.1553 21.3732 22.1256 21.675 22.0119 21.9492C21.8983 22.2234 21.7059 22.4578 21.459 22.6226C21.2121 22.7874 20.9218 22.8752 20.625 22.875H17.625V19.875H20.625C21.0227 19.8757 21.4041 20.0334 21.6863 20.3137Z" fill="#57A4FF"/>
<path d="M17.8837 15.0099L20.0025 17.1324L17.8837 19.2511L15.7612 17.1324C15.4798 16.8509 15.3217 16.4692 15.3217 16.0711C15.3217 15.6731 15.4798 15.2914 15.7612 15.0099C16.0427 14.7284 16.4244 14.5703 16.8225 14.5703C17.2205 14.5703 17.6023 14.7284 17.8837 15.0099Z" fill="#57A4FF"/>
<path d="M17.625 19.875V22.875H14.625C14.2272 22.875 13.8456 22.717 13.5643 22.4357C13.283 22.1544 13.125 21.7728 13.125 21.375C13.125 20.9772 13.283 20.5956 13.5643 20.3143C13.8456 20.033 14.2272 19.875 14.625 19.875H17.625Z" fill="#FFDE55"/>
<path d="M16.7475 3.49876L14.625 5.62126L12.5025 3.49876C12.2934 3.28863 12.1511 3.02131 12.0937 2.73049C12.0362 2.43967 12.0661 2.13834 12.1796 1.86448C12.2931 1.59061 12.485 1.35645 12.7313 1.1915C12.9777 1.02654 13.2673 0.938168 13.5637 0.937509C13.7612 0.936808 13.9568 0.975594 14.139 1.05159C14.3213 1.12758 14.4865 1.23924 14.625 1.38001L16.7475 3.49876Z" fill="#FFDE55"/>
<path d="M1.125 11.25H11.625V18H1.125V11.25Z" fill="#57A4FF"/>
<path d="M10.875 11.25H11.625V18H10.875V11.25Z" fill="#2488FF"/>
<path d="M2.625 1.125H10.125V3.375H2.625V1.125Z" fill="#00B6BD"/>
<path d="M9.375 12.75V13.5C9.375 14.2956 9.05893 15.0587 8.49632 15.6213C7.93371 16.1839 7.17065 16.5 6.375 16.5V15.75C6.375 14.9544 6.69107 14.1913 7.25368 13.6287C7.81629 13.0661 8.57935 12.75 9.375 12.75Z" fill="#CCFC5C"/>
<path d="M9.37497 12.75V13.5C9.37497 14.2956 9.0589 15.0587 8.49629 15.6213C7.93368 16.1839 7.17062 16.5 6.37497 16.5V15.75C6.37435 15.7187 6.3756 15.6874 6.37872 15.6562C7.00627 15.4928 7.56397 15.1304 7.96825 14.6234C8.37253 14.1163 8.60163 13.4919 8.62122 12.8438C8.86772 12.7819 9.12084 12.7504 9.37497 12.75Z" fill="#A4E276"/>
<path d="M3.75 3.375H9V6.375H3.75V3.375Z" fill="#E0E0E2"/>
<path d="M9.375 1.125H10.125V3.375H9.375V1.125Z" fill="#009698"/>
<path d="M8.25 3.375H9V6.375H8.25V3.375Z" fill="#C6C5CA"/>
<path d="M6.375 15.75V16.5C5.57935 16.5 4.81629 16.1839 4.25368 15.6213C3.69107 15.0587 3.375 14.2956 3.375 13.5V12.75C4.17065 12.75 4.93371 13.0661 5.49632 13.6287C6.05893 14.1913 6.375 14.9544 6.375 15.75Z" fill="#CCFC5C"/>
<path d="M10.875 6H9.375V3.75H10.125C10.2245 3.75 10.3198 3.71049 10.3902 3.64016C10.4605 3.56984 10.5 3.47446 10.5 3.375V1.125C10.5 1.02554 10.4605 0.930161 10.3902 0.859835C10.3198 0.789509 10.2245 0.75 10.125 0.75H2.625C2.52554 0.75 2.43016 0.789509 2.35984 0.859835C2.28951 0.930161 2.25 1.02554 2.25 1.125V3.375C2.25 3.47446 2.28951 3.56984 2.35984 3.64016C2.43016 3.71049 2.52554 3.75 2.625 3.75H3.375V6H1.875C1.57691 6.00089 1.29127 6.1197 1.08049 6.33049C0.869703 6.54127 0.75089 6.82691 0.75 7.125V22.125C0.75089 22.4231 0.869703 22.7087 1.08049 22.9195C1.29127 23.1303 1.57691 23.2491 1.875 23.25H10.875C11.1731 23.2491 11.4587 23.1303 11.6695 22.9195C11.8803 22.7087 11.9991 22.4231 12 22.125V7.125C11.9991 6.82691 11.8803 6.54127 11.6695 6.33049C11.4587 6.1197 11.1731 6.00089 10.875 6ZM3 3V1.5H9.75V3H3ZM8.625 3.75V6H4.125V3.75H8.625ZM11.25 22.125C11.25 22.2245 11.2105 22.3198 11.1402 22.3902C11.0698 22.4605 10.9745 22.5 10.875 22.5H1.875C1.77554 22.5 1.68016 22.4605 1.60984 22.3902C1.53951 22.3198 1.5 22.2245 1.5 22.125V18.375H11.25V22.125ZM11.25 17.625H1.5V11.625H11.25V17.625ZM11.25 10.875H1.5V7.125C1.5 7.02554 1.53951 6.93016 1.60984 6.85983C1.68016 6.78951 1.77554 6.75 1.875 6.75H10.875C10.9745 6.75 11.0698 6.78951 11.1402 6.85983C11.2105 6.93016 11.25 7.02554 11.25 7.125V10.875Z" fill="black"/>
<path d="M6.375 16.875C7.26977 16.8739 8.12758 16.518 8.76028 15.8853C9.39298 15.2526 9.74891 14.3948 9.75 13.5V12.75C9.75 12.6505 9.71049 12.5552 9.64017 12.4848C9.56984 12.4145 9.47446 12.375 9.375 12.375C8.75434 12.3758 8.14592 12.5478 7.61665 12.872C7.08738 13.1961 6.65775 13.66 6.375 14.2125C6.09225 13.66 5.66262 13.1961 5.13335 12.872C4.60408 12.5478 3.99566 12.3758 3.375 12.375C3.27554 12.375 3.18016 12.4145 3.10984 12.4848C3.03951 12.5552 3 12.6505 3 12.75V13.5C3.00109 14.3948 3.35702 15.2526 3.98972 15.8853C4.62242 16.518 5.48023 16.8739 6.375 16.875ZM9 13.1516V13.5C8.99921 14.131 8.77149 14.7407 8.35841 15.2178C7.94532 15.6948 7.37444 16.0074 6.75 16.0984V15.75C6.75079 15.119 6.97851 14.5093 7.39159 14.0322C7.80468 13.5552 8.37556 13.2426 9 13.1516ZM3.75 13.1516C4.37444 13.2426 4.94532 13.5552 5.35841 14.0322C5.77149 14.5093 5.99921 15.119 6 15.75V16.0984C5.37556 16.0074 4.80468 15.6948 4.39159 15.2178C3.97851 14.7407 3.75079 14.131 3.75 13.5V13.1516Z" fill="black"/>
<path d="M14.625 5.99657C14.7245 5.99655 14.8198 5.95702 14.8901 5.88669L17.0115 3.76532C17.0818 3.695 17.1213 3.59963 17.1213 3.50019C17.1213 3.40076 17.0818 3.30539 17.0115 3.23507L14.8901 1.11369C14.538 0.764608 14.0619 0.569231 13.566 0.570317C13.0702 0.571403 12.5949 0.768863 12.2443 1.11949C11.8937 1.47011 11.6962 1.94535 11.6951 2.44121C11.694 2.93706 11.8894 3.41316 12.2385 3.76532L14.3599 5.88669C14.4302 5.95702 14.5256 5.99655 14.625 5.99657ZM12.7688 1.64432C12.8732 1.53983 12.9973 1.45695 13.1338 1.4004C13.2703 1.34385 13.4166 1.31475 13.5643 1.31475C13.7121 1.31475 13.8584 1.34385 13.9949 1.4004C14.1314 1.45695 14.2554 1.53983 14.3599 1.64432L16.2161 3.50019L14.625 5.09132L12.7688 3.23507C12.5579 3.0241 12.4394 2.738 12.4394 2.43969C12.4394 2.14138 12.5579 1.85529 12.7688 1.64432Z" fill="black"/>
<path d="M22.3912 18.9863L18.1462 14.7451C17.7926 14.4035 17.319 14.2145 16.8274 14.2188C16.3358 14.2231 15.8655 14.4203 15.5178 14.7679C15.1702 15.1156 14.973 15.5858 14.9687 16.0775C14.9645 16.5691 15.1535 17.0427 15.495 17.3963L17.5988 19.5001H14.625C14.1277 19.5001 13.6508 19.6976 13.2992 20.0493C12.9475 20.4009 12.75 20.8778 12.75 21.3751C12.75 21.8724 12.9475 22.3493 13.2992 22.7009C13.6508 23.0525 14.1277 23.2501 14.625 23.2501H20.625C21.095 23.2487 21.5473 23.0705 21.8919 22.7509C22.2365 22.4313 22.4483 21.9937 22.485 21.5251C22.7932 21.1685 22.955 20.7083 22.9376 20.2373C22.9202 19.7662 22.725 19.3192 22.3912 18.9863ZM17.25 22.5001H14.625C14.3266 22.5001 14.0405 22.3816 13.8295 22.1706C13.6185 21.9596 13.5 21.6735 13.5 21.3751C13.5 21.0767 13.6185 20.7906 13.8295 20.5796C14.0405 20.3686 14.3266 20.2501 14.625 20.2501H17.25V22.5001ZM16.0275 16.8676C15.8168 16.6566 15.6985 16.3707 15.6985 16.0726C15.6985 15.7745 15.8168 15.4885 16.0275 15.2776C16.1318 15.173 16.2557 15.09 16.3921 15.0334C16.5285 14.9768 16.6748 14.9476 16.8225 14.9476C16.9702 14.9476 17.1165 14.9768 17.2529 15.0334C17.3893 15.09 17.5132 15.173 17.6175 15.2776L19.4738 17.1338L17.8837 18.7238L16.0275 16.8676ZM20.625 22.5001H18V20.2501H20.625C20.9234 20.2501 21.2095 20.3686 21.4205 20.5796C21.6315 20.7906 21.75 21.0767 21.75 21.3751C21.75 21.6735 21.6315 21.9596 21.4205 22.1706C21.2095 22.3816 20.9234 22.5001 20.625 22.5001ZM22.185 20.3401C22.015 20.0817 21.7835 19.8696 21.5112 19.7229C21.2388 19.5763 20.9343 19.4997 20.625 19.5001H18.66L18.4125 19.2526L20.0025 17.6626L21.8588 19.5188C21.964 19.6226 22.0474 19.7465 22.1041 19.883C22.1607 20.0195 22.1895 20.166 22.1887 20.3138C22.1887 20.3213 22.185 20.3326 22.185 20.3401Z" fill="black"/>
<path d="M23.0115 7.11166C22.6599 6.76004 22.183 6.5625 21.6857 6.5625C21.1884 6.5625 20.7115 6.76004 20.3599 7.11166L18.2385 9.23304C18.1682 9.30336 18.1287 9.39873 18.1287 9.49816C18.1287 9.5976 18.1682 9.69296 18.2385 9.76329L20.3599 11.8847C20.4302 11.955 20.5256 11.9945 20.625 11.9945C20.7245 11.9945 20.8198 11.955 20.8901 11.8847L23.0115 9.76329C23.3626 9.41137 23.5598 8.93457 23.5598 8.43747C23.5598 7.94038 23.3626 7.46358 23.0115 7.11166ZM22.4813 9.23304L20.625 11.0893L19.0339 9.49816L20.8901 7.64229C21.1044 7.43756 21.3894 7.32332 21.6857 7.32332C21.9821 7.32332 22.267 7.43756 22.4813 7.64229C22.6922 7.85326 22.8107 8.13935 22.8107 8.43766C22.8107 8.73597 22.6922 9.02207 22.4813 9.23304Z" fill="black"/>
<path d="M16.875 5.25H17.625V6H16.875V5.25Z" fill="black"/>
<path d="M15.75 6.375H16.5V7.125H15.75V6.375Z" fill="black"/>
<path d="M17.25 7.125H18V7.875H17.25V7.125Z" fill="black"/>
<path d="M17.625 10.5H18.375V11.25H17.625V10.5Z" fill="black"/>
<path d="M18.75 11.625H19.5V12.375H18.75V11.625Z" fill="black"/>
<path d="M17.625 12.75H18.375V13.5H17.625V12.75Z" fill="black"/>
<path d="M19.125 13.5H19.875V14.25H19.125V13.5Z" fill="black"/>
<path d="M15.75 8.25H16.5V9H15.75V8.25Z" fill="black"/>
</g>
<defs>
<clipPath id="clip0_9476_59925">
<rect width="24" height="24" fill="white"/>
</clipPath>
</defs>
</svg>
