<svg width="24" height="24" viewBox="0 0 24 24" fill="none" xmlns="http://www.w3.org/2000/svg">
<g clip-path="url(#clip0_11566_47582)">
<path d="M5.37931 0H2.06897C0.926307 0 0 0.926307 0 2.06897C0 3.21162 0.926307 4.13793 2.06897 4.13793H5.37931C6.52197 4.13793 7.44828 3.21162 7.44828 2.06897C7.44828 0.926307 6.52197 0 5.37931 0Z" fill="#FFC845"/>
<path d="M5.37931 6.61719H2.06897C0.926307 6.61719 0 7.54349 0 8.68615C0 9.82881 0.926307 10.7551 2.06897 10.7551H5.37931C6.52197 10.7551 7.44828 9.82881 7.44828 8.68615C7.44828 7.54349 6.52197 6.61719 5.37931 6.61719Z" fill="#FFC845"/>
<path d="M5.37931 13.2422H2.06897C0.926307 13.2422 0 14.1685 0 15.3112C0 16.4538 0.926307 17.3801 2.06897 17.3801H5.37931C6.52197 17.3801 7.44828 16.4538 7.44828 15.3112C7.44828 14.1685 6.52197 13.2422 5.37931 13.2422Z" fill="#FFC845"/>
<path d="M5.37931 19.8594H2.06897C0.926307 19.8594 0 20.7857 0 21.9283C0 23.071 0.926307 23.9973 2.06897 23.9973H5.37931C6.52197 23.9973 7.44828 23.071 7.44828 21.9283C7.44828 20.7857 6.52197 19.8594 5.37931 19.8594Z" fill="#FFC845"/>
<path d="M16.9655 3.72522H9.93106C9.92969 2.58312 9.00418 1.65762 7.86209 1.65625H5.79313C5.5646 1.65625 5.37933 1.84151 5.37933 2.07004C5.37933 2.29857 5.5646 2.48384 5.79313 2.48384H7.86209C8.54769 2.48384 9.10347 3.03962 9.10347 3.72522V7.03556C9.10347 7.72116 8.54769 8.27694 7.86209 8.27694H5.79313C5.5646 8.27694 5.37933 8.4622 5.37933 8.69073C5.37933 8.91926 5.5646 9.10453 5.79313 9.10453H7.86209C8.31125 9.103 8.74745 8.95383 9.10347 8.67997V13.6562C9.10347 14.3418 8.54769 14.8976 7.86209 14.8976H5.79313C5.5646 14.8976 5.37933 15.0829 5.37933 15.3114C5.37933 15.54 5.5646 15.7252 5.79313 15.7252H7.86209C8.31125 15.7237 8.74745 15.5745 9.10347 15.3007V20.2769C9.10347 20.9625 8.54769 21.5183 7.86209 21.5183H5.79313C5.5646 21.5183 5.37933 21.7036 5.37933 21.9321C5.37933 22.1606 5.5646 22.3459 5.79313 22.3459H7.86209C9.00418 22.3445 9.92969 21.419 9.93106 20.2769V4.5528H16.9655C17.1941 4.5528 17.3793 4.73806 17.3793 4.96659V5.79418C17.3793 6.02271 17.5646 6.20797 17.7931 6.20797C18.0217 6.20797 18.2069 6.02271 18.2069 5.79418V4.96659C18.2069 4.281 17.6511 3.72522 16.9655 3.72522Z" fill="#617283"/>
<path d="M16.9655 5.79688H18.6207C19.0778 5.79688 19.4483 6.1674 19.4483 6.62446V8.69343H16.1379V6.62446C16.1379 6.1674 16.5085 5.79688 16.9655 5.79688Z" fill="#19B3BD"/>
<path d="M13.2414 8.27344H22.3448C23.2589 8.27344 24 9.01448 24 9.92861V17.7907C24 21.2187 21.2211 23.9976 17.7931 23.9976C14.3651 23.9976 11.5862 21.2187 11.5862 17.7907V9.92861C11.5862 9.01448 12.3272 8.27344 13.2414 8.27344Z" fill="#19B3BD"/>
<path d="M13.7429 18.2031H16.5517C16.7802 18.2031 16.9655 18.3884 16.9655 18.6169V21.7348C16.9664 21.8665 16.9046 21.9907 16.799 22.0693C16.6935 22.148 16.5568 22.1718 16.4309 22.1333C14.8521 21.635 13.6671 20.3206 13.3345 18.6988C13.3109 18.5769 13.343 18.4507 13.422 18.3549C13.501 18.259 13.6187 18.2033 13.7429 18.2031Z" fill="white"/>
<path d="M22.2517 18.6997C21.9191 20.3215 20.7341 21.6358 19.1553 22.1342C19.0293 22.1726 18.8924 22.1488 18.7868 22.0699C18.6813 21.9911 18.6195 21.8666 18.6207 21.7348V18.6169C18.6207 18.3884 18.8059 18.2031 19.0345 18.2031H21.8433C21.9677 18.2033 22.0855 18.259 22.1646 18.3551C22.2436 18.4512 22.2756 18.5776 22.2517 18.6997Z" fill="white"/>
<path d="M21.931 9.92969H13.6552C13.4267 9.92969 13.2414 10.1149 13.2414 10.3435V16.1366C13.2414 16.3651 13.4267 16.5504 13.6552 16.5504H21.931C22.1596 16.5504 22.3448 16.3651 22.3448 16.1366V10.3435C22.3448 10.1149 22.1596 9.92969 21.931 9.92969Z" fill="white"/>
<path d="M22.3449 10.3435V16.1366C22.3449 16.3651 22.1596 16.5504 21.9311 16.5504H19.138C16.1297 14.9573 15.7159 11.5104 15.6993 9.92969H21.9311C22.1596 9.92969 22.3449 10.1149 22.3449 10.3435Z" fill="#F8F8FA"/>
</g>
<defs>
<clipPath id="clip0_11566_47582">
<rect width="24" height="24" fill="white"/>
</clipPath>
</defs>
</svg>
