<svg width="24" height="24" viewBox="0 0 24 24" fill="none" xmlns="http://www.w3.org/2000/svg">
<path d="M6.09375 7.875H11.9062C12.13 7.875 12.3446 7.96389 12.5029 8.12213C12.6611 8.28036 12.75 8.49497 12.75 8.71875V22.875H5.25V8.71875C5.25 8.49497 5.33889 8.28036 5.49713 8.12213C5.65536 7.96389 5.86997 7.875 6.09375 7.875Z" fill="#69D6F4"/>
<path d="M9.75 13.5H12.75V19.5H9.75V13.5Z" fill="white"/>
<path d="M12.75 21.75H9.375C9.27554 21.75 9.18016 21.7105 9.10983 21.6402C9.03951 21.5698 9 21.4745 9 21.375C9 21.2755 9.03951 21.1802 9.10983 21.1098C9.18016 21.0395 9.27554 21 9.375 21H12.75C12.8495 21 12.9448 21.0395 13.0152 21.1098C13.0855 21.1802 13.125 21.2755 13.125 21.375C13.125 21.4745 13.0855 21.5698 13.0152 21.6402C12.9448 21.7105 12.8495 21.75 12.75 21.75Z" fill="white"/>
<path d="M7.875 21.75H5.25C5.15054 21.75 5.05516 21.7105 4.98484 21.6402C4.91451 21.5698 4.875 21.4745 4.875 21.375C4.875 21.2755 4.91451 21.1802 4.98484 21.1098C5.05516 21.0395 5.15054 21 5.25 21H7.875C7.97446 21 8.06984 21.0395 8.14017 21.1098C8.21049 21.1802 8.25 21.2755 8.25 21.375C8.25 21.4745 8.21049 21.5698 8.14017 21.6402C8.06984 21.7105 7.97446 21.75 7.875 21.75Z" fill="white"/>
<path d="M19.9155 4.91552L19.0064 4.00638L19.7915 2.95952C19.8634 2.86366 19.9551 2.78438 20.0603 2.72703C20.1655 2.66967 20.2818 2.6356 20.4013 2.6271C20.5208 2.61861 20.6408 2.6359 20.753 2.67779C20.8653 2.71969 20.9672 2.78522 21.0519 2.86994C21.1367 2.95465 21.2022 3.05659 21.2441 3.16884C21.286 3.28109 21.3033 3.40104 21.2949 3.52056C21.2864 3.64008 21.2523 3.75638 21.195 3.86159C21.1376 3.9668 21.0584 4.05846 20.9625 4.13036L19.9155 4.91552Z" fill="#EA9D2D"/>
<path d="M19.9155 4.00638L19.0064 4.91552L17.9595 4.13036C17.8637 4.05846 17.7844 3.96681 17.727 3.86161C17.6697 3.75641 17.6356 3.64011 17.6271 3.52059C17.6186 3.40107 17.6359 3.28112 17.6778 3.16887C17.7197 3.05661 17.7852 2.95467 17.8699 2.86994C17.9547 2.78522 18.0566 2.71969 18.1689 2.67779C18.2811 2.6359 18.4011 2.61861 18.5206 2.6271C18.6401 2.6356 18.7564 2.66967 18.8616 2.72703C18.9668 2.78438 19.0585 2.86366 19.1304 2.95952L19.9155 4.00638Z" fill="#EA9D2D"/>
<path d="M19.0064 4.00781L19.9155 4.91695L19.1304 5.96391C19.0585 6.05977 18.9668 6.13906 18.8616 6.19641C18.7564 6.25377 18.6401 6.28785 18.5206 6.29634C18.4011 6.30484 18.2811 6.28755 18.1689 6.24565C18.0566 6.20375 17.9547 6.13821 17.8699 6.05348C17.7852 5.96876 17.7197 5.86681 17.6778 5.75456C17.6359 5.6423 17.6186 5.52235 17.6271 5.40283C17.6356 5.28331 17.6697 5.16702 17.727 5.06181C17.7844 4.95661 17.8637 4.86496 17.9595 4.79306L19.0064 4.00781Z" fill="#EA9D2D"/>
<path d="M19.0064 4.91695L19.9155 4.00781L20.9625 4.79292C21.0584 4.86481 21.1377 4.95646 21.195 5.06167C21.2524 5.16687 21.2864 5.28317 21.2949 5.40269C21.3034 5.52221 21.2861 5.64216 21.2442 5.75442C21.2023 5.86668 21.1368 5.96862 21.0521 6.05334C20.9674 6.13807 20.8654 6.20361 20.7532 6.24551C20.6409 6.28741 20.5209 6.3047 20.4014 6.2962C20.2819 6.28771 20.1656 6.25363 20.0604 6.19627C19.9552 6.13892 19.8635 6.05963 19.7917 5.96377L19.0064 4.91695Z" fill="#EA9D2D"/>
<path d="M7.5 5.625H10.5V7.875H7.5V5.625Z" fill="#D9D9D9"/>
<path d="M12 1.125H9.28125C8.90829 1.125 8.5506 1.27316 8.28688 1.53688C8.02316 1.8006 7.875 2.15829 7.875 2.53125V3.375H10.125V2.625H13.5C13.5 2.22718 13.342 1.84564 13.0607 1.56434C12.7794 1.28304 12.3978 1.125 12 1.125Z" fill="black"/>
<path d="M8.25 3.375H9.75V5.625H8.25V3.375Z" fill="#39434D"/>
<path d="M6.75 19.125H2.25L1.125 10.875H7.875L6.75 19.125Z" fill="#FFC845"/>
<path d="M4.50004 15.7121C5.05266 15.7121 5.50064 15.2641 5.50064 14.7115C5.50064 14.1589 5.05266 13.7109 4.50004 13.7109C3.94743 13.7109 3.49945 14.1589 3.49945 14.7115C3.49945 15.2641 3.94743 15.7121 4.50004 15.7121Z" fill="white"/>
<path d="M4.5 13.403C4.40054 13.403 4.30516 13.3635 4.23484 13.2932C4.16451 13.2228 4.125 13.1275 4.125 13.028V12.5469C4.125 12.4474 4.16451 12.352 4.23484 12.2817C4.30516 12.2114 4.40054 12.1719 4.5 12.1719C4.59946 12.1719 4.69484 12.2114 4.76516 12.2817C4.83549 12.352 4.875 12.4474 4.875 12.5469V13.028C4.875 13.1275 4.83549 13.2228 4.76516 13.2932C4.69484 13.3635 4.59946 13.403 4.5 13.403Z" fill="white"/>
<path d="M3.04131 14.2419C2.97559 14.2419 2.91104 14.2245 2.85419 14.1915L2.43752 13.951C2.39453 13.9265 2.35679 13.8938 2.32649 13.8548C2.29619 13.8157 2.27392 13.771 2.26096 13.7233C2.24801 13.6755 2.24462 13.6257 2.25099 13.5767C2.25737 13.5276 2.27338 13.4803 2.29811 13.4375C2.32283 13.3947 2.35579 13.3572 2.39508 13.3271C2.43436 13.2971 2.4792 13.2751 2.52701 13.2625C2.57483 13.2498 2.62467 13.2468 2.67366 13.2535C2.72266 13.2602 2.76985 13.2765 2.81252 13.3015L3.22919 13.5421C3.30073 13.5833 3.35663 13.6471 3.38823 13.7234C3.41983 13.7997 3.42535 13.8843 3.40393 13.9641C3.38251 14.0439 3.33536 14.1143 3.26979 14.1645C3.20423 14.2148 3.12391 14.242 3.04131 14.2419Z" fill="white"/>
<path d="M2.62542 16.1726C2.54284 16.1727 2.46254 16.1455 2.39699 16.0953C2.33144 16.045 2.2843 15.9746 2.26289 15.8948C2.24147 15.8151 2.24699 15.7305 2.27857 15.6542C2.31015 15.5779 2.36603 15.5141 2.43754 15.4728L2.85422 15.2323C2.89689 15.2069 2.94417 15.1903 2.99332 15.1834C3.04247 15.1764 3.09251 15.1793 3.14053 15.1919C3.18855 15.2044 3.2336 15.2264 3.27308 15.2565C3.31255 15.2866 3.34566 15.3242 3.37048 15.3672C3.39529 15.4102 3.41133 15.4576 3.41766 15.5069C3.42399 15.5561 3.42048 15.6061 3.40734 15.654C3.3942 15.7018 3.37169 15.7466 3.34112 15.7857C3.31054 15.8248 3.2725 15.8574 3.22922 15.8817L2.81255 16.1223C2.75569 16.1552 2.69114 16.1726 2.62542 16.1726Z" fill="white"/>
<path d="M4.5 17.2546C4.40054 17.2546 4.30516 17.2151 4.23484 17.1447C4.16451 17.0744 4.125 16.979 4.125 16.8796V16.3984C4.125 16.299 4.16451 16.2036 4.23484 16.1333C4.30516 16.0629 4.40054 16.0234 4.5 16.0234C4.59946 16.0234 4.69484 16.0629 4.76516 16.1333C4.83549 16.2036 4.875 16.299 4.875 16.3984V16.8796C4.875 16.979 4.83549 17.0744 4.76516 17.1447C4.69484 17.2151 4.59946 17.2546 4.5 17.2546Z" fill="white"/>
<path d="M6.37465 16.1726C6.30893 16.1726 6.24438 16.1553 6.18752 16.1223L5.77085 15.8817C5.72757 15.8574 5.68953 15.8248 5.65895 15.7857C5.62838 15.7466 5.60586 15.7018 5.59272 15.654C5.57958 15.6061 5.57608 15.5561 5.58241 15.5069C5.58874 15.4576 5.60477 15.4102 5.62959 15.3672C5.65441 15.3242 5.68752 15.2866 5.72699 15.2565C5.76646 15.2264 5.81152 15.2044 5.85954 15.1919C5.90756 15.1793 5.9576 15.1764 6.00675 15.1834C6.0559 15.1903 6.10318 15.2069 6.14585 15.2323L6.56252 15.4728C6.63404 15.5141 6.68992 15.5779 6.7215 15.6542C6.75308 15.7305 6.75859 15.8151 6.73718 15.8948C6.71577 15.9746 6.66863 16.045 6.60308 16.0953C6.53753 16.1455 6.45723 16.1727 6.37465 16.1726Z" fill="white"/>
<path d="M5.95869 14.2419C5.8761 14.242 5.79578 14.2148 5.73021 14.1645C5.66465 14.1143 5.61749 14.0439 5.59608 13.9641C5.57466 13.8843 5.58018 13.7997 5.61178 13.7234C5.64337 13.6471 5.69928 13.5833 5.77082 13.5421L6.18749 13.3015C6.23015 13.2765 6.27734 13.2602 6.32634 13.2535C6.37534 13.2468 6.42518 13.2498 6.47299 13.2625C6.52081 13.2751 6.56565 13.2971 6.60493 13.3271C6.64422 13.3572 6.67717 13.3947 6.7019 13.4375C6.72663 13.4803 6.74264 13.5276 6.74901 13.5767C6.75539 13.6257 6.752 13.6755 6.73904 13.7233C6.72609 13.771 6.70382 13.8157 6.67351 13.8548C6.64321 13.8938 6.60548 13.9265 6.56249 13.951L6.14582 14.1915C6.08897 14.2245 6.02441 14.2419 5.95869 14.2419Z" fill="white"/>
<path d="M2.25 20.625H6.75V22.875H2.25V20.625Z" fill="#428DC5"/>
<path d="M3.75 20.625H5.25V21.375C5.25 21.4745 5.21049 21.5698 5.14016 21.6402C5.06984 21.7105 4.97446 21.75 4.875 21.75H4.125C4.02554 21.75 3.93016 21.7105 3.85984 21.6402C3.78951 21.5698 3.75 21.4745 3.75 21.375V20.625Z" fill="white"/>
<path d="M2.25 19.125H6.75V20.625H2.25V19.125Z" fill="#4799CF"/>
<path d="M1.125 9.375H7.875V10.875H1.125V9.375Z" fill="#39434D"/>
<path d="M19.875 13.875H20.25C20.4878 13.3994 20.6296 12.8817 20.6672 12.3514C20.7049 11.821 20.6378 11.2884 20.4697 10.784L20.25 10.125L19.32 10.59C18.4519 11.024 17.4947 11.25 16.5242 11.25H16.2088C15.9515 11.25 15.6968 11.3007 15.4592 11.3991C15.2215 11.4975 15.0056 11.6418 14.8237 11.8237C14.6418 12.0056 14.4975 12.2215 14.3991 12.4592C14.3007 12.6968 14.25 12.9515 14.25 13.2088V13.875H14.3932C13.858 13.875 13.3446 14.0876 12.9661 14.4661C12.5876 14.8446 12.375 15.358 12.375 15.8932V16.875H19.875C20.2728 16.875 20.6544 16.717 20.9357 16.4357C21.217 16.1544 21.375 15.7728 21.375 15.375C21.375 14.9772 21.217 14.5956 20.9357 14.3143C20.6544 14.033 20.2728 13.875 19.875 13.875Z" fill="#FFC845"/>
<path d="M16.5 14.25H14.25C14.1505 14.25 14.0552 14.2105 13.9848 14.1402C13.9145 14.0698 13.875 13.9745 13.875 13.875C13.875 13.7755 13.9145 13.6802 13.9848 13.6098C14.0552 13.5395 14.1505 13.5 14.25 13.5H16.5C16.5995 13.5 16.6948 13.5395 16.7652 13.6098C16.8355 13.6802 16.875 13.7755 16.875 13.875C16.875 13.9745 16.8355 14.0698 16.7652 14.1402C16.6948 14.2105 16.5995 14.25 16.5 14.25Z" fill="white"/>
<path d="M20.25 14.25H18.75C18.6505 14.25 18.5552 14.2105 18.4848 14.1402C18.4145 14.0698 18.375 13.9745 18.375 13.875C18.375 13.7755 18.4145 13.6802 18.4848 13.6098C18.5552 13.5395 18.6505 13.5 18.75 13.5H20.25C20.3495 13.5 20.4448 13.5395 20.5152 13.6098C20.5855 13.6802 20.625 13.7755 20.625 13.875C20.625 13.9745 20.5855 14.0698 20.5152 14.1402C20.4448 14.2105 20.3495 14.25 20.25 14.25Z" fill="white"/>
<path d="M18 22.875H15.75C14.5565 22.875 13.4119 22.4009 12.568 21.557C11.7241 20.7131 11.25 19.5685 11.25 18.375V17.625H22.5V18.375C22.5 19.5685 22.0259 20.7131 21.182 21.557C20.3381 22.4009 19.1935 22.875 18 22.875Z" fill="#FFB1B5"/>
<path d="M11.625 16.125H22.125V17.625H11.625V16.125Z" fill="black"/>
<path d="M11.625 16.875H22.125V17.625H11.625V16.875Z" fill="#39434D"/>
<path d="M19.461 5.106C19.816 5.106 20.1038 4.81819 20.1038 4.46316C20.1038 4.10812 19.816 3.82031 19.461 3.82031C19.1059 3.82031 18.8181 4.10812 18.8181 4.46316C18.8181 4.81819 19.1059 5.106 19.461 5.106Z" fill="white"/>
<path d="M12.75 10.3932V9.10754L14.0454 8.92247C14.164 8.90552 14.2849 8.91426 14.3998 8.94809C14.5148 8.98192 14.6211 9.04006 14.7116 9.11857C14.8022 9.19708 14.8748 9.29412 14.9245 9.40313C14.9743 9.51213 15 9.63056 15 9.75038C15 9.8702 14.9743 9.98863 14.9245 10.0976C14.8748 10.2066 14.8022 10.3037 14.7116 10.3822C14.6211 10.4607 14.5148 10.5188 14.3998 10.5527C14.2849 10.5865 14.164 10.5952 14.0454 10.5783L12.75 10.3932Z" fill="#FFB1B5"/>
<path d="M13.3929 9.75H12.1072L11.9221 8.45461C11.9052 8.33599 11.9139 8.21512 11.9477 8.10017C11.9816 7.98522 12.0397 7.87888 12.1182 7.78836C12.1967 7.69784 12.2938 7.62525 12.4028 7.57549C12.5118 7.52574 12.6302 7.5 12.75 7.5C12.8698 7.5 12.9883 7.52574 13.0973 7.57549C13.2063 7.62525 13.3033 7.69784 13.3818 7.78836C13.4603 7.87888 13.5185 7.98522 13.5523 8.10017C13.5861 8.21512 13.5949 8.33599 13.5779 8.45461L13.3929 9.75Z" fill="#FFB1B5"/>
<path d="M12.75 9.10754V10.3932L11.4546 10.5783C11.336 10.5952 11.2151 10.5865 11.1002 10.5527C10.9852 10.5188 10.8789 10.4607 10.7884 10.3822C10.6978 10.3037 10.6252 10.2066 10.5755 10.0976C10.5257 9.98863 10.5 9.8702 10.5 9.75038C10.5 9.63056 10.5257 9.51213 10.5755 9.40313C10.6252 9.29412 10.6978 9.19708 10.7884 9.11857C10.8789 9.04006 10.9852 8.98192 11.1002 8.94809C11.2151 8.91426 11.336 8.90552 11.4546 8.92247L12.75 9.10754Z" fill="#FFB1B5"/>
<path d="M12.1072 9.75H13.3929L13.5779 11.0454C13.5949 11.164 13.5861 11.2849 13.5523 11.3998C13.5185 11.5148 13.4603 11.6211 13.3818 11.7116C13.3033 11.8022 13.2063 11.8748 13.0973 11.9245C12.9883 11.9743 12.8698 12 12.75 12C12.6302 12 12.5118 11.9743 12.4028 11.9245C12.2938 11.8748 12.1967 11.8022 12.1182 11.7116C12.0397 11.6211 11.9816 11.5148 11.9477 11.3998C11.9139 11.2849 11.9052 11.164 11.9221 11.0454L12.1072 9.75Z" fill="#FFB1B5"/>
<path d="M12.75 10.3951C13.1051 10.3951 13.3929 10.1073 13.3929 9.75222C13.3929 9.39719 13.1051 9.10938 12.75 9.10938C12.395 9.10938 12.1072 9.39719 12.1072 9.75222C12.1072 10.1073 12.395 10.3951 12.75 10.3951Z" fill="white"/>
<path d="M8.25 3.375H9.75V4.125H8.25V3.375Z" fill="#39434D"/>
</svg>
