<svg width="24" height="24" viewBox="0 0 24 24" fill="none" xmlns="http://www.w3.org/2000/svg">
<g clip-path="url(#clip0_11566_47656)">
<path d="M13.3564 0.403971L12.9886 0.800768C12.931 0.863018 12.8387 0.878768 12.7636 0.839158L12.0761 0.476487C12.0011 0.436877 11.9088 0.452627 11.8511 0.514877L11.3229 1.08497C11.2652 1.14722 11.1729 1.16297 11.0978 1.12336L10.4104 0.76069C10.3354 0.72108 10.2431 0.73683 10.1854 0.79908L9.65719 1.36913C9.59954 1.43138 9.50724 1.44713 9.43215 1.40752L8.74482 1.04485C8.66977 1.00524 8.57747 1.02099 8.51977 1.08324L7.99168 1.65324C7.93397 1.71549 7.84168 1.73124 7.76663 1.69163L7.07944 1.32896C7.0044 1.28935 6.91205 1.3051 6.8544 1.36735L6.3264 1.9373C6.26874 1.99955 6.1764 2.0153 6.10135 1.97569L5.41407 1.61302C5.33902 1.57341 5.24672 1.58916 5.18902 1.65141L4.66088 2.22141C4.60318 2.28366 4.51088 2.29941 4.43583 2.2598L3.7486 1.89713C3.67355 1.85752 3.58121 1.87327 3.52355 1.93552L2.99546 2.50552C2.93776 2.56777 2.84546 2.58352 2.77041 2.54391L2.08318 2.18124C2.00813 2.14163 1.91579 2.15738 1.85813 2.21963L1.33004 2.78963C1.27238 2.85188 1.18004 2.86763 1.10499 2.82802L0.626724 2.57564C0.48924 2.50308 0.328224 2.61975 0.35438 2.77299L2.6821 16.4169C2.70826 16.5702 2.8988 16.6269 3.00446 16.5128L3.37219 16.116C3.42985 16.0538 3.52215 16.038 3.59719 16.0777L4.28471 16.4403C4.35976 16.4799 4.45205 16.4642 4.50971 16.4019L5.03794 15.8318C5.0956 15.7696 5.1879 15.7538 5.26299 15.7935L5.95041 16.1561C6.02546 16.1957 6.11776 16.18 6.17546 16.1177L6.70369 15.5477C6.76135 15.4854 6.85365 15.4697 6.92874 15.5093L7.61607 15.872C7.69111 15.9116 7.78341 15.8958 7.84111 15.8336L8.36921 15.2636C8.42691 15.2013 8.51921 15.1856 8.59426 15.2252L9.28144 15.5879C9.35649 15.6275 9.44883 15.6117 9.50649 15.5495L10.0345 14.9795C10.0921 14.9173 10.1845 14.9015 10.2595 14.9411L10.9468 15.3038C11.0219 15.3434 11.1142 15.3277 11.1719 15.2654L11.7 14.6954C11.7577 14.6332 11.85 14.6174 11.9251 14.657L12.6123 15.0197C12.6873 15.0593 12.7797 15.0435 12.8373 14.9813L13.3654 14.4113C13.4231 14.3491 13.5154 14.3333 13.5905 14.3729L14.2777 14.7356C14.3528 14.7752 14.4451 14.7594 14.5028 14.6972L15.0308 14.1272C15.0885 14.0649 15.1809 14.0492 15.2559 14.0888L15.7342 14.3412C15.8716 14.4137 16.0327 14.2971 16.0065 14.1438L13.6787 0.499924C13.6526 0.346643 13.4621 0.289971 13.3564 0.403971Z" fill="#19B3BD"/>
<path d="M8.1804 13.3738C10.894 13.3738 13.0938 11.1739 13.0938 8.46031C13.0938 5.7467 10.894 3.54688 8.1804 3.54688C5.46679 3.54688 3.26697 5.7467 3.26697 8.46031C3.26697 11.1739 5.46679 13.3738 8.1804 13.3738Z" fill="#3DCBFF"/>
<path d="M6.02113 5.71011C8.14639 4.24043 11.1779 5.17057 11.6377 7.86523C11.963 9.77154 10.6766 11.5871 8.7703 11.9123C8.57291 11.9459 8.37252 11.963 8.17461 11.963C6.4632 11.963 5.01172 10.7358 4.7232 9.04489C4.52056 7.85703 4.99531 6.41942 6.02113 5.71011Z" fill="#8CE0FF"/>
<path d="M11.6377 7.86514C11.279 5.76312 9.35547 4.73497 7.51792 5.08189C8.83483 5.33468 9.96494 6.30354 10.2314 7.86514C10.5505 9.73568 9.31754 11.5178 7.47015 11.8913C7.6982 11.9378 7.9337 11.9629 8.17459 11.9629C8.3725 11.9629 8.57289 11.9458 8.77028 11.9121C10.6765 11.587 11.9629 9.77145 11.6377 7.86514Z" fill="#73D9FF"/>
<path d="M23.3781 9.71721L22.8924 9.95552C22.8163 9.99288 22.7245 9.97446 22.6687 9.91057L22.1572 9.32519C22.1014 9.2613 22.0096 9.24283 21.9334 9.28024L21.2357 9.62261C21.1595 9.66002 21.0677 9.64155 21.0119 9.57766L20.5005 8.99233C20.4447 8.92844 20.3529 8.90997 20.2767 8.94738L19.579 9.28976C19.5029 9.32716 19.411 9.30869 19.3552 9.2448L18.8439 8.65952C18.7881 8.59558 18.6963 8.57716 18.6201 8.61457L17.9226 8.95694C17.8464 8.99435 17.7546 8.97588 17.6987 8.91199L17.1876 8.32676C17.1317 8.26282 17.0399 8.2444 16.9637 8.2818L16.2663 8.62418C16.1901 8.66158 16.0983 8.64311 16.0425 8.57922L15.5312 7.99399C15.4754 7.93005 15.3836 7.91163 15.3074 7.94904L14.6098 8.29141C14.5336 8.32882 14.4418 8.31035 14.386 8.24646L13.8748 7.66122C13.819 7.59729 13.7272 7.57886 13.651 7.61627L12.9534 7.95865C12.8773 7.99605 12.7854 7.97758 12.7296 7.91369L12.2184 7.32846C12.1626 7.26452 12.0707 7.2461 11.9946 7.28351L11.297 7.62588C11.2208 7.66329 11.129 7.64482 11.0732 7.58093L10.7175 7.17368C10.6152 7.05658 10.423 7.10768 10.3924 7.26011L7.66584 20.83C7.63523 20.9823 7.79269 21.1037 7.93228 21.0352L8.41795 20.7969C8.49412 20.7596 8.58591 20.778 8.64173 20.8419L9.15319 21.4272C9.20902 21.4911 9.3008 21.5096 9.37697 21.4722L10.0747 21.1298C10.1509 21.0924 10.2427 21.1109 10.2985 21.1748L10.8099 21.7601C10.8657 21.824 10.9575 21.8425 11.0337 21.8051L11.7314 21.4627C11.8076 21.4253 11.8994 21.4437 11.9552 21.5076L12.4665 22.0929C12.5223 22.1568 12.6142 22.1753 12.6903 22.1379L13.3879 21.7955C13.464 21.7581 13.5559 21.7766 13.6117 21.8404L14.1229 22.4257C14.1787 22.4896 14.2705 22.508 14.3467 22.4706L15.0442 22.1283C15.1203 22.0908 15.2122 22.1093 15.268 22.1732L15.7792 22.7585C15.835 22.8224 15.9269 22.8408 16.003 22.8034L16.7006 22.4611C16.7768 22.4237 16.8686 22.4421 16.9245 22.506L17.4356 23.0913C17.4915 23.1552 17.5833 23.1736 17.6595 23.1362L18.357 22.7938C18.4332 22.7564 18.525 22.7749 18.5808 22.8388L19.092 23.424C19.1479 23.488 19.2397 23.5064 19.3159 23.469L20.0134 23.1266C20.0896 23.0892 20.1814 23.1077 20.2372 23.1716L20.593 23.5788C20.6953 23.6959 20.8874 23.6448 20.918 23.4924L23.6446 9.92252C23.6752 9.77008 23.5177 9.64872 23.3781 9.71721Z" fill="#FFBDF1"/>
<path d="M15.6552 20.2878C18.3688 20.2878 20.5686 18.088 20.5686 15.3744C20.5686 12.6608 18.3688 10.4609 15.6552 10.4609C12.9416 10.4609 10.7418 12.6608 10.7418 15.3744C10.7418 18.088 12.9416 20.2878 15.6552 20.2878Z" fill="#FF8FE7"/>
<path d="M14.9643 18.8111C13.0938 18.4352 11.8399 16.5565 12.2167 14.6818C12.5933 12.8074 14.4729 11.5578 16.346 11.9342C18.2165 12.31 19.4704 14.1887 19.0936 16.0635C18.8384 17.3333 17.9081 18.3323 16.7254 18.7135" fill="#FFBDF1"/>
<path d="M16.3461 11.9341C15.8791 11.8403 15.4117 11.8476 14.9673 11.9404C16.8225 12.3291 18.0623 14.1979 17.6875 16.0634C17.5381 16.8068 17.1573 17.4575 16.6299 17.9456C16.1051 18.4313 15.4202 18.7078 14.7061 18.7474C14.791 18.7714 14.8767 18.7934 14.9644 18.811C15.5328 18.9341 16.1237 18.9057 16.6777 18.7286L16.7255 18.7133C17.9082 18.3322 18.8386 17.3332 19.0937 16.0634C19.4704 14.1887 18.2166 12.31 16.3461 11.9341Z" fill="#FFB0EE"/>
<path d="M23.7897 9.4598C23.6259 9.33361 23.4088 9.31177 23.2232 9.4029L22.8505 9.58576L22.4219 9.09526C22.2617 8.91174 21.9971 8.85868 21.7785 8.96593L21.1937 9.2529L20.7651 8.7623C20.6049 8.57893 20.3403 8.52586 20.1217 8.63307L19.537 8.91999L19.1086 8.42963C18.9484 8.24602 18.6838 8.19286 18.4651 8.30025L17.8805 8.58713L17.4522 8.09686C17.292 7.9133 17.0274 7.8601 16.8087 7.96749L16.2243 8.25436L15.7958 7.76386C15.6575 7.60557 15.4415 7.54468 15.2443 7.59985L14.0253 0.444474C13.9514 0.0115837 13.3971 -0.153369 13.0985 0.168709L12.8164 0.473209L12.2402 0.169224C12.0247 0.0555993 11.7587 0.100974 11.5933 0.279615L11.1506 0.757412L10.5745 0.453427C10.359 0.339802 10.093 0.385177 9.92755 0.563818L9.48486 1.04152L8.90891 0.737631C8.69328 0.623818 8.42745 0.669334 8.26184 0.848021L7.81934 1.32568L7.24353 1.02179C7.028 0.908115 6.76203 0.953443 6.59647 1.13218L6.15402 1.60979L5.57802 1.30585C5.36248 1.19222 5.09656 1.2376 4.93109 1.41624L4.4885 1.8939L3.91264 1.5901C3.69725 1.47638 3.43119 1.52171 3.26553 1.70044L2.82303 2.1781L2.24717 1.87421C2.03169 1.76049 1.76567 1.80587 1.60011 1.98455L1.15761 2.46221L0.790672 2.26857C0.402312 2.06368 -0.0661563 2.4031 0.00776559 2.83599L2.33548 16.4799C2.40805 16.905 2.95302 17.0893 3.26225 16.7557L3.54444 16.4513L4.12062 16.7552C4.33602 16.8688 4.60208 16.8234 4.76755 16.6448L5.21023 16.1671L5.78623 16.4709C6.00167 16.5846 6.26769 16.5392 6.43325 16.3606L6.87589 15.8829L7.45184 16.1867C7.66723 16.3005 7.9333 16.2551 8.09895 16.0764L8.30783 15.8509L7.32111 20.7617C7.28042 20.9644 7.35687 21.1687 7.52061 21.2949C7.68448 21.4211 7.90152 21.4428 8.08709 21.3518L8.45975 21.1689L8.88842 21.6596C9.04873 21.843 9.3133 21.8961 9.53183 21.7888L10.1165 21.5019L10.545 21.9923C10.7052 22.1757 10.9699 22.229 11.1886 22.1216L11.7733 21.8347L12.2018 22.3253C12.362 22.5087 12.6266 22.5617 12.8453 22.4544L13.4298 22.1675L13.8582 22.658C14.0185 22.8414 14.283 22.8946 14.5017 22.7872L15.0861 22.5003L15.5146 22.9908C15.6748 23.1741 15.9394 23.2275 16.1581 23.12L16.7427 22.8331L17.171 23.3236C17.3313 23.507 17.5959 23.5602 17.8146 23.4528L18.3991 23.1659L18.8274 23.6562C18.9876 23.8397 19.2523 23.8929 19.471 23.7856L20.0555 23.4987L20.3284 23.8111C20.4328 23.9306 20.5797 23.9959 20.7327 23.9959C20.7793 23.9959 20.8263 23.9899 20.8729 23.9775C21.0727 23.9243 21.2222 23.7654 21.2629 23.5627L23.2513 13.6663C23.3408 13.2206 22.6516 13.0822 22.562 13.5278L20.6391 23.098L20.5022 22.9412C20.342 22.758 20.0775 22.7047 19.8587 22.812L19.2742 23.0989L18.8458 22.6085C18.6855 22.4251 18.421 22.3719 18.2022 22.4792L17.6177 22.7661L17.1893 22.2756C17.0291 22.0924 16.7646 22.0391 16.5458 22.1464L15.9612 22.4333L15.5328 21.9429C15.3725 21.7594 15.1079 21.7063 14.8893 21.8136L14.3048 22.1005L13.8765 21.6101C13.7163 21.4267 13.4517 21.3736 13.2329 21.4808L12.6484 21.7677L12.2199 21.2772C12.0597 21.0938 11.7951 21.0407 11.5764 21.1479L10.9917 21.4349L10.5633 20.9444C10.4031 20.7609 10.1384 20.7078 9.91977 20.8151L9.335 21.102L8.90637 20.6114C8.74611 20.4281 8.48159 20.3749 8.26297 20.4822L8.07594 20.574L10.6715 7.65638L10.8083 7.81313C10.9686 7.9966 11.2332 8.04971 11.4518 7.94241L12.0364 7.65549L12.4648 8.14599C12.625 8.32927 12.8895 8.38252 13.1083 8.27522L13.6928 7.9883L14.1211 8.47866C14.2813 8.66218 14.546 8.71538 14.7647 8.60804L15.3492 8.32112L15.7777 8.81157C15.938 8.99499 16.2026 9.04819 16.4212 8.9408L17.0056 8.65393L17.4339 9.14419C17.5942 9.32775 17.8588 9.38091 18.0775 9.27357L18.662 8.98669L19.0905 9.47719C19.2508 9.66047 19.5153 9.71372 19.734 9.60643L20.3187 9.31951L20.7472 9.8101C20.9075 9.99343 21.1721 10.0465 21.3907 9.93929L21.9754 9.65236L22.4041 10.143C22.5644 10.3263 22.829 10.3794 23.0475 10.2722L23.2345 10.1804L22.9296 11.6978C22.8401 12.1435 23.5295 12.2821 23.6189 11.8364L23.9894 9.99282C24.0299 9.79032 23.9535 9.58599 23.7897 9.4598ZM12.4831 7.09815C12.2953 6.88336 11.9871 6.89227 11.7565 7.00974C11.1732 5.55633 9.78041 4.60271 8.18623 4.60271C7.31605 4.60271 6.49156 4.89301 5.80203 5.44229C5.44648 5.72546 5.88453 6.27544 6.24012 5.99222C6.80384 5.54316 7.47683 5.30583 8.18628 5.30583C9.33838 5.30583 10.3616 5.91521 10.9129 6.87722C10.7807 6.77082 10.6062 6.73233 10.4377 6.7771C10.2379 6.83021 10.0885 6.98916 10.0477 7.19185L9.19189 11.4512C9.03556 11.504 8.87455 11.545 8.71114 11.5729C8.5332 11.6032 8.35269 11.6186 8.17456 11.6186C6.63509 11.6186 5.32934 10.5143 5.06975 8.99293C4.96189 8.36086 5.0525 7.71783 5.33169 7.1334C5.52758 6.72324 4.89313 6.4201 4.69723 6.8303C4.35509 7.54651 4.24423 8.33518 4.37661 9.11119C4.69405 10.9715 6.29136 12.3218 8.17456 12.3218C8.3922 12.3218 8.61252 12.303 8.82936 12.266C8.89883 12.2542 8.96787 12.2401 9.03655 12.2245L8.88702 12.9687C6.42992 13.3545 4.10314 11.6888 3.68356 9.22941C3.47862 8.02824 3.75373 6.81919 4.45817 5.82493C5.16261 4.83066 6.21209 4.17024 7.41327 3.96535C9.71905 3.57188 11.9225 4.99144 12.5602 7.18636L12.4831 7.09815ZM14.1395 7.43096C13.9234 7.18369 13.5794 7.2211 13.333 7.38179C12.7568 4.62802 10.0916 2.79521 7.29491 3.27226C5.90863 3.50874 4.69737 4.27097 3.88437 5.41847C3.07133 6.56597 2.75384 7.9614 2.99033 9.34768C3.42772 11.9111 5.66009 13.7277 8.17761 13.7277C8.36389 13.7277 8.55191 13.7166 8.74072 13.6962L8.50766 14.8562C8.3608 14.8561 8.21591 14.9155 8.11119 15.0286L7.66873 15.5062L7.09273 15.2023C6.87716 15.0885 6.61123 15.134 6.44572 15.3126L6.00308 15.7903L5.42698 15.4864C5.21155 15.3727 4.94553 15.4182 4.78006 15.5968L4.33733 16.0745L3.76123 15.7706C3.54584 15.6569 3.27983 15.7023 3.11427 15.8809L2.97266 16.0337L0.756828 3.04571L0.940812 3.14279C1.15625 3.25646 1.42231 3.21108 1.58787 3.03244L2.03033 2.55483L2.60619 2.85868C2.82148 2.9723 3.08759 2.92697 3.2533 2.74833L3.69575 2.27072L4.27161 2.57457C4.48705 2.68819 4.75306 2.64291 4.91862 2.46422L5.36122 1.98657L5.93722 2.29051C6.15266 2.40413 6.41867 2.35871 6.58419 2.18007L7.02659 1.70246L7.6025 2.0064C7.81789 2.11997 8.08395 2.0746 8.24947 1.89596L8.69201 1.4183L9.26797 1.72219C9.48336 1.83587 9.74937 1.79049 9.91494 1.61185L10.3576 1.13415L10.9337 1.43808C11.1491 1.55166 11.4151 1.50629 11.5806 1.32769L12.0233 0.849943L12.5995 1.15393C12.8149 1.26751 13.0809 1.22218 13.2464 1.04354L13.388 0.890818L14.5846 7.91335L14.5679 7.92155L14.1395 7.43096Z" fill="#252B32"/>
<path d="M16.6923 10.2142C15.3137 9.93715 13.9094 10.2136 12.7385 10.9926C11.5677 11.7716 10.7703 12.9601 10.4933 14.3388C9.92142 17.185 11.7717 19.9659 14.618 20.5378C14.9666 20.6079 15.3141 20.6415 15.6568 20.6415C18.1121 20.6415 20.3151 18.9107 20.8169 16.4131C21.094 15.0343 20.8175 13.6301 20.0385 12.4594C19.2594 11.2886 18.0711 10.4913 16.6923 10.2142ZM20.1276 16.2746C19.6928 18.4388 17.7841 19.9385 15.6565 19.9384C15.3597 19.9384 15.0584 19.9092 14.7565 19.8485C12.2903 19.353 10.6871 16.9435 11.1827 14.4774C11.4227 13.2828 12.1136 12.2531 13.128 11.5781C13.8857 11.074 14.756 10.8127 15.6457 10.8127C15.9473 10.8127 16.2513 10.8428 16.5538 10.9036C17.7484 11.1436 18.7781 11.8345 19.4531 12.8489C20.1281 13.8634 20.3676 15.08 20.1276 16.2746Z" fill="#252B32"/>
<path d="M16.4153 11.5981C15.4173 11.3976 14.3909 11.604 13.5255 12.1798C12.6598 12.7556 12.0727 13.6226 11.8721 14.6211C11.6715 15.6195 11.8786 16.6461 12.4552 17.512C13.0314 18.3772 13.8979 18.964 14.8951 19.1644C15.3267 19.2509 15.4721 18.5631 15.0336 18.475C14.2204 18.3117 13.5126 17.8312 13.0404 17.1223C12.5679 16.4128 12.3978 15.5737 12.5614 14.7597C12.725 13.9453 13.2057 13.237 13.9149 12.7653C14.624 12.2936 15.4629 12.1238 16.2768 12.2875C17.0899 12.4509 17.7978 12.9313 18.2699 13.6403C18.7424 14.3497 18.9125 15.1888 18.749 16.0029C18.524 17.1226 17.7072 18.0363 16.6175 18.3875C16.1848 18.527 16.4006 19.1958 16.8333 19.0567C18.165 18.6276 19.1632 17.5105 19.4383 16.1414C19.6389 15.1431 19.4318 14.1164 18.8552 13.2505C18.2789 12.3852 17.4124 11.7984 16.4153 11.5981Z" fill="#252B32"/>
<path d="M15.6499 12.9219C14.4891 12.9219 13.4801 13.7505 13.2507 14.8922C13.1637 15.3256 13.8493 15.4829 13.9401 15.0307C14.1037 14.2162 14.8228 13.625 15.6499 13.625C16.1045 13.625 16.1045 12.9219 15.6499 12.9219Z" fill="#252B32"/>
</g>
<defs>
<clipPath id="clip0_11566_47656">
<rect width="24" height="24" fill="white"/>
</clipPath>
</defs>
</svg>
