<svg width="24" height="24" viewBox="0 0 24 24" fill="none" xmlns="http://www.w3.org/2000/svg">
<g clip-path="url(#clip0_11566_47627)">
<path d="M19.9656 21.5555V23.5862C19.9656 23.8148 19.7804 24 19.5518 24H4.44832C4.2197 24 4.03453 23.8148 4.03453 23.5862V21.5555C4.03453 19.994 4.96298 18.6486 6.29798 18.0419C5.75327 17.6085 4.92305 17.026 4.31901 15.7728C3.47772 14.0298 3.62172 11.9735 4.69349 10.364C5.27591 9.48983 5.58625 8.46362 5.58625 7.41362V5.17241C5.58625 2.31569 7.90194 0 10.7587 0H13.2414C16.0982 0 18.4138 2.31569 18.4138 5.17241C18.4138 7.54588 18.3559 8.01067 18.6419 8.95448C19.0457 10.289 19.5789 10.4541 19.9899 11.8122C20.636 13.9471 19.9213 16.2754 18.1604 17.6772L17.7021 18.0419C19.0371 18.6486 19.9656 19.994 19.9656 21.5555Z" fill="#39434D"/>
<path d="M19.9656 21.5568V23.5875C19.9656 23.816 19.7803 24.0013 19.5518 24.0013H4.44834C4.21982 24.0013 4.03455 23.816 4.03455 23.5875V21.5568C4.03455 19.4277 5.76053 17.6997 7.89161 17.6997C8.20868 17.6997 8.50972 17.6309 8.78024 17.5078L8.79317 17.5357L11.7468 19.8224C11.8959 19.9378 12.1042 19.9378 12.2534 19.8224L15.207 17.5357L15.2199 17.5078C15.4904 17.6309 15.7914 17.6997 16.1085 17.6997C18.2313 17.6997 19.9656 19.4195 19.9656 21.5568Z" fill="#FFAA64"/>
<path d="M16.7291 7.56851C16.9487 7.58103 17.1207 7.76155 17.1207 7.98158V10.4584C17.1207 12.5931 15.8147 14.4226 13.9578 15.1912C10.6 16.585 6.87933 14.1089 6.87933 10.4584V8.01758C6.87933 7.77505 7.08706 7.58341 7.32861 7.60529C9.81069 7.83034 12.2549 7.20354 14.3074 5.82086C14.5408 5.66361 14.8622 5.7801 14.9359 6.05175C15.1912 6.99282 15.8876 7.52056 16.7291 7.56851Z" fill="#FFEBD2"/>
<path d="M18.1604 17.6772L17.7021 18.0419C17.2164 17.8216 16.677 17.6984 16.1085 17.6984C14.9277 17.6984 13.9656 16.7449 13.9656 15.5602V15.2069L13.9578 15.1878C15.8147 14.4191 17.1207 12.5897 17.1207 10.455V7.97814C17.1207 7.7581 16.9488 7.57759 16.7291 7.56507C15.8928 7.51743 15.1929 6.99543 14.936 6.04836C14.8623 5.77671 14.5409 5.66022 14.3074 5.81747C12.2563 7.19922 9.81223 7.82705 7.32864 7.6019C7.08709 7.58002 6.87937 7.77165 6.87937 8.01419V10.4551C6.87937 12.5897 8.1854 14.4192 10.0423 15.1878L10.0345 15.2069V15.5602C10.0345 16.7448 9.07268 17.6985 7.89161 17.6985C7.32316 17.6985 6.78368 17.8216 6.29799 18.0419L5.83971 17.6773C3.61501 15.9046 3.11964 12.7276 4.69351 10.364C5.27592 9.48988 5.58627 8.46367 5.58627 7.41367V5.17241C5.58627 2.31579 7.90206 0 10.7587 0H13.2414C16.0981 0 18.4139 2.31579 18.4139 5.17241V7.41362C18.4139 8.46238 18.7242 9.48983 19.3066 10.364C20.8862 12.7361 20.3767 15.9128 18.1604 17.6772Z" fill="#42434D"/>
<path d="M14.024 16.0559C12.7497 16.5894 11.3492 16.6308 9.97607 16.0559C10.0462 15.7649 10.0345 15.5765 10.0345 15.2066L10.0423 15.1875C11.2879 15.7045 12.7097 15.7056 13.9578 15.1875L13.9656 15.2066C13.9656 15.5766 13.9539 15.7651 14.024 16.0559Z" fill="#FFD6A6"/>
<path d="M15.5781 0.556655C16.1063 0.824586 15.8767 1.63081 15.2871 1.575C15.1245 1.55959 14.9597 1.55172 14.7931 1.55172H12.3104C9.45374 1.55172 7.13795 3.86752 7.13795 6.72414V7.35352C7.13795 7.7251 6.87933 7.7131 6.87933 8.01414C6.87933 10.7463 6.8904 10.5733 6.85031 10.6912C6.44454 11.8849 5.95724 12.0577 5.56191 13.364C5.34659 14.0755 5.28297 14.8082 5.35755 15.5193C5.41843 16.0996 4.61035 16.3772 4.31898 15.7728C3.48369 14.0422 3.6145 11.9843 4.69347 10.364C5.27588 9.48983 5.58623 8.46362 5.58623 7.41362V5.17241C5.58623 2.31579 7.90202 0 10.7586 0H13.2414C14.0823 0 14.8762 0.200638 15.5781 0.556655Z" fill="#4D4E59"/>
<path d="M11.0184 13.8867C11.7911 14.4039 11.2021 15.6003 10.3247 15.2924C8.39614 14.6156 6.87933 12.8157 6.87933 10.4563V8.01549C6.87933 7.7729 7.08726 7.58152 7.32882 7.60325C7.52702 7.62125 7.74468 7.63542 7.97956 7.64261C8.40468 7.65554 8.7414 8.00659 8.7414 8.43192V9.62882C8.7414 11.4302 9.65982 12.9773 11.0184 13.8867Z" fill="#FFF3E4"/>
<path d="M9.64625 18.1962C9.89174 18.3862 9.76201 18.7847 9.45156 18.7859C7.26193 18.7941 5.58627 20.5522 5.58627 22.643V24.0013H4.44834C4.21982 24.0013 4.03455 23.816 4.03455 23.5875V21.5568C4.03455 19.4277 5.76058 17.6997 7.89161 17.6997C8.20868 17.6997 8.50972 17.6309 8.78024 17.5078L8.79317 17.5357L9.64625 18.1962Z" fill="#FFBD7B"/>
<path d="M14.3538 18.1962C14.1083 18.3862 14.238 18.7847 14.5485 18.7859C16.7381 18.7941 18.4138 20.5522 18.4138 22.643V24.0013H19.5517C19.7802 24.0013 19.9655 23.816 19.9655 23.5875V21.5568C19.9655 19.4277 18.2395 17.6997 16.1084 17.6997C15.7913 17.6997 15.4903 17.6309 15.2198 17.5078L15.2069 17.5357L14.3538 18.1962Z" fill="#FAA157"/>
</g>
<defs>
<clipPath id="clip0_11566_47627">
<rect width="24" height="24" fill="white"/>
</clipPath>
</defs>
</svg>
