<svg width="24" height="24" viewBox="0 0 24 24" fill="none" xmlns="http://www.w3.org/2000/svg">
<g clip-path="url(#clip0_11566_47600)">
<path d="M15.4839 2.71094V3.48513C15.4839 3.91094 15.1355 4.25932 14.7097 4.25932H9.29031C8.8645 4.25932 8.51611 3.91094 8.51611 3.48513V2.71094H15.4839Z" fill="#39434D"/>
<path d="M15.4839 1.16482V2.71321H8.51611V1.16482C8.51611 0.739012 8.8645 0.390625 9.29031 0.390625H14.7097C15.1355 0.390625 15.4839 0.739012 15.4839 1.16482Z" fill="#FF826E"/>
<path d="M14.7096 4.25781H9.29029L6.96771 7.35459L12 10.7107L17.0322 7.35459L14.7096 4.25781Z" fill="#E6E9ED"/>
<path d="M17.0322 16.6491V18.7201C17.0322 18.4685 16.9316 18.2401 16.7651 18.0775C16.6026 17.9111 16.3742 17.8104 16.1226 17.8104H16.0451C15.7006 17.8104 15.3871 18.004 15.2322 18.3136L13.68 21.4182C13.5987 21.5807 13.4322 21.6814 13.2542 21.6814C12.9871 21.6814 12.7742 21.4685 12.7742 21.2014V17.4233C12.7742 16.9975 12.4258 16.6491 12 16.6491C11.7871 16.6491 11.5935 16.7343 11.4542 16.8775C11.3109 17.0169 11.2258 17.2104 11.2258 17.4233V21.2014C11.2258 21.4685 11.0129 21.6814 10.7458 21.6814C10.5677 21.6814 10.4013 21.5807 10.32 21.4182L8.76771 18.3136C8.61287 18.004 8.29932 17.8104 7.95481 17.8104H7.87739C7.37416 17.8104 6.96771 18.2169 6.96771 18.7201V16.6491L12 13.2969L17.0322 16.6491Z" fill="#E6E9ED"/>
<path d="M17.0323 13.1658V16.6497L12 13.2974L13.9355 12.0045L12 10.7155L17.0323 7.35938V10.8432V13.1658Z" fill="#FFEAA7"/>
<path d="M13.9355 12.0045L12 13.2974L6.96771 16.6497V13.1658V10.8432V7.35938L12 10.7155L13.9355 12.0045Z" fill="#FCD770"/>
<path d="M20.5161 10.4584L20.9032 7.36164H20.5161C20.0903 7.36164 19.7419 7.01326 19.7419 6.58745V6.20035C19.7419 5.55777 20.2606 5.03906 20.9032 5.03906H21.4761C22.0413 5.03906 22.5213 5.44551 22.6219 5.99906L23.5858 11.4649C23.6051 11.5694 23.6129 11.67 23.6129 11.7745C23.6129 12.7578 22.8155 13.5552 21.8322 13.5552H21.7122C21.4335 13.5552 21.1625 13.4894 20.9148 13.3655L20.5161 13.1681L20.4271 13.2571C19.9858 13.6945 19.3935 13.9423 18.7742 13.9423C18.1548 13.9423 17.5587 13.6945 17.1213 13.2571L17.0322 13.1681V10.8455L17.1213 10.7565C17.5587 10.3191 18.1548 10.0713 18.7742 10.0713H19.1922C19.5522 10.0713 19.9122 10.1565 20.2335 10.3191L20.5161 10.4584Z" fill="#F0D0B4"/>
<path d="M3.48386 10.4584L3.76644 10.3191C4.08773 10.1565 4.44773 10.0713 4.80773 10.0713H5.22579C5.84515 10.0713 6.44128 10.3191 6.8787 10.7565L6.96773 10.8455V13.1681L6.8787 13.2571C6.44128 13.6945 5.84515 13.9423 5.22579 13.9423C4.60644 13.9423 4.01418 13.6945 3.57289 13.2571L3.48386 13.1681L3.08515 13.3655C2.83741 13.4894 2.56644 13.5552 2.28773 13.5552H2.16773C1.1845 13.5552 0.387085 12.7578 0.387085 11.7745C0.387085 11.67 0.394827 11.5694 0.414182 11.4649L1.37805 5.99906C1.4787 5.44551 1.9587 5.03906 2.52386 5.03906H3.09676C3.73934 5.03906 4.25805 5.55777 4.25805 6.20035V6.58745C4.25805 7.01326 3.90967 7.36164 3.48386 7.36164H3.09676L3.48386 10.4584Z" fill="#F0D0B4"/>
<path d="M16.1226 17.8097C16.3742 17.8097 16.6026 17.9104 16.7652 18.0768C16.9316 18.2394 17.0323 18.4678 17.0323 18.7194C17.0323 18.8859 16.9858 19.0446 16.9045 19.1878L15.9832 20.7207C15.9097 20.8446 15.871 20.98 15.871 21.1194V21.2936C15.871 21.5065 15.9561 21.7001 16.0994 21.8394C16.2387 21.9826 16.4323 22.0678 16.6452 22.0678C16.889 22.0678 17.1174 21.9517 17.2645 21.7581L19.1226 19.2807C19.2697 19.0871 19.4981 18.971 19.742 18.971C20.1678 18.971 20.5161 19.3194 20.5161 19.7452V19.8652C20.5161 20.0394 20.4581 20.2059 20.3536 20.3413L17.8065 23.6162H6.19356L3.64647 20.3413C3.54195 20.2059 3.48389 20.0394 3.48389 19.8652V19.7452C3.48389 19.5323 3.56905 19.3388 3.71227 19.1994C3.85163 19.0562 4.04518 18.971 4.25808 18.971C4.50195 18.971 4.73034 19.0871 4.87744 19.2807L6.7355 21.7581C6.8826 21.9517 7.11098 22.0678 7.35485 22.0678C7.78066 22.0678 8.12905 21.7194 8.12905 21.2936V21.1194C8.12905 20.98 8.09034 20.8446 8.01679 20.7207L7.0955 19.1878C7.01421 19.0446 6.96776 18.8859 6.96776 18.7194C6.96776 18.2162 7.37421 17.8097 7.87744 17.8097H7.95485C8.29937 17.8097 8.61292 18.0033 8.76776 18.313L10.32 21.4175C10.4013 21.5801 10.5678 21.6807 10.7458 21.6807C11.0129 21.6807 11.2258 21.4678 11.2258 21.2007V17.4226C11.2258 17.2097 11.311 17.0162 11.4542 16.8768C11.5936 16.7336 11.7871 16.6484 12 16.6484C12.4258 16.6484 12.7742 16.9968 12.7742 17.4226V21.2007C12.7742 21.4678 12.9871 21.6807 13.2542 21.6807C13.4323 21.6807 13.5987 21.5801 13.68 21.4175L15.2323 18.313C15.3871 18.0033 15.7007 17.8097 16.0452 17.8097H16.1226Z" fill="#69D6F4"/>
<path d="M23.9671 11.3923L23.0021 5.92452C22.8712 5.18323 22.2302 4.64516 21.4773 4.64516H20.9032C20.0493 4.64516 19.3548 5.33961 19.3548 6.19355V6.58064C19.3548 7.20348 19.8492 7.70942 20.4654 7.7369L20.1987 9.87097C19.879 9.744 19.5348 9.67742 19.1907 9.67742H18.7742C18.2903 9.67742 17.8274 9.80516 17.4194 10.0401V7.22594L15.3418 4.45587C15.6596 4.24839 15.871 3.8911 15.871 3.48387V1.16129C15.871 0.521032 15.3499 0 14.7097 0H9.29032C8.65006 0 8.12903 0.521032 8.12903 1.16129V3.48387C8.12903 3.8911 8.34039 4.24839 8.65819 4.45587L6.58064 7.22594V10.0401C6.17264 9.80516 5.70968 9.67742 5.22581 9.67742H4.80968C4.46555 9.67742 4.12142 9.744 3.80168 9.87097L3.53497 7.7369C4.15084 7.70942 4.64516 7.20348 4.64516 6.58064V6.19355C4.64516 5.33961 3.95071 4.64516 3.09677 4.64516H2.52271C1.76981 4.64516 1.12839 5.18323 0.997935 5.92452L0.0329032 11.3926C0.0112258 11.5165 0 11.6431 0 11.7685C0 12.9627 0.971613 13.9351 2.16619 13.9355H2.28929C2.62413 13.9355 2.95935 13.8565 3.25858 13.7067L3.41148 13.6305C3.91123 14.0779 4.54955 14.3226 5.22581 14.3226C5.70968 14.3226 6.17264 14.1948 6.58064 13.9599V18.7161C6.58064 18.9507 6.64452 19.1814 6.76568 19.3831L7.68697 20.9191C7.72297 20.9787 7.74194 21.0476 7.74194 21.1177V21.2903C7.74194 21.504 7.56813 21.6774 7.35484 21.6774C7.23368 21.6774 7.11794 21.6197 7.04516 21.523L5.1871 19.0452C4.96839 18.7541 4.62116 18.5806 4.25806 18.5806C3.61781 18.5806 3.09677 19.1017 3.09677 19.7419V19.8631C3.09677 20.1197 3.18348 20.3729 3.34142 20.5765L6.00426 24H17.9961L20.659 20.5761C20.8165 20.3733 20.9032 20.1201 20.9032 19.8631V19.7419C20.9032 19.1017 20.3822 18.5806 19.7419 18.5806C19.3788 18.5806 19.0316 18.7541 18.8129 19.0452L16.9552 21.5226C16.8821 21.6197 16.7663 21.6774 16.6452 21.6774C16.4319 21.6774 16.2581 21.504 16.2581 21.2903V21.1177C16.2581 21.0476 16.277 20.9791 16.3134 20.9187L17.2347 19.3827C17.3555 19.1814 17.4194 18.9507 17.4194 18.7161V13.9599C17.8274 14.1948 18.2903 14.3226 18.7742 14.3226C19.4505 14.3226 20.0888 14.0779 20.5885 13.6305L20.7414 13.7067C21.0406 13.8565 21.3759 13.9355 21.7107 13.9355H21.8338C23.0284 13.9351 24 12.9627 24 11.7685C24 11.6431 23.9888 11.5165 23.9671 11.3923V11.3923ZM12 16.2581C11.3597 16.2581 10.8387 16.7791 10.8387 17.4194V21.199C10.8387 21.2845 10.7036 21.3166 10.6657 21.2396L9.11381 18.1359C8.89277 17.6942 8.44839 17.4194 7.95406 17.4194H7.87703C7.69084 17.4194 7.51471 17.4604 7.35484 17.5312V16.8523L11.9996 13.7555L16.6452 16.8523V17.5312C16.4849 17.4604 16.3092 17.4194 16.123 17.4194H16.0459C15.5516 17.4194 15.1072 17.6942 14.8862 18.1363L13.3343 21.24C13.2964 21.3159 13.1613 21.2837 13.1613 21.199V17.4194C13.1613 16.7791 12.6403 16.2581 12 16.2581V16.2581ZM8.90323 3.09677H15.0968V3.48387C15.0968 3.69755 14.923 3.87097 14.7097 3.87097H9.29032C9.07703 3.87097 8.90323 3.69755 8.90323 3.48387V3.09677ZM14.5161 4.64516L16.2581 6.96774H7.74194L9.48387 4.64516H14.5161ZM8.24632 7.74194H15.7537L12 10.2445L8.24632 7.74194ZM7.35484 8.07832L13.2375 12L7.35484 15.9217V8.07832ZM12.6975 13.2902L14.633 12L12.6975 10.7098L16.6452 8.07794V15.9221L12.6975 13.2902ZM9.29032 0.774194H14.7097C14.923 0.774194 15.0968 0.947613 15.0968 1.16129V2.32258H8.90323V1.16129C8.90323 0.947613 9.07703 0.774194 9.29032 0.774194ZM5.22581 13.5484C4.70516 13.5484 4.21626 13.3459 3.84813 12.9782L3.56013 12.6902L2.91252 13.0142C2.72013 13.1106 2.50452 13.1613 2.28929 13.1613H2.16658C1.39858 13.1609 0.774194 12.5365 0.774194 11.7685C0.774194 11.6876 0.781548 11.6063 0.795484 11.5266L1.76052 6.05884C1.82555 5.68839 2.14606 5.41935 2.52271 5.41935H3.09677C3.52374 5.41935 3.87097 5.76658 3.87097 6.19355V6.58064C3.87097 6.79432 3.69716 6.96774 3.48387 6.96774H2.32258V7.74194H2.75497L3.07626 10.3119L2.436 10.9521L2.98335 11.4995L3.71303 10.7698L3.93794 10.6572C4.20697 10.5228 4.50813 10.4516 4.80968 10.4516H5.22581C5.736 10.4516 6.21523 10.649 6.58064 11.0032V12.9968C6.21523 13.3514 5.73639 13.5484 5.22581 13.5484V13.5484ZM16.5708 18.9844L15.6495 20.5204C15.5412 20.7008 15.4839 20.9071 15.4839 21.1177V21.2903C15.4839 21.9306 16.0049 22.4516 16.6452 22.4516C17.0083 22.4516 17.3555 22.2782 17.5742 21.9871L19.4319 19.5101C19.505 19.4125 19.6208 19.3548 19.7419 19.3548C19.9552 19.3548 20.129 19.5283 20.129 19.7419V19.8631C20.129 19.949 20.1 20.033 20.0474 20.1008L17.6172 23.2258H6.38284L3.95265 20.1015C3.9 20.0334 3.87097 19.949 3.87097 19.8631V19.7419C3.87097 19.5283 4.04477 19.3548 4.25806 19.3548C4.37923 19.3548 4.49497 19.4125 4.56774 19.5093L6.42581 21.9871C6.64452 22.2782 6.99174 22.4516 7.35484 22.4516C7.9951 22.4516 8.51613 21.9306 8.51613 21.2903V21.1177C8.51613 20.9071 8.45884 20.7008 8.35045 20.5204L7.42916 18.9844C7.38039 18.9031 7.35484 18.8106 7.35484 18.7161C7.35484 18.4281 7.58903 18.1935 7.87703 18.1935H7.95406C8.15342 18.1935 8.33226 18.3043 8.42129 18.4823L9.97316 21.5861C10.1206 21.8814 10.4175 22.0645 10.7474 22.0645C11.2246 22.0645 11.6129 21.6763 11.6129 21.199V17.4194C11.6129 17.2057 11.7867 17.0323 12 17.0323C12.2133 17.0323 12.3871 17.2057 12.3871 17.4194V21.199C12.3871 21.6763 12.7754 22.0645 13.2526 22.0645C13.5828 22.0645 13.8794 21.881 14.0268 21.5861L15.5787 18.4823C15.6677 18.3043 15.8466 18.1935 16.0459 18.1935H16.123C16.411 18.1935 16.6452 18.4277 16.6452 18.7161C16.6452 18.8106 16.6196 18.9031 16.5708 18.9844V18.9844ZM21.8338 13.1613H21.7107C21.4955 13.1613 21.2799 13.1106 21.0875 13.0142L20.4399 12.6902L20.1519 12.9782C19.7837 13.3459 19.2948 13.5484 18.7742 13.5484C18.2636 13.5484 17.7848 13.3514 17.4194 12.9968V11.0032C17.7848 10.649 18.264 10.4516 18.7742 10.4516H19.1903C19.4915 10.4516 19.793 10.5228 20.0617 10.6572L20.287 10.7698L21.0166 11.4995L21.564 10.9521L20.9237 10.3119L21.245 7.74194H21.6774V6.96774H20.5161C20.3028 6.96774 20.129 6.79432 20.129 6.58064V6.19355C20.129 5.76658 20.4763 5.41935 20.9032 5.41935H21.4773C21.8539 5.41935 22.1745 5.68839 22.2399 6.05884L23.2049 11.5262C23.2185 11.6063 23.2258 11.6876 23.2258 11.7685C23.2258 12.5365 22.6014 13.1609 21.8338 13.1613Z" fill="black"/>
<path d="M10.0239 12.2108C9.95806 12.0795 9.82413 11.9967 9.67742 11.9967H9.08787L9.64993 10.5919L8.9311 10.3047L8.1569 12.2402C8.10929 12.3594 8.124 12.4945 8.196 12.6009C8.268 12.7074 8.38761 12.7709 8.51613 12.7709H8.90322L8.20645 13.6999L8.8258 14.164L9.98709 12.6157C10.075 12.4988 10.0893 12.342 10.0239 12.2108V12.2108Z" fill="black"/>
</g>
<defs>
<clipPath id="clip0_11566_47600">
<rect width="24" height="24" fill="white"/>
</clipPath>
</defs>
</svg>
