<svg width="24" height="24" viewBox="0 0 24 24" fill="none" xmlns="http://www.w3.org/2000/svg">
<g clip-path="url(#clip0_11566_47720)">
<path d="M21.6704 18.7104C22.8179 16.9231 23.4844 14.7975 23.4844 12.5156C23.4844 6.17297 18.3427 1.03125 12 1.03125C5.65734 1.03125 0.515625 6.17297 0.515625 12.5156C0.515625 14.9373 1.26609 17.1832 2.54583 19.0354L21.6704 18.7104Z" fill="#FFDD40"/>
<path d="M12 19.5469C16.6599 19.5469 20.4375 15.7693 20.4375 11.1094C20.4375 6.44947 16.6599 2.67188 12 2.67188C7.3401 2.67188 3.5625 6.44947 3.5625 11.1094C3.5625 15.7693 7.3401 19.5469 12 19.5469Z" fill="#FFC839"/>
<path d="M18.23 11.8224C17.3717 11.522 17.1377 10.9264 17.5087 9.75609C17.8797 8.58577 16.1586 7.35938 16.1586 7.35938H12H7.84138C7.84138 7.35938 6.12023 8.58572 6.49129 9.75609C6.86231 10.9265 6.62826 11.522 5.76998 11.8224C4.9117 12.1228 2.88309 14.0474 5.01576 16.8563H12H18.9842C21.1169 14.0474 19.0882 12.1228 18.23 11.8224Z" fill="#003060"/>
<path d="M12.0358 24.0034L12.0359 24.0033L19.7855 16.2537C19.4198 16.0547 18.9248 15.8667 18.3805 15.6953H5.61952C4.83394 15.9426 4.15064 16.2246 3.81132 16.5242C3.4253 16.865 2.97235 17.8711 2.54541 19.039C4.61747 22.0382 8.07891 24.0037 12 24.0037C12.012 24.0037 12.0238 24.0035 12.0358 24.0034Z" fill="#FF4155"/>
<path d="M8.12877 19.4369C8.24568 17.8141 9.12187 16.5444 10.2331 15.6953H5.61946C4.83388 15.9426 4.15058 16.2246 3.81126 16.5242C3.42524 16.865 2.97229 17.8711 2.54535 19.039C4.61746 22.0382 8.0789 24.0037 12 24.0037C9.65526 24.0037 7.95379 21.8664 8.12877 19.4369Z" fill="#F32155"/>
<path d="M5.66303 22.0926C5.65952 22.0827 5.25199 20.929 5.88358 19.5793C6.00133 19.3276 5.67513 19.1033 5.48308 19.304C5.08104 19.7243 4.68471 20.3432 4.51807 21.2261C4.88069 21.538 5.26314 21.8274 5.66303 22.0926Z" fill="#E80054"/>
<path d="M6.52274 15.4297C6.2158 15.5109 5.9106 15.5978 5.61951 15.6894C5.88365 16.6426 6.54829 17.5037 7.55563 18.1752C8.77035 18.985 10.3676 19.431 12.0531 19.431C13.7387 19.431 15.3359 18.9851 16.5507 18.1752C17.5471 17.5109 18.2084 16.6613 18.4783 15.7205C18.1581 15.6174 17.8189 15.5201 17.4775 15.4297H6.52274Z" fill="#FF7186"/>
<path d="M14.2744 14.7418V9.07812H9.7256V14.7418C9.65581 14.7534 8.0666 15.0193 6.5224 15.428C7.00601 17.1713 9.2981 18.4918 12.0531 18.4918C14.7942 18.4918 17.077 17.1846 17.5763 15.4543C16.0018 15.0308 14.3456 14.7536 14.2744 14.7418Z" fill="#FEB98A"/>
<path d="M14.2744 12.1889V9.07812H9.7256V14.7418C9.65581 14.7534 8.0666 15.0193 6.5224 15.428C6.77613 16.3426 7.5282 17.1404 8.58321 17.6926C9.28034 16.2138 10.655 15.1987 12 14.7418C13.8201 14.1235 14.2744 12.1889 14.2744 12.1889Z" fill="#FCA870"/>
<path d="M15.8908 1.70733C14.9634 0.660984 13.6586 0 12.0532 0C10.4477 0 9.75698 0.264281 9.11071 0.5625C8.46445 0.860719 8.42128 2.15967 8.42128 2.15967C7.61615 3.03694 7.12457 4.20652 7.12457 5.49108V6.90089H16.9817V5.49108C16.9817 4.41253 16.8181 2.75367 15.8908 1.70733Z" fill="#024788"/>
<path d="M7.12457 5.48766V6.89747H9.13298V3.97645C8.62865 3.64683 8.39264 2.84597 8.42128 2.15625C7.61615 3.03347 7.12457 4.20309 7.12457 5.48766Z" fill="#003060"/>
<path d="M15.5183 7.48277C15.5183 7.48277 16.0051 6.29753 16.8729 6.57269C17.7406 6.84784 16.8519 9.41631 15.1585 9.57813L15.5183 7.48277Z" fill="#FEB98A"/>
<path d="M8.48163 7.48277C8.48163 7.48277 7.99483 6.29753 7.12708 6.57269C6.25933 6.84784 7.14808 9.41631 8.84144 9.57813L8.48163 7.48277Z" fill="#FCA870"/>
<path d="M9.13301 3.98031C8.64917 4.14151 8.29255 4.55589 8.17526 5.0522C8.05564 5.5585 7.89392 6.34215 7.89392 6.87957C7.89392 9.90325 9.73231 13.4493 12 13.4493C14.2677 13.4493 16.1061 9.90325 16.1061 6.87957C16.1061 6.80111 16.1046 6.78189 16.1022 6.70459C12.286 6.7045 10.8435 3.41045 9.13301 3.98031Z" fill="#FFC9A4"/>
<path d="M12.9375 13.2455C11.1215 12.4509 9.76892 9.47307 9.76892 6.87948C9.76892 5.84959 9.98286 4.91889 10.3537 4.13846C9.93795 3.92945 9.54317 3.84357 9.13302 3.98021C8.64917 4.14142 8.29255 4.55579 8.17526 5.0521C8.05564 5.5584 7.89392 6.34206 7.89392 6.87948C7.89392 9.90315 9.73231 13.4492 12 13.4492C12.3226 13.4492 12.6364 13.3773 12.9375 13.2455Z" fill="#FEB98A"/>
<path d="M11.3444 9.02394L11.7398 8.39389C11.8602 8.20204 12.1398 8.20204 12.2602 8.39389L12.6556 9.02394C12.784 9.22855 12.637 9.49447 12.3954 9.49447H11.6046C11.363 9.49443 11.216 9.2285 11.3444 9.02394Z" fill="#FEB98A"/>
<path d="M11.0336 11.2915H12.9664C13.1591 11.1217 13.3066 10.902 13.3888 10.6525C13.463 10.427 13.2918 10.1953 13.0544 10.1953H10.9457C10.7083 10.1953 10.537 10.427 10.6113 10.6525C10.6934 10.902 10.8409 11.1217 11.0336 11.2915Z" fill="#003060"/>
<path d="M12.9664 11.2952C12.7089 11.5225 12.3704 11.6607 12 11.6607C11.6296 11.6607 11.2911 11.5226 11.0336 11.2952C11.2914 11.0679 11.6296 10.9297 12 10.9297C12.3704 10.9297 12.7086 11.0679 12.9664 11.2952Z" fill="#FF4155"/>
<path d="M14.5781 7.60008C14.5801 7.43625 14.5138 7.27177 14.3792 7.15294C14.1601 6.95944 13.8242 6.95944 13.6051 7.15294C13.4705 7.27177 13.4043 7.43625 13.4062 7.60008C13.4088 7.8128 13.6701 7.91489 13.8205 7.76447C13.9153 7.66969 14.069 7.66969 14.1637 7.76447C14.3142 7.91494 14.5755 7.81284 14.5781 7.60008Z" fill="#003060"/>
<path d="M9.42192 7.60008C9.4199 7.43625 9.48618 7.27177 9.62076 7.15294C9.8399 6.95944 10.1758 6.95944 10.3949 7.15294C10.5295 7.27177 10.5957 7.43625 10.5937 7.60008C10.5912 7.8128 10.3299 7.91489 10.1795 7.76447C10.0847 7.66969 9.93103 7.66969 9.83625 7.76447C9.68578 7.91494 9.4245 7.81284 9.42192 7.60008Z" fill="#003060"/>
<path d="M10.4766 6.51562H9.53906C9.34491 6.51562 9.1875 6.35822 9.1875 6.16406C9.1875 5.96991 9.34491 5.8125 9.53906 5.8125H10.4766C10.6707 5.8125 10.8281 5.96991 10.8281 6.16406C10.8281 6.35822 10.6707 6.51562 10.4766 6.51562Z" fill="#003060"/>
<path d="M14.4609 6.51562H13.5234C13.3293 6.51562 13.1719 6.35822 13.1719 6.16406C13.1719 5.96991 13.3293 5.8125 13.5234 5.8125H14.4609C14.6551 5.8125 14.8125 5.96991 14.8125 6.16406C14.8125 6.35822 14.6551 6.51562 14.4609 6.51562Z" fill="#003060"/>
<path d="M21.6719 18.7093C21.9531 17.7585 21.9068 16.7436 21.531 15.8057C21.0921 14.7101 20.2603 13.8624 19.1888 13.4186C18.1174 12.9748 16.9297 12.9861 15.8446 13.4504C14.7702 13.9102 13.9336 14.7541 13.4894 15.8268C11.6894 20.1724 12.015 23.7879 12.0359 23.9985C16.0821 23.986 19.636 21.8815 21.6719 18.7093Z" fill="#083C3F"/>
<path d="M13.4894 15.8281C11.6894 20.1737 12.015 23.7892 12.0359 23.9998C13.7016 23.9946 15.2838 23.6352 16.7111 22.9924C14.1797 21.1112 12.4567 18.3212 13.4894 15.8281Z" fill="#D9F9FC"/>
<path d="M20.8665 18.8809C20.097 20.7387 18.3515 20.693 16.4938 19.9234C14.636 19.1539 13.3695 17.952 14.139 16.0943C14.9085 14.2365 17.062 13.297 18.9198 14.0665C20.7776 14.8361 21.6361 17.0232 20.8665 18.8809Z" fill="#FFC9A4"/>
<path d="M15.4381 16.6324C16.1156 14.9969 17.8656 14.0738 19.5422 14.4012C19.3496 14.2715 19.1421 14.1586 18.9197 14.0666C17.062 13.2971 14.9084 14.2365 14.1389 16.0942C13.3694 17.952 14.636 19.1539 16.4937 19.9234C16.716 20.0155 16.9366 20.0968 17.1542 20.1662C15.6616 19.3948 14.7607 18.2679 15.4381 16.6324Z" fill="#FEB98A"/>
<path d="M16.6718 17.8426L17.8395 18.3263C17.9984 18.272 18.1426 18.1761 18.2546 18.046C18.3559 17.9283 18.3104 17.7454 18.167 17.686L16.893 17.1583C16.7495 17.0989 16.5881 17.196 16.5765 17.3509C16.5637 17.5221 16.5978 17.6918 16.6718 17.8426Z" fill="#003060"/>
<path d="M17.8395 18.3246C17.6271 18.3975 17.3879 18.3963 17.1641 18.3036C16.9403 18.2109 16.7704 18.0427 16.6717 17.8409C16.8844 17.7681 17.1232 17.7692 17.3471 17.8619C17.5709 17.9546 17.7406 18.1228 17.8395 18.3246Z" fill="#FF4155"/>
<path d="M19.3598 17.409C19.402 17.3105 19.4032 17.1946 19.3516 17.0891C19.2676 16.9174 19.0647 16.8333 18.8839 16.8954C18.7728 16.9335 18.6916 17.0163 18.6518 17.1158C18.6002 17.245 18.7325 17.372 18.861 17.3188C18.942 17.2852 19.0348 17.3237 19.0684 17.4047C19.1216 17.5332 19.305 17.5369 19.3598 17.409Z" fill="#003060"/>
<path d="M16.2446 16.1236C16.2844 16.0241 16.3655 15.9413 16.4766 15.9032C16.6574 15.8411 16.8604 15.9252 16.9443 16.0969C16.9959 16.2024 16.9947 16.3184 16.9526 16.4168C16.8978 16.5447 16.7143 16.541 16.6611 16.4125C16.6275 16.3315 16.5347 16.293 16.4537 16.3266C16.3252 16.3799 16.1929 16.2528 16.2446 16.1236Z" fill="#003060"/>
<path d="M17.1488 15.729L16.5906 15.4979C16.471 15.4483 16.4142 15.3112 16.4638 15.1916C16.5133 15.072 16.6504 15.0152 16.77 15.0648L17.3282 15.296C17.4478 15.3455 17.5046 15.4826 17.455 15.6022C17.4055 15.7218 17.2684 15.7786 17.1488 15.729Z" fill="#003060"/>
<path d="M19.5561 16.729L18.998 16.4979C18.8784 16.4483 18.8216 16.3112 18.8711 16.1916C18.9207 16.072 19.0578 16.0152 19.1773 16.0648L19.7355 16.296C19.8551 16.3455 19.9119 16.4826 19.8624 16.6022C19.8128 16.7218 19.6757 16.7786 19.5561 16.729Z" fill="#003060"/>
<path d="M15.5392 17.0703C15.7981 17.0703 16.008 16.8604 16.008 16.6016C16.008 16.3427 15.7981 16.1328 15.5392 16.1328C15.2804 16.1328 15.0705 16.3427 15.0705 16.6016C15.0705 16.8604 15.2804 17.0703 15.5392 17.0703Z" fill="#FCA870"/>
<path d="M19.5207 18.7188C19.7796 18.7188 19.9894 18.5089 19.9894 18.25C19.9894 17.9911 19.7796 17.7812 19.5207 17.7812C19.2618 17.7812 19.0519 17.9911 19.0519 18.25C19.0519 18.5089 19.2618 18.7188 19.5207 18.7188Z" fill="#FCA870"/>
</g>
<defs>
<clipPath id="clip0_11566_47720">
<rect width="24" height="24" fill="white"/>
</clipPath>
</defs>
</svg>
