<svg width="24" height="24" viewBox="0 0 24 24" fill="none" xmlns="http://www.w3.org/2000/svg">
<g clip-path="url(#clip0_11566_47640)">
<path d="M20.283 8.12286L17.4335 11.5418L13.4052 12.6816V9.10358L13.3932 8.60626L13.3101 5.09998C13.4057 4.58142 13.5419 4.08502 13.7142 3.61737C14.2333 2.21112 15.0793 1.06415 16.1179 0.359375C17.1566 1.06415 18.0024 2.21112 18.5209 3.61737C18.6938 4.08502 18.8302 4.58142 18.925 5.09998L20.2535 8.05731L20.283 8.12286Z" fill="#39434D"/>
<path d="M20.2535 8.05713L15.9265 9.54175L13.3932 8.60608L13.3101 5.09979C13.4057 4.58124 13.5419 4.08484 13.7142 3.61719C14.5107 4.38934 15.2397 5.37573 15.8192 6.52454C15.9351 6.75452 16.0344 6.96857 16.1179 7.17053C16.201 6.96857 16.3002 6.75452 16.4161 6.52454C16.9955 5.37537 17.7246 4.38879 18.5209 3.61719C18.6938 4.08484 18.8302 4.58124 18.925 5.09979L20.2535 8.05713Z" fill="#55B774"/>
<path d="M16.3089 9.53809H10.9109C10.067 7.34485 10.008 5.1745 10.6764 3.6875C11.5496 3.87793 12.4587 4.36627 13.3098 5.09576V5.09613C14.2628 5.9126 15.1429 7.03192 15.8192 8.37317C15.9351 8.60297 16.0344 8.81757 16.1179 9.01953C16.1939 9.20227 16.257 9.37476 16.3089 9.53809Z" fill="#9FD179"/>
<path d="M21.3246 9.53809C22.1686 7.34485 22.2274 5.1745 21.5592 3.6875C20.6858 3.87793 19.7769 4.36627 18.9258 5.09576V5.09613C17.9727 5.9126 17.0925 7.03192 16.4163 8.37317C16.3004 8.60297 16.2012 8.81757 16.1177 9.01953C16.0417 9.20227 15.9785 9.37476 15.9267 9.53809" fill="#9FD179"/>
<path d="M13.626 9.53809H10.9109C10.067 7.34485 10.008 5.1745 10.6764 3.6875L13.626 9.53809Z" fill="#55B774"/>
<path d="M8.90336 20.7599C8.45273 20.854 8.00907 20.9676 7.57401 21.1005C6.14561 21.5374 6.46 23.6442 7.95359 23.6442H16.03C17.5236 23.6442 17.838 21.5374 16.4096 21.1005C15.9745 20.9676 15.5308 20.854 15.0802 20.7599C20.0074 19.4073 23.6274 14.8956 23.6274 9.53906H0.356201C0.356201 14.8956 3.97619 19.4073 8.90336 20.7599Z" fill="#F7E680"/>
<path d="M9.00696 9.53876H3.5343L2.64587 4.47223L6.62659 3.36719L7.02795 4.40814L9.00696 9.53876Z" fill="#996136"/>
<path d="M9.007 9.53687H4.81444L4.17155 5.87146C4.10783 5.50763 4.33067 5.15497 4.68645 5.05627L7.028 4.40625L9.007 9.53687Z" fill="#C28E63"/>
<path d="M9.63342 23.6442H7.95361C6.46002 23.6442 6.14563 21.5374 7.57404 21.1005C8.00909 20.9676 8.45276 20.8541 8.90338 20.7599C3.9762 19.4073 0.356201 14.8956 0.356201 9.53906H5.19623C5.19623 14.8956 7.31055 19.4073 10.188 20.7599C9.92493 20.8541 9.66565 20.9676 9.41168 21.1005C8.57709 21.5374 8.76093 23.6442 9.63342 23.6442Z" fill="#EDA532"/>
<path d="M7.5636 2.34962C7.5636 2.78651 7.27448 3.18733 6.83282 3.30983L3.65833 4.1913L2.64594 4.47236C2.11548 4.61976 1.56543 4.30904 1.41821 3.77858C1.39349 3.68922 1.38159 3.5995 1.38159 3.51124C1.38159 3.07435 1.6709 2.67354 2.11255 2.55049L4.13751 1.98817L6.29944 1.38832C6.8299 1.24055 7.37939 1.55165 7.52716 2.08211C7.55188 2.17146 7.5636 2.26118 7.5636 2.34962Z" fill="#996136"/>
<path d="M7.56354 2.34962C7.56354 2.78651 7.27441 3.18733 6.83276 3.30983L3.65826 4.1913C3.12781 4.33852 2.57794 4.02797 2.43073 3.49751C2.40601 3.40816 2.3941 3.31843 2.3941 3.22999C2.3941 2.7931 2.68341 2.39229 3.12506 2.26924L4.13745 1.98817L6.29938 1.38832C6.82983 1.24055 7.37933 1.55165 7.5271 2.08211C7.55182 2.17146 7.56354 2.26118 7.56354 2.34962Z" fill="#C28E63"/>
<path d="M23.6274 9.18253H21.83C22.5247 7.10337 22.5503 5.02495 21.884 3.54216C21.815 3.38854 21.6478 3.30431 21.4834 3.3402C20.7123 3.50811 19.9153 3.89263 19.1521 4.46025C18.683 2.56145 17.669 0.978513 16.3178 0.0615233C16.197 -0.0205078 16.0386 -0.0205078 15.9177 0.0615233C14.567 0.97833 13.5528 2.56127 13.0831 4.46007C12.3199 3.89263 11.523 3.50829 10.7523 3.3402C10.5877 3.30431 10.4206 3.38854 10.3515 3.54216C9.68503 5.0255 9.71048 7.10374 10.4052 9.18253H9.25144L8.29526 6.70347C8.2244 6.52 8.01823 6.42845 7.83475 6.49931C7.65128 6.57017 7.55973 6.77635 7.63059 6.95982L8.48789 9.18253H3.83373L3.0526 4.72905L6.41056 3.79668L7.12907 5.65977C7.19993 5.84324 7.40611 5.93461 7.58958 5.86393C7.77323 5.79326 7.8646 5.5869 7.79374 5.40343L7.09593 3.59417C7.36912 3.47844 7.5958 3.27758 7.74412 3.01501C7.9221 2.70025 7.96677 2.33514 7.87009 1.98687C7.77341 1.63842 7.54673 1.34857 7.23216 1.17077C6.9174 0.992795 6.5521 0.948117 6.20384 1.0448L2.01696 2.20733C1.29791 2.40691 0.875302 3.15435 1.07507 3.87358C1.23877 4.463 1.7705 4.85228 2.35296 4.864L3.11046 9.18253H0.3562C0.159545 9.18253 6.10352e-05 9.34201 6.10352e-05 9.53867C6.10352e-05 12.219 0.864682 14.7535 2.50036 16.8685C3.82988 18.5879 5.62138 19.9233 7.63078 20.7114C7.57694 20.7271 7.52329 20.7432 7.46983 20.7595C6.66618 21.0054 6.19157 21.7576 6.31572 22.5889C6.44004 23.4197 7.1135 23.9999 7.95359 23.9999H16.0302C16.8701 23.9999 17.5435 23.4197 17.6679 22.5889C17.792 21.7576 17.3176 21.0054 16.5136 20.7595C16.4608 20.7434 16.4077 20.7275 16.3546 20.7119C17.0797 20.4286 17.7766 20.0743 18.4367 19.6528C18.6026 19.547 18.6511 19.3267 18.5453 19.161C18.4395 18.9951 18.2192 18.9466 18.0535 19.0524C17.1024 19.6596 16.0704 20.1185 14.9859 20.4162C14.8272 20.4598 14.7191 20.6063 14.7243 20.7707C14.7292 20.9351 14.8464 21.0748 15.0075 21.1083C15.447 21.2001 15.8835 21.3119 16.3054 21.4409C16.8798 21.6165 17.0187 22.1123 16.9633 22.4836C16.9078 22.8546 16.63 23.2876 16.0302 23.2876H7.95359C7.35355 23.2876 7.07578 22.8546 7.0203 22.4836C6.96482 22.1123 7.1038 21.6165 7.6782 21.4409C8.08909 21.3152 8.51407 21.2061 8.94199 21.1158H13.0884C13.2851 21.1158 13.4445 20.9564 13.4445 20.7597C13.4445 20.563 13.2851 20.4036 13.0884 20.4036H8.95316C6.63523 19.7567 4.54509 18.348 3.06396 16.4328C1.59838 14.5376 0.790891 12.284 0.718015 9.89499H23.2657C23.1637 13.1702 21.6597 16.2152 19.1036 18.294C18.9511 18.4182 18.928 18.6425 19.0519 18.795C19.1761 18.9477 19.4006 18.9708 19.5531 18.8466C22.3687 16.5567 23.9835 13.1641 23.9835 9.53885C23.9835 9.34201 23.824 9.18253 23.6274 9.18253ZM1.76135 3.68297C1.66687 3.3424 1.867 2.98827 2.20757 2.89379L6.39445 1.73107C6.45158 1.71533 6.50944 1.70745 6.56694 1.70745C6.67607 1.70745 6.78392 1.73565 6.88151 1.79077C7.03056 1.87518 7.13786 2.01232 7.18363 2.1773C7.22959 2.34246 7.20835 2.51531 7.12412 2.66436C7.0399 2.81341 6.90257 2.92089 6.73759 2.96667L2.55071 4.12902C2.55035 4.1292 2.55016 4.1292 2.54998 4.12938C2.20959 4.2235 1.85583 4.02336 1.76135 3.68297ZM21.0764 9.18253H19.1876L20.0845 7.40421C20.1729 7.22862 20.1024 7.01438 19.9268 6.92576C19.7512 6.83732 19.537 6.90782 19.4484 7.08341L18.3898 9.18235H16.5635C16.5445 9.12998 16.5245 9.07706 16.5037 9.02359C16.5718 8.86704 16.6487 8.70298 16.7338 8.53397C17.3672 7.27805 18.2051 6.18309 19.1572 5.36717C19.871 4.75505 20.6217 4.32476 21.3464 4.11034C21.8417 5.46825 21.7443 7.32383 21.0764 9.18253ZM16.1179 0.794309C17.2996 1.68768 18.1692 3.18584 18.5363 4.96489C17.7561 5.66545 17.0539 6.53794 16.474 7.52433V3.00713C16.474 2.81048 16.3145 2.65099 16.1179 2.65099C15.921 2.65099 15.7617 2.81048 15.7617 3.00713V7.52506C15.1815 6.53794 14.4791 5.66545 13.6989 4.96507C14.0665 3.18584 14.9361 1.68768 16.1179 0.794309ZM10.8893 4.11052C11.6096 4.32366 12.3562 4.75029 13.0664 5.35673C13.0703 5.3604 13.0741 5.36388 13.0781 5.36735C14.0297 6.18235 14.8676 7.27732 15.5012 8.53397C15.6127 8.75498 15.7095 8.96427 15.789 9.15671C15.789 9.15671 15.7892 9.15671 15.7892 9.15689C15.7927 9.1655 15.796 9.17392 15.7995 9.18253H13.8454L12.7868 7.08341C12.6982 6.90782 12.484 6.83732 12.3084 6.92594C12.1328 7.01438 12.0621 7.22862 12.1507 7.40421L13.0476 9.18253H11.1588C10.4909 7.32438 10.3935 5.46879 10.8893 4.11052Z" fill="black"/>
</g>
<defs>
<clipPath id="clip0_11566_47640">
<rect width="24" height="24" fill="white"/>
</clipPath>
</defs>
</svg>
