<svg width="389" height="329" viewBox="0 0 389 329" fill="none" xmlns="http://www.w3.org/2000/svg">
<rect width="389" height="329" rx="4" fill="#DBEFFE"/>
<path d="M169.678 168.901H212.322L199.962 147.27L191.309 160.248L182.656 152.214L169.678 168.901Z" fill="#71BFFB"/>
<circle cx="182.502" cy="140.936" r="2.93568" fill="#71BFFB"/>
<path d="M176.524 196.902L180.62 185.702H182.924L187.02 196.902H184.844L183.948 194.31H179.58L178.668 196.902H176.524ZM180.14 192.71H183.388L181.756 188.054L180.14 192.71ZM191.688 197.094C190.941 197.094 190.275 196.913 189.688 196.55C189.101 196.188 188.637 195.692 188.296 195.062C187.955 194.433 187.784 193.718 187.784 192.918C187.784 192.118 187.955 191.409 188.296 190.79C188.637 190.161 189.101 189.67 189.688 189.318C190.275 188.956 190.941 188.774 191.688 188.774C192.285 188.774 192.808 188.886 193.256 189.11C193.704 189.334 194.067 189.649 194.344 190.054V185.382H196.392V196.902H194.568L194.344 195.766C194.088 196.118 193.747 196.428 193.32 196.694C192.904 196.961 192.36 197.094 191.688 197.094ZM192.12 195.302C192.781 195.302 193.32 195.084 193.736 194.646C194.163 194.198 194.376 193.628 194.376 192.934C194.376 192.241 194.163 191.676 193.736 191.238C193.32 190.79 192.781 190.566 192.12 190.566C191.469 190.566 190.931 190.785 190.504 191.222C190.077 191.66 189.864 192.225 189.864 192.918C189.864 193.612 190.077 194.182 190.504 194.63C190.931 195.078 191.469 195.302 192.12 195.302ZM201.758 197.094C201.054 197.094 200.435 196.982 199.902 196.758C199.368 196.524 198.942 196.204 198.622 195.798C198.302 195.393 198.11 194.924 198.046 194.39H200.11C200.174 194.7 200.344 194.966 200.622 195.19C200.91 195.404 201.278 195.51 201.726 195.51C202.174 195.51 202.499 195.42 202.702 195.238C202.915 195.057 203.022 194.849 203.022 194.614C203.022 194.273 202.872 194.044 202.574 193.926C202.275 193.798 201.859 193.676 201.326 193.558C200.984 193.484 200.638 193.393 200.286 193.286C199.934 193.18 199.608 193.046 199.31 192.886C199.022 192.716 198.787 192.502 198.606 192.246C198.424 191.98 198.334 191.654 198.334 191.27C198.334 190.566 198.611 189.974 199.166 189.494C199.731 189.014 200.52 188.774 201.534 188.774C202.472 188.774 203.219 188.993 203.774 189.43C204.339 189.868 204.675 190.47 204.782 191.238H202.846C202.728 190.652 202.286 190.358 201.518 190.358C201.134 190.358 200.835 190.433 200.622 190.582C200.419 190.732 200.318 190.918 200.318 191.142C200.318 191.377 200.472 191.564 200.782 191.702C201.091 191.841 201.502 191.969 202.014 192.086C202.568 192.214 203.075 192.358 203.534 192.518C204.003 192.668 204.376 192.897 204.654 193.206C204.931 193.505 205.07 193.937 205.07 194.502C205.08 194.993 204.952 195.436 204.686 195.83C204.419 196.225 204.035 196.534 203.534 196.758C203.032 196.982 202.44 197.094 201.758 197.094Z" fill="#788A9B"/>
</svg>
