<svg width="286" height="329" viewBox="0 0 286 329" fill="none" xmlns="http://www.w3.org/2000/svg">
<rect width="286" height="329" rx="4" fill="#DBEFFE"/>
<path d="M117.678 168.903H160.322L147.962 147.272L139.309 160.25L130.656 152.216L117.678 168.903Z" fill="#71BFFB"/>
<circle cx="130.502" cy="140.936" r="2.93568" fill="#71BFFB"/>
<path d="M89.5646 196.902V185.702H93.7086C94.6046 185.702 95.3459 185.852 95.9326 186.15C96.5192 186.449 96.9566 186.86 97.2446 187.382C97.5326 187.905 97.6766 188.492 97.6766 189.142C97.6766 189.761 97.5379 190.332 97.2606 190.854C96.9832 191.366 96.5512 191.782 95.9646 192.102C95.3779 192.412 94.6259 192.566 93.7086 192.566H91.6126V196.902H89.5646ZM91.6126 190.902H93.5806C94.2952 190.902 94.8072 190.748 95.1166 190.438C95.4366 190.118 95.5966 189.686 95.5966 189.142C95.5966 188.588 95.4366 188.156 95.1166 187.846C94.8072 187.526 94.2952 187.366 93.5806 187.366H91.6126V190.902ZM99.2353 196.902V185.382H101.283V196.902H99.2353ZM106.112 197.094C105.429 197.094 104.869 196.988 104.432 196.774C103.995 196.55 103.669 196.257 103.456 195.894C103.243 195.532 103.136 195.132 103.136 194.694C103.136 193.958 103.424 193.361 104 192.902C104.576 192.444 105.44 192.214 106.592 192.214H108.608V192.022C108.608 191.478 108.453 191.078 108.144 190.822C107.835 190.566 107.451 190.438 106.992 190.438C106.576 190.438 106.213 190.54 105.904 190.742C105.595 190.934 105.403 191.222 105.328 191.606H103.328C103.381 191.03 103.573 190.529 103.904 190.102C104.245 189.676 104.683 189.35 105.216 189.126C105.749 188.892 106.347 188.774 107.008 188.774C108.139 188.774 109.029 189.057 109.68 189.622C110.331 190.188 110.656 190.988 110.656 192.022V196.902H108.912L108.72 195.622C108.485 196.049 108.155 196.401 107.728 196.678C107.312 196.956 106.773 197.094 106.112 197.094ZM106.576 195.494C107.163 195.494 107.616 195.302 107.936 194.918C108.267 194.534 108.475 194.06 108.56 193.494H106.816C106.272 193.494 105.883 193.596 105.648 193.798C105.413 193.99 105.296 194.23 105.296 194.518C105.296 194.828 105.413 195.068 105.648 195.238C105.883 195.409 106.192 195.494 106.576 195.494ZM116.498 197.094C115.688 197.094 114.973 196.918 114.354 196.566C113.736 196.214 113.245 195.724 112.882 195.094C112.53 194.465 112.354 193.745 112.354 192.934C112.354 192.124 112.53 191.404 112.882 190.774C113.245 190.145 113.736 189.654 114.354 189.302C114.973 188.95 115.688 188.774 116.498 188.774C117.512 188.774 118.365 189.041 119.058 189.574C119.752 190.097 120.194 190.822 120.386 191.75H118.226C118.12 191.366 117.906 191.068 117.586 190.854C117.277 190.63 116.909 190.518 116.482 190.518C115.917 190.518 115.437 190.732 115.042 191.158C114.648 191.585 114.45 192.177 114.45 192.934C114.45 193.692 114.648 194.284 115.042 194.71C115.437 195.137 115.917 195.35 116.482 195.35C116.909 195.35 117.277 195.244 117.586 195.03C117.906 194.817 118.12 194.513 118.226 194.118H120.386C120.194 195.014 119.752 195.734 119.058 196.278C118.365 196.822 117.512 197.094 116.498 197.094ZM126.06 197.094C125.26 197.094 124.551 196.924 123.932 196.582C123.313 196.241 122.828 195.761 122.476 195.142C122.124 194.524 121.948 193.809 121.948 192.998C121.948 192.177 122.119 191.446 122.46 190.806C122.812 190.166 123.292 189.67 123.9 189.318C124.519 188.956 125.244 188.774 126.076 188.774C126.855 188.774 127.543 188.945 128.14 189.286C128.737 189.628 129.201 190.097 129.532 190.694C129.873 191.281 130.044 191.937 130.044 192.662C130.044 192.78 130.039 192.902 130.028 193.03C130.028 193.158 130.023 193.292 130.012 193.43H123.98C124.023 194.049 124.236 194.534 124.62 194.886C125.015 195.238 125.489 195.414 126.044 195.414C126.46 195.414 126.807 195.324 127.084 195.142C127.372 194.95 127.585 194.705 127.724 194.406H129.804C129.655 194.908 129.404 195.366 129.052 195.782C128.711 196.188 128.284 196.508 127.772 196.742C127.271 196.977 126.7 197.094 126.06 197.094ZM126.076 190.438C125.575 190.438 125.132 190.582 124.748 190.87C124.364 191.148 124.119 191.574 124.012 192.15H127.964C127.932 191.628 127.74 191.212 127.388 190.902C127.036 190.593 126.599 190.438 126.076 190.438ZM135.947 196.902V190.678H134.859V188.966H135.947V188.038C135.947 187.078 136.187 186.396 136.667 185.99C137.158 185.585 137.819 185.382 138.651 185.382H139.531V187.126H138.971C138.619 187.126 138.368 187.196 138.219 187.334C138.07 187.473 137.995 187.708 137.995 188.038V188.966H139.707V190.678H137.995V196.902H135.947ZM144.825 197.094C144.057 197.094 143.363 196.918 142.745 196.566C142.137 196.214 141.651 195.729 141.289 195.11C140.937 194.481 140.761 193.756 140.761 192.934C140.761 192.113 140.942 191.393 141.305 190.774C141.667 190.145 142.153 189.654 142.761 189.302C143.379 188.95 144.073 188.774 144.841 188.774C145.598 188.774 146.281 188.95 146.889 189.302C147.507 189.654 147.993 190.145 148.345 190.774C148.707 191.393 148.889 192.113 148.889 192.934C148.889 193.756 148.707 194.481 148.345 195.11C147.993 195.729 147.507 196.214 146.889 196.566C146.27 196.918 145.582 197.094 144.825 197.094ZM144.825 195.318C145.358 195.318 145.822 195.121 146.217 194.726C146.611 194.321 146.809 193.724 146.809 192.934C146.809 192.145 146.611 191.553 146.217 191.158C145.822 190.753 145.363 190.55 144.841 190.55C144.297 190.55 143.827 190.753 143.433 191.158C143.049 191.553 142.857 192.145 142.857 192.934C142.857 193.724 143.049 194.321 143.433 194.726C143.827 195.121 144.291 195.318 144.825 195.318ZM150.72 196.902V188.966H152.544L152.736 190.454C153.024 189.942 153.413 189.537 153.904 189.238C154.405 188.929 154.992 188.774 155.664 188.774V190.934H155.088C154.64 190.934 154.24 191.004 153.888 191.142C153.536 191.281 153.258 191.521 153.056 191.862C152.864 192.204 152.768 192.678 152.768 193.286V196.902H150.72ZM160.204 196.902L164.3 185.702H166.604L170.7 196.902H168.524L167.628 194.31H163.26L162.348 196.902H160.204ZM163.82 192.71H167.068L165.436 188.054L163.82 192.71ZM175.368 197.094C174.621 197.094 173.954 196.913 173.368 196.55C172.781 196.188 172.317 195.692 171.976 195.062C171.634 194.433 171.464 193.718 171.464 192.918C171.464 192.118 171.634 191.409 171.976 190.79C172.317 190.161 172.781 189.67 173.368 189.318C173.954 188.956 174.621 188.774 175.368 188.774C175.965 188.774 176.488 188.886 176.936 189.11C177.384 189.334 177.746 189.649 178.024 190.054V185.382H180.072V196.902H178.248L178.024 195.766C177.768 196.118 177.426 196.428 177 196.694C176.584 196.961 176.04 197.094 175.368 197.094ZM175.8 195.302C176.461 195.302 177 195.084 177.416 194.646C177.842 194.198 178.056 193.628 178.056 192.934C178.056 192.241 177.842 191.676 177.416 191.238C177 190.79 176.461 190.566 175.8 190.566C175.149 190.566 174.61 190.785 174.184 191.222C173.757 191.66 173.544 192.225 173.544 192.918C173.544 193.612 173.757 194.182 174.184 194.63C174.61 195.078 175.149 195.302 175.8 195.302ZM185.437 197.094C184.733 197.094 184.115 196.982 183.581 196.758C183.048 196.524 182.621 196.204 182.301 195.798C181.981 195.393 181.789 194.924 181.725 194.39H183.789C183.853 194.7 184.024 194.966 184.301 195.19C184.589 195.404 184.957 195.51 185.405 195.51C185.853 195.51 186.179 195.42 186.381 195.238C186.595 195.057 186.701 194.849 186.701 194.614C186.701 194.273 186.552 194.044 186.253 193.926C185.955 193.798 185.539 193.676 185.005 193.558C184.664 193.484 184.317 193.393 183.965 193.286C183.613 193.18 183.288 193.046 182.989 192.886C182.701 192.716 182.467 192.502 182.285 192.246C182.104 191.98 182.013 191.654 182.013 191.27C182.013 190.566 182.291 189.974 182.845 189.494C183.411 189.014 184.2 188.774 185.213 188.774C186.152 188.774 186.899 188.993 187.453 189.43C188.019 189.868 188.355 190.47 188.461 191.238H186.525C186.408 190.652 185.965 190.358 185.197 190.358C184.813 190.358 184.515 190.433 184.301 190.582C184.099 190.732 183.997 190.918 183.997 191.142C183.997 191.377 184.152 191.564 184.461 191.702C184.771 191.841 185.181 191.969 185.693 192.086C186.248 192.214 186.755 192.358 187.213 192.518C187.683 192.668 188.056 192.897 188.333 193.206C188.611 193.505 188.749 193.937 188.749 194.502C188.76 194.993 188.632 195.436 188.365 195.83C188.099 196.225 187.715 196.534 187.213 196.758C186.712 196.982 186.12 197.094 185.437 197.094Z" fill="#788A9B"/>
</svg>
