<svg width="286" height="329" viewBox="0 0 286 329" fill="none" xmlns="http://www.w3.org/2000/svg">
<rect width="286" height="329" rx="4" fill="#DBEFFE"/>
<path d="M117.678 159.403H160.322L147.962 137.772L139.309 150.75L130.656 142.716L117.678 159.403Z" fill="#71BFFB"/>
<circle cx="130.502" cy="131.436" r="2.93568" fill="#71BFFB"/>
<path d="M72.8536 187.402V176.202H76.9976C77.8936 176.202 78.635 176.352 79.2216 176.65C79.8083 176.949 80.2456 177.36 80.5336 177.882C80.8216 178.405 80.9656 178.992 80.9656 179.642C80.9656 180.261 80.827 180.832 80.5496 181.354C80.2723 181.866 79.8403 182.282 79.2536 182.602C78.667 182.912 77.915 183.066 76.9976 183.066H74.9016V187.402H72.8536ZM74.9016 181.402H76.8696C77.5843 181.402 78.0963 181.248 78.4056 180.938C78.7256 180.618 78.8856 180.186 78.8856 179.642C78.8856 179.088 78.7256 178.656 78.4056 178.346C78.0963 178.026 77.5843 177.866 76.8696 177.866H74.9016V181.402ZM82.5244 187.402V175.882H84.5724V187.402H82.5244ZM89.401 187.594C88.7183 187.594 88.1583 187.488 87.721 187.274C87.2837 187.05 86.9583 186.757 86.745 186.394C86.5317 186.032 86.425 185.632 86.425 185.194C86.425 184.458 86.713 183.861 87.289 183.402C87.865 182.944 88.729 182.714 89.881 182.714H91.897V182.522C91.897 181.978 91.7423 181.578 91.433 181.322C91.1237 181.066 90.7397 180.938 90.281 180.938C89.865 180.938 89.5023 181.04 89.193 181.242C88.8837 181.434 88.6917 181.722 88.617 182.106H86.617C86.6703 181.53 86.8623 181.029 87.193 180.602C87.5343 180.176 87.9717 179.85 88.505 179.626C89.0383 179.392 89.6357 179.274 90.297 179.274C91.4277 179.274 92.3183 179.557 92.969 180.122C93.6197 180.688 93.945 181.488 93.945 182.522V187.402H92.201L92.009 186.122C91.7743 186.549 91.4437 186.901 91.017 187.178C90.601 187.456 90.0623 187.594 89.401 187.594ZM89.865 185.994C90.4517 185.994 90.905 185.802 91.225 185.418C91.5557 185.034 91.7637 184.56 91.849 183.994H90.105C89.561 183.994 89.1717 184.096 88.937 184.298C88.7023 184.49 88.585 184.73 88.585 185.018C88.585 185.328 88.7023 185.568 88.937 185.738C89.1717 185.909 89.481 185.994 89.865 185.994ZM99.7874 187.594C98.9767 187.594 98.262 187.418 97.6434 187.066C97.0247 186.714 96.534 186.224 96.1714 185.594C95.8194 184.965 95.6434 184.245 95.6434 183.434C95.6434 182.624 95.8194 181.904 96.1714 181.274C96.534 180.645 97.0247 180.154 97.6434 179.802C98.262 179.45 98.9767 179.274 99.7874 179.274C100.801 179.274 101.654 179.541 102.347 180.074C103.041 180.597 103.483 181.322 103.675 182.25H101.515C101.409 181.866 101.195 181.568 100.875 181.354C100.566 181.13 100.198 181.018 99.7714 181.018C99.206 181.018 98.726 181.232 98.3314 181.658C97.9367 182.085 97.7394 182.677 97.7394 183.434C97.7394 184.192 97.9367 184.784 98.3314 185.21C98.726 185.637 99.206 185.85 99.7714 185.85C100.198 185.85 100.566 185.744 100.875 185.53C101.195 185.317 101.409 185.013 101.515 184.618H103.675C103.483 185.514 103.041 186.234 102.347 186.778C101.654 187.322 100.801 187.594 99.7874 187.594ZM109.349 187.594C108.549 187.594 107.84 187.424 107.221 187.082C106.602 186.741 106.117 186.261 105.765 185.642C105.413 185.024 105.237 184.309 105.237 183.498C105.237 182.677 105.408 181.946 105.749 181.306C106.101 180.666 106.581 180.17 107.189 179.818C107.808 179.456 108.533 179.274 109.365 179.274C110.144 179.274 110.832 179.445 111.429 179.786C112.026 180.128 112.49 180.597 112.821 181.194C113.162 181.781 113.333 182.437 113.333 183.162C113.333 183.28 113.328 183.402 113.317 183.53C113.317 183.658 113.312 183.792 113.301 183.93H107.269C107.312 184.549 107.525 185.034 107.909 185.386C108.304 185.738 108.778 185.914 109.333 185.914C109.749 185.914 110.096 185.824 110.373 185.642C110.661 185.45 110.874 185.205 111.013 184.906H113.093C112.944 185.408 112.693 185.866 112.341 186.282C112 186.688 111.573 187.008 111.061 187.242C110.56 187.477 109.989 187.594 109.349 187.594ZM109.365 180.938C108.864 180.938 108.421 181.082 108.037 181.37C107.653 181.648 107.408 182.074 107.301 182.65H111.253C111.221 182.128 111.029 181.712 110.677 181.402C110.325 181.093 109.888 180.938 109.365 180.938ZM119.236 187.402V181.178H118.148V179.466H119.236V178.538C119.236 177.578 119.476 176.896 119.956 176.49C120.447 176.085 121.108 175.882 121.94 175.882H122.82V177.626H122.26C121.908 177.626 121.657 177.696 121.508 177.834C121.359 177.973 121.284 178.208 121.284 178.538V179.466H122.996V181.178H121.284V187.402H119.236ZM128.114 187.594C127.346 187.594 126.652 187.418 126.034 187.066C125.426 186.714 124.94 186.229 124.578 185.61C124.226 184.981 124.05 184.256 124.05 183.434C124.05 182.613 124.231 181.893 124.594 181.274C124.956 180.645 125.442 180.154 126.05 179.802C126.668 179.45 127.362 179.274 128.13 179.274C128.887 179.274 129.57 179.45 130.178 179.802C130.796 180.154 131.282 180.645 131.634 181.274C131.996 181.893 132.178 182.613 132.178 183.434C132.178 184.256 131.996 184.981 131.634 185.61C131.282 186.229 130.796 186.714 130.178 187.066C129.559 187.418 128.871 187.594 128.114 187.594ZM128.114 185.818C128.647 185.818 129.111 185.621 129.506 185.226C129.9 184.821 130.098 184.224 130.098 183.434C130.098 182.645 129.9 182.053 129.506 181.658C129.111 181.253 128.652 181.05 128.13 181.05C127.586 181.05 127.116 181.253 126.722 181.658C126.338 182.053 126.146 182.645 126.146 183.434C126.146 184.224 126.338 184.821 126.722 185.226C127.116 185.621 127.58 185.818 128.114 185.818ZM134.009 187.402V179.466H135.833L136.025 180.954C136.313 180.442 136.702 180.037 137.193 179.738C137.694 179.429 138.281 179.274 138.953 179.274V181.434H138.377C137.929 181.434 137.529 181.504 137.177 181.642C136.825 181.781 136.547 182.021 136.345 182.362C136.153 182.704 136.057 183.178 136.057 183.786V187.402H134.009ZM144.213 187.402V176.202H148.709C149.872 176.202 150.757 176.474 151.365 177.018C151.984 177.552 152.293 178.24 152.293 179.082C152.293 179.786 152.101 180.352 151.717 180.778C151.344 181.194 150.885 181.477 150.341 181.626C150.981 181.754 151.509 182.074 151.925 182.586C152.341 183.088 152.549 183.674 152.549 184.346C152.549 185.232 152.229 185.962 151.589 186.538C150.949 187.114 150.042 187.402 148.869 187.402H144.213ZM146.261 180.906H148.405C148.981 180.906 149.424 180.773 149.733 180.506C150.042 180.24 150.197 179.861 150.197 179.37C150.197 178.901 150.042 178.533 149.733 178.266C149.434 177.989 148.981 177.85 148.373 177.85H146.261V180.906ZM146.261 185.738H148.549C149.157 185.738 149.626 185.6 149.957 185.322C150.298 185.034 150.469 184.634 150.469 184.122C150.469 183.6 150.293 183.189 149.941 182.89C149.589 182.592 149.114 182.442 148.517 182.442H146.261V185.738ZM156.995 187.594C156.312 187.594 155.752 187.488 155.315 187.274C154.877 187.05 154.552 186.757 154.339 186.394C154.125 186.032 154.019 185.632 154.019 185.194C154.019 184.458 154.307 183.861 154.883 183.402C155.459 182.944 156.323 182.714 157.475 182.714H159.491V182.522C159.491 181.978 159.336 181.578 159.027 181.322C158.717 181.066 158.333 180.938 157.875 180.938C157.459 180.938 157.096 181.04 156.787 181.242C156.477 181.434 156.285 181.722 156.211 182.106H154.211C154.264 181.53 154.456 181.029 154.787 180.602C155.128 180.176 155.565 179.85 156.099 179.626C156.632 179.392 157.229 179.274 157.891 179.274C159.021 179.274 159.912 179.557 160.563 180.122C161.213 180.688 161.539 181.488 161.539 182.522V187.402H159.795L159.603 186.122C159.368 186.549 159.037 186.901 158.611 187.178C158.195 187.456 157.656 187.594 156.995 187.594ZM157.459 185.994C158.045 185.994 158.499 185.802 158.819 185.418C159.149 185.034 159.357 184.56 159.443 183.994H157.699C157.155 183.994 156.765 184.096 156.531 184.298C156.296 184.49 156.179 184.73 156.179 185.018C156.179 185.328 156.296 185.568 156.531 185.738C156.765 185.909 157.075 185.994 157.459 185.994ZM163.493 187.402V179.466H165.301L165.461 180.81C165.706 180.341 166.058 179.968 166.517 179.69C166.986 179.413 167.536 179.274 168.165 179.274C169.146 179.274 169.909 179.584 170.453 180.202C170.997 180.821 171.269 181.728 171.269 182.922V187.402H169.221V183.114C169.221 182.432 169.082 181.909 168.805 181.546C168.528 181.184 168.096 181.002 167.509 181.002C166.933 181.002 166.458 181.205 166.085 181.61C165.722 182.016 165.541 182.581 165.541 183.306V187.402H163.493ZM173.228 187.402V179.466H175.036L175.196 180.81C175.441 180.341 175.793 179.968 176.252 179.69C176.721 179.413 177.27 179.274 177.9 179.274C178.881 179.274 179.644 179.584 180.188 180.202C180.731 180.821 181.003 181.728 181.003 182.922V187.402H178.956V183.114C178.956 182.432 178.817 181.909 178.54 181.546C178.262 181.184 177.83 181.002 177.244 181.002C176.668 181.002 176.193 181.205 175.82 181.61C175.457 182.016 175.276 182.581 175.276 183.306V187.402H173.228ZM186.818 187.594C186.018 187.594 185.309 187.424 184.69 187.082C184.071 186.741 183.586 186.261 183.234 185.642C182.882 185.024 182.706 184.309 182.706 183.498C182.706 182.677 182.877 181.946 183.218 181.306C183.57 180.666 184.05 180.17 184.658 179.818C185.277 179.456 186.002 179.274 186.834 179.274C187.613 179.274 188.301 179.445 188.898 179.786C189.495 180.128 189.959 180.597 190.29 181.194C190.631 181.781 190.802 182.437 190.802 183.162C190.802 183.28 190.797 183.402 190.786 183.53C190.786 183.658 190.781 183.792 190.77 183.93H184.738C184.781 184.549 184.994 185.034 185.378 185.386C185.773 185.738 186.247 185.914 186.802 185.914C187.218 185.914 187.565 185.824 187.842 185.642C188.13 185.45 188.343 185.205 188.482 184.906H190.562C190.413 185.408 190.162 185.866 189.81 186.282C189.469 186.688 189.042 187.008 188.53 187.242C188.029 187.477 187.458 187.594 186.818 187.594ZM186.834 180.938C186.333 180.938 185.89 181.082 185.506 181.37C185.122 181.648 184.877 182.074 184.77 182.65H188.722C188.69 182.128 188.498 181.712 188.146 181.402C187.794 181.093 187.357 180.938 186.834 180.938ZM192.524 187.402V179.466H194.348L194.54 180.954C194.828 180.442 195.218 180.037 195.708 179.738C196.21 179.429 196.796 179.274 197.468 179.274V181.434H196.892C196.444 181.434 196.044 181.504 195.692 181.642C195.34 181.781 195.063 182.021 194.86 182.362C194.668 182.704 194.572 183.178 194.572 183.786V187.402H192.524ZM202.148 187.594C201.444 187.594 200.825 187.482 200.292 187.258C199.759 187.024 199.332 186.704 199.012 186.298C198.692 185.893 198.5 185.424 198.436 184.89H200.5C200.564 185.2 200.735 185.466 201.012 185.69C201.3 185.904 201.668 186.01 202.116 186.01C202.564 186.01 202.889 185.92 203.092 185.738C203.305 185.557 203.412 185.349 203.412 185.114C203.412 184.773 203.263 184.544 202.964 184.426C202.665 184.298 202.249 184.176 201.716 184.058C201.375 183.984 201.028 183.893 200.676 183.786C200.324 183.68 199.999 183.546 199.7 183.386C199.412 183.216 199.177 183.002 198.996 182.746C198.815 182.48 198.724 182.154 198.724 181.77C198.724 181.066 199.001 180.474 199.556 179.994C200.121 179.514 200.911 179.274 201.924 179.274C202.863 179.274 203.609 179.493 204.164 179.93C204.729 180.368 205.065 180.97 205.172 181.738H203.236C203.119 181.152 202.676 180.858 201.908 180.858C201.524 180.858 201.225 180.933 201.012 181.082C200.809 181.232 200.708 181.418 200.708 181.642C200.708 181.877 200.863 182.064 201.172 182.202C201.481 182.341 201.892 182.469 202.404 182.586C202.959 182.714 203.465 182.858 203.924 183.018C204.393 183.168 204.767 183.397 205.044 183.706C205.321 184.005 205.46 184.437 205.46 185.002C205.471 185.493 205.343 185.936 205.076 186.33C204.809 186.725 204.425 187.034 203.924 187.258C203.423 187.482 202.831 187.594 202.148 187.594ZM90.1449 206.594C89.3769 206.594 88.6835 206.418 88.0649 206.066C87.4569 205.714 86.9715 205.229 86.6089 204.61C86.2569 203.981 86.0809 203.256 86.0809 202.434C86.0809 201.613 86.2622 200.893 86.6249 200.274C86.9875 199.645 87.4729 199.154 88.0809 198.802C88.6995 198.45 89.3929 198.274 90.1609 198.274C90.9182 198.274 91.6009 198.45 92.2089 198.802C92.8275 199.154 93.3129 199.645 93.6649 200.274C94.0275 200.893 94.2089 201.613 94.2089 202.434C94.2089 203.256 94.0275 203.981 93.6649 204.61C93.3129 205.229 92.8275 205.714 92.2089 206.066C91.5902 206.418 90.9022 206.594 90.1449 206.594ZM90.1449 204.818C90.6782 204.818 91.1422 204.621 91.5369 204.226C91.9315 203.821 92.1289 203.224 92.1289 202.434C92.1289 201.645 91.9315 201.053 91.5369 200.658C91.1422 200.253 90.6835 200.05 90.1609 200.05C89.6169 200.05 89.1475 200.253 88.7529 200.658C88.3689 201.053 88.1769 201.645 88.1769 202.434C88.1769 203.224 88.3689 203.821 88.7529 204.226C89.1475 204.621 89.6115 204.818 90.1449 204.818ZM96.408 206.402V200.178H95.32V198.466H96.408V197.538C96.408 196.578 96.648 195.896 97.128 195.49C97.6187 195.085 98.28 194.882 99.112 194.882H99.992V196.626H99.432C99.08 196.626 98.8293 196.696 98.68 196.834C98.5307 196.973 98.456 197.208 98.456 197.538V198.466H100.168V200.178H98.456V206.402H96.408ZM105.651 206.402V195.202H108.083L111.651 202.306L115.171 195.202H117.603V206.402H115.555V198.674L112.435 204.802H110.819L107.699 198.674V206.402H105.651ZM123.536 206.594C122.768 206.594 122.074 206.418 121.456 206.066C120.848 205.714 120.362 205.229 120 204.61C119.648 203.981 119.472 203.256 119.472 202.434C119.472 201.613 119.653 200.893 120.016 200.274C120.378 199.645 120.864 199.154 121.472 198.802C122.09 198.45 122.784 198.274 123.552 198.274C124.309 198.274 124.992 198.45 125.6 198.802C126.218 199.154 126.704 199.645 127.056 200.274C127.418 200.893 127.6 201.613 127.6 202.434C127.6 203.256 127.418 203.981 127.056 204.61C126.704 205.229 126.218 205.714 125.6 206.066C124.981 206.418 124.293 206.594 123.536 206.594ZM123.536 204.818C124.069 204.818 124.533 204.621 124.928 204.226C125.322 203.821 125.52 203.224 125.52 202.434C125.52 201.645 125.322 201.053 124.928 200.658C124.533 200.253 124.074 200.05 123.552 200.05C123.008 200.05 122.538 200.253 122.144 200.658C121.76 201.053 121.568 201.645 121.568 202.434C121.568 203.224 121.76 203.821 122.144 204.226C122.538 204.621 123.002 204.818 123.536 204.818ZM134.135 206.594C133.537 206.594 133.015 206.482 132.567 206.258C132.119 206.034 131.756 205.72 131.479 205.314L131.255 206.402H129.431V194.882H131.479V199.602C131.735 199.25 132.071 198.941 132.487 198.674C132.913 198.408 133.463 198.274 134.135 198.274C134.881 198.274 135.548 198.456 136.135 198.818C136.721 199.181 137.185 199.677 137.527 200.306C137.868 200.936 138.039 201.65 138.039 202.45C138.039 203.25 137.868 203.965 137.527 204.594C137.185 205.213 136.721 205.704 136.135 206.066C135.548 206.418 134.881 206.594 134.135 206.594ZM133.703 204.802C134.353 204.802 134.892 204.584 135.319 204.146C135.745 203.709 135.959 203.144 135.959 202.45C135.959 201.757 135.745 201.186 135.319 200.738C134.892 200.29 134.353 200.066 133.703 200.066C133.041 200.066 132.497 200.29 132.071 200.738C131.655 201.176 131.447 201.741 131.447 202.434C131.447 203.128 131.655 203.698 132.071 204.146C132.497 204.584 133.041 204.802 133.703 204.802ZM140.972 197.234C140.599 197.234 140.289 197.122 140.044 196.898C139.809 196.674 139.692 196.392 139.692 196.05C139.692 195.709 139.809 195.432 140.044 195.218C140.289 194.994 140.599 194.882 140.972 194.882C141.345 194.882 141.649 194.994 141.884 195.218C142.129 195.432 142.252 195.709 142.252 196.05C142.252 196.392 142.129 196.674 141.884 196.898C141.649 197.122 141.345 197.234 140.972 197.234ZM139.948 206.402V198.466H141.996V206.402H139.948ZM144.134 206.402V194.882H146.182V206.402H144.134ZM152.13 206.594C151.33 206.594 150.621 206.424 150.002 206.082C149.384 205.741 148.898 205.261 148.546 204.642C148.194 204.024 148.018 203.309 148.018 202.498C148.018 201.677 148.189 200.946 148.53 200.306C148.882 199.666 149.362 199.17 149.97 198.818C150.589 198.456 151.314 198.274 152.146 198.274C152.925 198.274 153.613 198.445 154.21 198.786C154.808 199.128 155.272 199.597 155.602 200.194C155.944 200.781 156.114 201.437 156.114 202.162C156.114 202.28 156.109 202.402 156.098 202.53C156.098 202.658 156.093 202.792 156.082 202.93H150.05C150.093 203.549 150.306 204.034 150.69 204.386C151.085 204.738 151.56 204.914 152.114 204.914C152.53 204.914 152.877 204.824 153.154 204.642C153.442 204.45 153.656 204.205 153.794 203.906H155.874C155.725 204.408 155.474 204.866 155.122 205.282C154.781 205.688 154.354 206.008 153.842 206.242C153.341 206.477 152.77 206.594 152.13 206.594ZM152.146 199.938C151.645 199.938 151.202 200.082 150.818 200.37C150.434 200.648 150.189 201.074 150.082 201.65H154.034C154.002 201.128 153.81 200.712 153.458 200.402C153.106 200.093 152.669 199.938 152.146 199.938ZM160.977 206.402L165.073 195.202H167.377L171.473 206.402H169.297L168.401 203.81H164.033L163.121 206.402H160.977ZM164.593 202.21H167.841L166.209 197.554L164.593 202.21ZM172.868 209.922V198.466H174.692L174.916 199.602C175.172 199.25 175.508 198.941 175.924 198.674C176.351 198.408 176.9 198.274 177.572 198.274C178.319 198.274 178.985 198.456 179.572 198.818C180.159 199.181 180.623 199.677 180.964 200.306C181.305 200.936 181.476 201.65 181.476 202.45C181.476 203.25 181.305 203.965 180.964 204.594C180.623 205.213 180.159 205.704 179.572 206.066C178.985 206.418 178.319 206.594 177.572 206.594C176.975 206.594 176.452 206.482 176.004 206.258C175.556 206.034 175.193 205.72 174.916 205.314V209.922H172.868ZM177.14 204.802C177.791 204.802 178.329 204.584 178.756 204.146C179.183 203.709 179.396 203.144 179.396 202.45C179.396 201.757 179.183 201.186 178.756 200.738C178.329 200.29 177.791 200.066 177.14 200.066C176.479 200.066 175.935 200.29 175.508 200.738C175.092 201.176 174.884 201.741 174.884 202.434C174.884 203.128 175.092 203.698 175.508 204.146C175.935 204.584 176.479 204.802 177.14 204.802ZM183.306 209.922V198.466H185.13L185.354 199.602C185.61 199.25 185.946 198.941 186.362 198.674C186.788 198.408 187.338 198.274 188.01 198.274C188.756 198.274 189.423 198.456 190.01 198.818C190.596 199.181 191.06 199.677 191.402 200.306C191.743 200.936 191.914 201.65 191.914 202.45C191.914 203.25 191.743 203.965 191.402 204.594C191.06 205.213 190.596 205.704 190.01 206.066C189.423 206.418 188.756 206.594 188.01 206.594C187.412 206.594 186.89 206.482 186.442 206.258C185.994 206.034 185.631 205.72 185.354 205.314V209.922H183.306ZM187.578 204.802C188.228 204.802 188.767 204.584 189.194 204.146C189.62 203.709 189.834 203.144 189.834 202.45C189.834 201.757 189.62 201.186 189.194 200.738C188.767 200.29 188.228 200.066 187.578 200.066C186.916 200.066 186.372 200.29 185.946 200.738C185.53 201.176 185.322 201.741 185.322 202.434C185.322 203.128 185.53 203.698 185.946 204.146C186.372 204.584 186.916 204.802 187.578 204.802Z" fill="#788A9B"/>
</svg>
