<svg width="286" height="329" viewBox="0 0 286 329" fill="none" xmlns="http://www.w3.org/2000/svg">
<rect width="286" height="329" rx="4" fill="#DBEFFE"/>
<path d="M117.678 159.403H160.322L147.962 137.772L139.309 150.75L130.656 142.716L117.678 159.403Z" fill="#71BFFB"/>
<circle cx="130.502" cy="131.436" r="2.93568" fill="#71BFFB"/>
<path d="M72.8536 187.402V176.202H76.9976C77.8936 176.202 78.635 176.352 79.2216 176.65C79.8083 176.949 80.2456 177.36 80.5336 177.882C80.8216 178.405 80.9656 178.992 80.9656 179.642C80.9656 180.261 80.827 180.832 80.5496 181.354C80.2723 181.866 79.8403 182.282 79.2536 182.602C78.667 182.912 77.915 183.066 76.9976 183.066H74.9016V187.402H72.8536ZM74.9016 181.402H76.8696C77.5843 181.402 78.0963 181.248 78.4056 180.938C78.7256 180.618 78.8856 180.186 78.8856 179.642C78.8856 179.088 78.7256 178.656 78.4056 178.346C78.0963 178.026 77.5843 177.866 76.8696 177.866H74.9016V181.402ZM82.5244 187.402V175.882H84.5724V187.402H82.5244ZM89.401 187.594C88.7183 187.594 88.1583 187.488 87.721 187.274C87.2837 187.05 86.9583 186.757 86.745 186.394C86.5317 186.032 86.425 185.632 86.425 185.194C86.425 184.458 86.713 183.861 87.289 183.402C87.865 182.944 88.729 182.714 89.881 182.714H91.897V182.522C91.897 181.978 91.7423 181.578 91.433 181.322C91.1237 181.066 90.7397 180.938 90.281 180.938C89.865 180.938 89.5023 181.04 89.193 181.242C88.8837 181.434 88.6917 181.722 88.617 182.106H86.617C86.6703 181.53 86.8623 181.029 87.193 180.602C87.5343 180.176 87.9717 179.85 88.505 179.626C89.0383 179.392 89.6357 179.274 90.297 179.274C91.4277 179.274 92.3183 179.557 92.969 180.122C93.6197 180.688 93.945 181.488 93.945 182.522V187.402H92.201L92.009 186.122C91.7743 186.549 91.4437 186.901 91.017 187.178C90.601 187.456 90.0623 187.594 89.401 187.594ZM89.865 185.994C90.4517 185.994 90.905 185.802 91.225 185.418C91.5557 185.034 91.7637 184.56 91.849 183.994H90.105C89.561 183.994 89.1717 184.096 88.937 184.298C88.7023 184.49 88.585 184.73 88.585 185.018C88.585 185.328 88.7023 185.568 88.937 185.738C89.1717 185.909 89.481 185.994 89.865 185.994ZM99.7874 187.594C98.9767 187.594 98.262 187.418 97.6434 187.066C97.0247 186.714 96.534 186.224 96.1714 185.594C95.8194 184.965 95.6434 184.245 95.6434 183.434C95.6434 182.624 95.8194 181.904 96.1714 181.274C96.534 180.645 97.0247 180.154 97.6434 179.802C98.262 179.45 98.9767 179.274 99.7874 179.274C100.801 179.274 101.654 179.541 102.347 180.074C103.041 180.597 103.483 181.322 103.675 182.25H101.515C101.409 181.866 101.195 181.568 100.875 181.354C100.566 181.13 100.198 181.018 99.7714 181.018C99.206 181.018 98.726 181.232 98.3314 181.658C97.9367 182.085 97.7394 182.677 97.7394 183.434C97.7394 184.192 97.9367 184.784 98.3314 185.21C98.726 185.637 99.206 185.85 99.7714 185.85C100.198 185.85 100.566 185.744 100.875 185.53C101.195 185.317 101.409 185.013 101.515 184.618H103.675C103.483 185.514 103.041 186.234 102.347 186.778C101.654 187.322 100.801 187.594 99.7874 187.594ZM109.349 187.594C108.549 187.594 107.84 187.424 107.221 187.082C106.602 186.741 106.117 186.261 105.765 185.642C105.413 185.024 105.237 184.309 105.237 183.498C105.237 182.677 105.408 181.946 105.749 181.306C106.101 180.666 106.581 180.17 107.189 179.818C107.808 179.456 108.533 179.274 109.365 179.274C110.144 179.274 110.832 179.445 111.429 179.786C112.026 180.128 112.49 180.597 112.821 181.194C113.162 181.781 113.333 182.437 113.333 183.162C113.333 183.28 113.328 183.402 113.317 183.53C113.317 183.658 113.312 183.792 113.301 183.93H107.269C107.312 184.549 107.525 185.034 107.909 185.386C108.304 185.738 108.778 185.914 109.333 185.914C109.749 185.914 110.096 185.824 110.373 185.642C110.661 185.45 110.874 185.205 111.013 184.906H113.093C112.944 185.408 112.693 185.866 112.341 186.282C112 186.688 111.573 187.008 111.061 187.242C110.56 187.477 109.989 187.594 109.349 187.594ZM109.365 180.938C108.864 180.938 108.421 181.082 108.037 181.37C107.653 181.648 107.408 182.074 107.301 182.65H111.253C111.221 182.128 111.029 181.712 110.677 181.402C110.325 181.093 109.888 180.938 109.365 180.938ZM119.236 187.402V181.178H118.148V179.466H119.236V178.538C119.236 177.578 119.476 176.896 119.956 176.49C120.447 176.085 121.108 175.882 121.94 175.882H122.82V177.626H122.26C121.908 177.626 121.657 177.696 121.508 177.834C121.359 177.973 121.284 178.208 121.284 178.538V179.466H122.996V181.178H121.284V187.402H119.236ZM128.114 187.594C127.346 187.594 126.652 187.418 126.034 187.066C125.426 186.714 124.94 186.229 124.578 185.61C124.226 184.981 124.05 184.256 124.05 183.434C124.05 182.613 124.231 181.893 124.594 181.274C124.956 180.645 125.442 180.154 126.05 179.802C126.668 179.45 127.362 179.274 128.13 179.274C128.887 179.274 129.57 179.45 130.178 179.802C130.796 180.154 131.282 180.645 131.634 181.274C131.996 181.893 132.178 182.613 132.178 183.434C132.178 184.256 131.996 184.981 131.634 185.61C131.282 186.229 130.796 186.714 130.178 187.066C129.559 187.418 128.871 187.594 128.114 187.594ZM128.114 185.818C128.647 185.818 129.111 185.621 129.506 185.226C129.9 184.821 130.098 184.224 130.098 183.434C130.098 182.645 129.9 182.053 129.506 181.658C129.111 181.253 128.652 181.05 128.13 181.05C127.586 181.05 127.116 181.253 126.722 181.658C126.338 182.053 126.146 182.645 126.146 183.434C126.146 184.224 126.338 184.821 126.722 185.226C127.116 185.621 127.58 185.818 128.114 185.818ZM134.009 187.402V179.466H135.833L136.025 180.954C136.313 180.442 136.702 180.037 137.193 179.738C137.694 179.429 138.281 179.274 138.953 179.274V181.434H138.377C137.929 181.434 137.529 181.504 137.177 181.642C136.825 181.781 136.547 182.021 136.345 182.362C136.153 182.704 136.057 183.178 136.057 183.786V187.402H134.009ZM144.213 187.402V176.202H148.709C149.872 176.202 150.757 176.474 151.365 177.018C151.984 177.552 152.293 178.24 152.293 179.082C152.293 179.786 152.101 180.352 151.717 180.778C151.344 181.194 150.885 181.477 150.341 181.626C150.981 181.754 151.509 182.074 151.925 182.586C152.341 183.088 152.549 183.674 152.549 184.346C152.549 185.232 152.229 185.962 151.589 186.538C150.949 187.114 150.042 187.402 148.869 187.402H144.213ZM146.261 180.906H148.405C148.981 180.906 149.424 180.773 149.733 180.506C150.042 180.24 150.197 179.861 150.197 179.37C150.197 178.901 150.042 178.533 149.733 178.266C149.434 177.989 148.981 177.85 148.373 177.85H146.261V180.906ZM146.261 185.738H148.549C149.157 185.738 149.626 185.6 149.957 185.322C150.298 185.034 150.469 184.634 150.469 184.122C150.469 183.6 150.293 183.189 149.941 182.89C149.589 182.592 149.114 182.442 148.517 182.442H146.261V185.738ZM156.995 187.594C156.312 187.594 155.752 187.488 155.315 187.274C154.877 187.05 154.552 186.757 154.339 186.394C154.125 186.032 154.019 185.632 154.019 185.194C154.019 184.458 154.307 183.861 154.883 183.402C155.459 182.944 156.323 182.714 157.475 182.714H159.491V182.522C159.491 181.978 159.336 181.578 159.027 181.322C158.717 181.066 158.333 180.938 157.875 180.938C157.459 180.938 157.096 181.04 156.787 181.242C156.477 181.434 156.285 181.722 156.211 182.106H154.211C154.264 181.53 154.456 181.029 154.787 180.602C155.128 180.176 155.565 179.85 156.099 179.626C156.632 179.392 157.229 179.274 157.891 179.274C159.021 179.274 159.912 179.557 160.563 180.122C161.213 180.688 161.539 181.488 161.539 182.522V187.402H159.795L159.603 186.122C159.368 186.549 159.037 186.901 158.611 187.178C158.195 187.456 157.656 187.594 156.995 187.594ZM157.459 185.994C158.045 185.994 158.499 185.802 158.819 185.418C159.149 185.034 159.357 184.56 159.443 183.994H157.699C157.155 183.994 156.765 184.096 156.531 184.298C156.296 184.49 156.179 184.73 156.179 185.018C156.179 185.328 156.296 185.568 156.531 185.738C156.765 185.909 157.075 185.994 157.459 185.994ZM163.493 187.402V179.466H165.301L165.461 180.81C165.706 180.341 166.058 179.968 166.517 179.69C166.986 179.413 167.536 179.274 168.165 179.274C169.146 179.274 169.909 179.584 170.453 180.202C170.997 180.821 171.269 181.728 171.269 182.922V187.402H169.221V183.114C169.221 182.432 169.082 181.909 168.805 181.546C168.528 181.184 168.096 181.002 167.509 181.002C166.933 181.002 166.458 181.205 166.085 181.61C165.722 182.016 165.541 182.581 165.541 183.306V187.402H163.493ZM173.228 187.402V179.466H175.036L175.196 180.81C175.441 180.341 175.793 179.968 176.252 179.69C176.721 179.413 177.27 179.274 177.9 179.274C178.881 179.274 179.644 179.584 180.188 180.202C180.731 180.821 181.003 181.728 181.003 182.922V187.402H178.956V183.114C178.956 182.432 178.817 181.909 178.54 181.546C178.262 181.184 177.83 181.002 177.244 181.002C176.668 181.002 176.193 181.205 175.82 181.61C175.457 182.016 175.276 182.581 175.276 183.306V187.402H173.228ZM186.818 187.594C186.018 187.594 185.309 187.424 184.69 187.082C184.071 186.741 183.586 186.261 183.234 185.642C182.882 185.024 182.706 184.309 182.706 183.498C182.706 182.677 182.877 181.946 183.218 181.306C183.57 180.666 184.05 180.17 184.658 179.818C185.277 179.456 186.002 179.274 186.834 179.274C187.613 179.274 188.301 179.445 188.898 179.786C189.495 180.128 189.959 180.597 190.29 181.194C190.631 181.781 190.802 182.437 190.802 183.162C190.802 183.28 190.797 183.402 190.786 183.53C190.786 183.658 190.781 183.792 190.77 183.93H184.738C184.781 184.549 184.994 185.034 185.378 185.386C185.773 185.738 186.247 185.914 186.802 185.914C187.218 185.914 187.565 185.824 187.842 185.642C188.13 185.45 188.343 185.205 188.482 184.906H190.562C190.413 185.408 190.162 185.866 189.81 186.282C189.469 186.688 189.042 187.008 188.53 187.242C188.029 187.477 187.458 187.594 186.818 187.594ZM186.834 180.938C186.333 180.938 185.89 181.082 185.506 181.37C185.122 181.648 184.877 182.074 184.77 182.65H188.722C188.69 182.128 188.498 181.712 188.146 181.402C187.794 181.093 187.357 180.938 186.834 180.938ZM192.524 187.402V179.466H194.348L194.54 180.954C194.828 180.442 195.218 180.037 195.708 179.738C196.21 179.429 196.796 179.274 197.468 179.274V181.434H196.892C196.444 181.434 196.044 181.504 195.692 181.642C195.34 181.781 195.063 182.021 194.86 182.362C194.668 182.704 194.572 183.178 194.572 183.786V187.402H192.524ZM202.148 187.594C201.444 187.594 200.825 187.482 200.292 187.258C199.759 187.024 199.332 186.704 199.012 186.298C198.692 185.893 198.5 185.424 198.436 184.89H200.5C200.564 185.2 200.735 185.466 201.012 185.69C201.3 185.904 201.668 186.01 202.116 186.01C202.564 186.01 202.889 185.92 203.092 185.738C203.305 185.557 203.412 185.349 203.412 185.114C203.412 184.773 203.263 184.544 202.964 184.426C202.665 184.298 202.249 184.176 201.716 184.058C201.375 183.984 201.028 183.893 200.676 183.786C200.324 183.68 199.999 183.546 199.7 183.386C199.412 183.216 199.177 183.002 198.996 182.746C198.815 182.48 198.724 182.154 198.724 181.77C198.724 181.066 199.001 180.474 199.556 179.994C200.121 179.514 200.911 179.274 201.924 179.274C202.863 179.274 203.609 179.493 204.164 179.93C204.729 180.368 205.065 180.97 205.172 181.738H203.236C203.119 181.152 202.676 180.858 201.908 180.858C201.524 180.858 201.225 180.933 201.012 181.082C200.809 181.232 200.708 181.418 200.708 181.642C200.708 181.877 200.863 182.064 201.172 182.202C201.481 182.341 201.892 182.469 202.404 182.586C202.959 182.714 203.465 182.858 203.924 183.018C204.393 183.168 204.767 183.397 205.044 183.706C205.321 184.005 205.46 184.437 205.46 185.002C205.471 185.493 205.343 185.936 205.076 186.33C204.809 186.725 204.425 187.034 203.924 187.258C203.423 187.482 202.831 187.594 202.148 187.594ZM57.1449 206.594C56.3769 206.594 55.6835 206.418 55.0649 206.066C54.4569 205.714 53.9715 205.229 53.6089 204.61C53.2569 203.981 53.0809 203.256 53.0809 202.434C53.0809 201.613 53.2622 200.893 53.6249 200.274C53.9875 199.645 54.4729 199.154 55.0809 198.802C55.6995 198.45 56.3929 198.274 57.1609 198.274C57.9182 198.274 58.6009 198.45 59.2089 198.802C59.8275 199.154 60.3129 199.645 60.6649 200.274C61.0275 200.893 61.2089 201.613 61.2089 202.434C61.2089 203.256 61.0275 203.981 60.6649 204.61C60.3129 205.229 59.8275 205.714 59.2089 206.066C58.5902 206.418 57.9022 206.594 57.1449 206.594ZM57.1449 204.818C57.6782 204.818 58.1422 204.621 58.5369 204.226C58.9315 203.821 59.1289 203.224 59.1289 202.434C59.1289 201.645 58.9315 201.053 58.5369 200.658C58.1422 200.253 57.6835 200.05 57.1609 200.05C56.6169 200.05 56.1475 200.253 55.7529 200.658C55.3689 201.053 55.1769 201.645 55.1769 202.434C55.1769 203.224 55.3689 203.821 55.7529 204.226C56.1475 204.621 56.6115 204.818 57.1449 204.818ZM63.408 206.402V200.178H62.32V198.466H63.408V197.538C63.408 196.578 63.648 195.896 64.128 195.49C64.6187 195.085 65.28 194.882 66.112 194.882H66.992V196.626H66.432C66.08 196.626 65.8293 196.696 65.68 196.834C65.5307 196.973 65.456 197.208 65.456 197.538V198.466H67.168V200.178H65.456V206.402H63.408ZM76.4745 206.594C75.6532 206.594 74.9278 206.456 74.2985 206.178C73.6692 205.89 73.1732 205.485 72.8105 204.962C72.4478 204.429 72.2612 203.784 72.2505 203.026H74.4105C74.4318 203.549 74.6185 203.992 74.9705 204.354C75.3332 204.706 75.8292 204.882 76.4585 204.882C77.0025 204.882 77.4345 204.754 77.7545 204.498C78.0745 204.232 78.2345 203.88 78.2345 203.442C78.2345 202.984 78.0905 202.626 77.8025 202.37C77.5252 202.114 77.1518 201.906 76.6825 201.746C76.2132 201.586 75.7118 201.416 75.1785 201.234C74.3145 200.936 73.6532 200.552 73.1945 200.082C72.7465 199.613 72.5225 198.989 72.5225 198.21C72.5118 197.549 72.6665 196.984 72.9865 196.514C73.3172 196.034 73.7652 195.666 74.3305 195.41C74.8958 195.144 75.5465 195.01 76.2825 195.01C77.0292 195.01 77.6852 195.144 78.2505 195.41C78.8265 195.677 79.2745 196.05 79.5945 196.53C79.9252 197.01 80.1012 197.581 80.1225 198.242H77.9305C77.9198 197.848 77.7652 197.501 77.4665 197.202C77.1785 196.893 76.7732 196.738 76.2505 196.738C75.8025 196.728 75.4238 196.84 75.1145 197.074C74.8158 197.298 74.6665 197.629 74.6665 198.066C74.6665 198.44 74.7838 198.738 75.0185 198.962C75.2532 199.176 75.5732 199.357 75.9785 199.506C76.3838 199.656 76.8478 199.816 77.3705 199.986C77.9252 200.178 78.4318 200.402 78.8905 200.658C79.3492 200.914 79.7172 201.256 79.9945 201.682C80.2718 202.098 80.4105 202.637 80.4105 203.298C80.4105 203.885 80.2612 204.429 79.9625 204.93C79.6638 205.432 79.2212 205.837 78.6345 206.146C78.0478 206.445 77.3278 206.594 76.4745 206.594ZM82.1494 209.922V198.466H83.9734L84.1974 199.602C84.4534 199.25 84.7894 198.941 85.2054 198.674C85.632 198.408 86.1814 198.274 86.8534 198.274C87.6 198.274 88.2667 198.456 88.8534 198.818C89.44 199.181 89.904 199.677 90.2454 200.306C90.5867 200.936 90.7574 201.65 90.7574 202.45C90.7574 203.25 90.5867 203.965 90.2454 204.594C89.904 205.213 89.44 205.704 88.8534 206.066C88.2667 206.418 87.6 206.594 86.8534 206.594C86.256 206.594 85.7334 206.482 85.2854 206.258C84.8374 206.034 84.4747 205.72 84.1974 205.314V209.922H82.1494ZM86.4214 204.802C87.072 204.802 87.6107 204.584 88.0374 204.146C88.464 203.709 88.6774 203.144 88.6774 202.45C88.6774 201.757 88.464 201.186 88.0374 200.738C87.6107 200.29 87.072 200.066 86.4214 200.066C85.76 200.066 85.216 200.29 84.7894 200.738C84.3734 201.176 84.1654 201.741 84.1654 202.434C84.1654 203.128 84.3734 203.698 84.7894 204.146C85.216 204.584 85.76 204.802 86.4214 204.802ZM96.4429 206.594C95.6429 206.594 94.9335 206.424 94.3149 206.082C93.6962 205.741 93.2109 205.261 92.8589 204.642C92.5069 204.024 92.3309 203.309 92.3309 202.498C92.3309 201.677 92.5015 200.946 92.8429 200.306C93.1949 199.666 93.6749 199.17 94.2829 198.818C94.9015 198.456 95.6269 198.274 96.4589 198.274C97.2375 198.274 97.9255 198.445 98.5229 198.786C99.1202 199.128 99.5842 199.597 99.9149 200.194C100.256 200.781 100.427 201.437 100.427 202.162C100.427 202.28 100.422 202.402 100.411 202.53C100.411 202.658 100.406 202.792 100.395 202.93H94.3629C94.4055 203.549 94.6189 204.034 95.0029 204.386C95.3975 204.738 95.8722 204.914 96.4269 204.914C96.8429 204.914 97.1895 204.824 97.4669 204.642C97.7549 204.45 97.9682 204.205 98.1069 203.906H100.187C100.038 204.408 99.7869 204.866 99.4349 205.282C99.0935 205.688 98.6669 206.008 98.1549 206.242C97.6535 206.477 97.0829 206.594 96.4429 206.594ZM96.4589 199.938C95.9575 199.938 95.5149 200.082 95.1309 200.37C94.7469 200.648 94.5015 201.074 94.3949 201.65H98.3469C98.3149 201.128 98.1229 200.712 97.7709 200.402C97.4189 200.093 96.9815 199.938 96.4589 199.938ZM106.037 206.594C105.227 206.594 104.512 206.418 103.893 206.066C103.275 205.714 102.784 205.224 102.421 204.594C102.069 203.965 101.893 203.245 101.893 202.434C101.893 201.624 102.069 200.904 102.421 200.274C102.784 199.645 103.275 199.154 103.893 198.802C104.512 198.45 105.227 198.274 106.037 198.274C107.051 198.274 107.904 198.541 108.597 199.074C109.291 199.597 109.733 200.322 109.925 201.25H107.765C107.659 200.866 107.445 200.568 107.125 200.354C106.816 200.13 106.448 200.018 106.021 200.018C105.456 200.018 104.976 200.232 104.581 200.658C104.187 201.085 103.989 201.677 103.989 202.434C103.989 203.192 104.187 203.784 104.581 204.21C104.976 204.637 105.456 204.85 106.021 204.85C106.448 204.85 106.816 204.744 107.125 204.53C107.445 204.317 107.659 204.013 107.765 203.618H109.925C109.733 204.514 109.291 205.234 108.597 205.778C107.904 206.322 107.051 206.594 106.037 206.594ZM112.847 197.234C112.474 197.234 112.164 197.122 111.919 196.898C111.684 196.674 111.567 196.392 111.567 196.05C111.567 195.709 111.684 195.432 111.919 195.218C112.164 194.994 112.474 194.882 112.847 194.882C113.22 194.882 113.524 194.994 113.759 195.218C114.004 195.432 114.127 195.709 114.127 196.05C114.127 196.392 114.004 196.674 113.759 196.898C113.524 197.122 113.22 197.234 112.847 197.234ZM111.823 206.402V198.466H113.871V206.402H111.823ZM118.745 206.594C118.062 206.594 117.502 206.488 117.065 206.274C116.627 206.05 116.302 205.757 116.089 205.394C115.875 205.032 115.769 204.632 115.769 204.194C115.769 203.458 116.057 202.861 116.633 202.402C117.209 201.944 118.073 201.714 119.225 201.714H121.241V201.522C121.241 200.978 121.086 200.578 120.777 200.322C120.467 200.066 120.083 199.938 119.625 199.938C119.209 199.938 118.846 200.04 118.537 200.242C118.227 200.434 118.035 200.722 117.961 201.106H115.961C116.014 200.53 116.206 200.029 116.537 199.602C116.878 199.176 117.315 198.85 117.849 198.626C118.382 198.392 118.979 198.274 119.641 198.274C120.771 198.274 121.662 198.557 122.313 199.122C122.963 199.688 123.289 200.488 123.289 201.522V206.402H121.545L121.353 205.122C121.118 205.549 120.787 205.901 120.361 206.178C119.945 206.456 119.406 206.594 118.745 206.594ZM119.209 204.994C119.795 204.994 120.249 204.802 120.569 204.418C120.899 204.034 121.107 203.56 121.193 202.994H119.449C118.905 202.994 118.515 203.096 118.281 203.298C118.046 203.49 117.929 203.73 117.929 204.018C117.929 204.328 118.046 204.568 118.281 204.738C118.515 204.909 118.825 204.994 119.209 204.994ZM125.243 206.402V194.882H127.291V206.402H125.243ZM133.244 206.402V195.202H140.556V196.85H135.292V199.922H140.076V201.522H135.292V204.754H140.556V206.402H133.244ZM148.75 209.922V205.266C148.494 205.618 148.153 205.928 147.726 206.194C147.31 206.461 146.766 206.594 146.094 206.594C145.348 206.594 144.681 206.413 144.094 206.05C143.508 205.688 143.044 205.192 142.702 204.562C142.361 203.933 142.19 203.218 142.19 202.418C142.19 201.618 142.361 200.909 142.702 200.29C143.044 199.661 143.508 199.17 144.094 198.818C144.681 198.456 145.348 198.274 146.094 198.274C146.692 198.274 147.214 198.386 147.662 198.61C148.11 198.834 148.473 199.149 148.75 199.554L148.974 198.466H150.798V209.922H148.75ZM146.526 204.802C147.188 204.802 147.726 204.584 148.142 204.146C148.569 203.698 148.782 203.128 148.782 202.434C148.782 201.741 148.569 201.176 148.142 200.738C147.726 200.29 147.188 200.066 146.526 200.066C145.876 200.066 145.337 200.285 144.91 200.722C144.484 201.16 144.27 201.725 144.27 202.418C144.27 203.112 144.484 203.682 144.91 204.13C145.337 204.578 145.876 204.802 146.526 204.802ZM155.86 206.594C154.868 206.594 154.1 206.285 153.556 205.666C153.022 205.048 152.756 204.141 152.756 202.946V198.466H154.788V202.754C154.788 203.437 154.926 203.96 155.204 204.322C155.481 204.685 155.918 204.866 156.516 204.866C157.081 204.866 157.545 204.664 157.908 204.258C158.281 203.853 158.468 203.288 158.468 202.562V198.466H160.516V206.402H158.708L158.548 205.058C158.302 205.528 157.945 205.901 157.476 206.178C157.017 206.456 156.478 206.594 155.86 206.594ZM163.722 197.234C163.349 197.234 163.039 197.122 162.794 196.898C162.559 196.674 162.442 196.392 162.442 196.05C162.442 195.709 162.559 195.432 162.794 195.218C163.039 194.994 163.349 194.882 163.722 194.882C164.095 194.882 164.399 194.994 164.634 195.218C164.879 195.432 165.002 195.709 165.002 196.05C165.002 196.392 164.879 196.674 164.634 196.898C164.399 197.122 164.095 197.234 163.722 197.234ZM162.698 206.402V198.466H164.746V206.402H162.698ZM166.884 209.922V198.466H168.708L168.932 199.602C169.188 199.25 169.524 198.941 169.94 198.674C170.366 198.408 170.916 198.274 171.588 198.274C172.334 198.274 173.001 198.456 173.588 198.818C174.174 199.181 174.638 199.677 174.98 200.306C175.321 200.936 175.492 201.65 175.492 202.45C175.492 203.25 175.321 203.965 174.98 204.594C174.638 205.213 174.174 205.704 173.588 206.066C173.001 206.418 172.334 206.594 171.588 206.594C170.99 206.594 170.468 206.482 170.02 206.258C169.572 206.034 169.209 205.72 168.932 205.314V209.922H166.884ZM171.156 204.802C171.806 204.802 172.345 204.584 172.772 204.146C173.198 203.709 173.412 203.144 173.412 202.45C173.412 201.757 173.198 201.186 172.772 200.738C172.345 200.29 171.806 200.066 171.156 200.066C170.494 200.066 169.95 200.29 169.524 200.738C169.108 201.176 168.9 201.741 168.9 202.434C168.9 203.128 169.108 203.698 169.524 204.146C169.95 204.584 170.494 204.802 171.156 204.802ZM177.321 206.402V198.466H179.129L179.305 199.538C179.561 199.154 179.897 198.85 180.313 198.626C180.74 198.392 181.231 198.274 181.785 198.274C183.012 198.274 183.881 198.749 184.393 199.698C184.681 199.261 185.065 198.914 185.545 198.658C186.036 198.402 186.569 198.274 187.145 198.274C188.18 198.274 188.975 198.584 189.529 199.202C190.084 199.821 190.361 200.728 190.361 201.922V206.402H188.313V202.114C188.313 201.432 188.18 200.909 187.913 200.546C187.657 200.184 187.257 200.002 186.713 200.002C186.159 200.002 185.711 200.205 185.369 200.61C185.039 201.016 184.873 201.581 184.873 202.306V206.402H182.825V202.114C182.825 201.432 182.692 200.909 182.425 200.546C182.159 200.184 181.748 200.002 181.193 200.002C180.649 200.002 180.207 200.205 179.865 200.61C179.535 201.016 179.369 201.581 179.369 202.306V206.402H177.321ZM196.162 206.594C195.362 206.594 194.652 206.424 194.034 206.082C193.415 205.741 192.93 205.261 192.578 204.642C192.226 204.024 192.05 203.309 192.05 202.498C192.05 201.677 192.22 200.946 192.562 200.306C192.914 199.666 193.394 199.17 194.002 198.818C194.62 198.456 195.346 198.274 196.178 198.274C196.956 198.274 197.644 198.445 198.242 198.786C198.839 199.128 199.303 199.597 199.634 200.194C199.975 200.781 200.146 201.437 200.146 202.162C200.146 202.28 200.14 202.402 200.13 202.53C200.13 202.658 200.124 202.792 200.114 202.93H194.082C194.124 203.549 194.338 204.034 194.722 204.386C195.116 204.738 195.591 204.914 196.146 204.914C196.562 204.914 196.908 204.824 197.186 204.642C197.474 204.45 197.687 204.205 197.826 203.906H199.906C199.756 204.408 199.506 204.866 199.154 205.282C198.812 205.688 198.386 206.008 197.874 206.242C197.372 206.477 196.802 206.594 196.162 206.594ZM196.178 199.938C195.676 199.938 195.234 200.082 194.85 200.37C194.466 200.648 194.22 201.074 194.114 201.65H198.066C198.034 201.128 197.842 200.712 197.49 200.402C197.138 200.093 196.7 199.938 196.178 199.938ZM201.868 206.402V198.466H203.676L203.836 199.81C204.081 199.341 204.433 198.968 204.892 198.69C205.361 198.413 205.911 198.274 206.54 198.274C207.521 198.274 208.284 198.584 208.828 199.202C209.372 199.821 209.644 200.728 209.644 201.922V206.402H207.596V202.114C207.596 201.432 207.457 200.909 207.18 200.546C206.903 200.184 206.471 200.002 205.884 200.002C205.308 200.002 204.833 200.205 204.46 200.61C204.097 201.016 203.916 201.581 203.916 202.306V206.402H201.868ZM215.139 206.402C214.307 206.402 213.64 206.2 213.139 205.794C212.637 205.389 212.387 204.669 212.387 203.634V200.178H211.027V198.466H212.387L212.627 196.338H214.435V198.466H216.579V200.178H214.435V203.65C214.435 204.034 214.515 204.301 214.674 204.45C214.845 204.589 215.133 204.658 215.539 204.658H216.531V206.402H215.139ZM221.617 206.594C220.913 206.594 220.294 206.482 219.761 206.258C219.228 206.024 218.801 205.704 218.481 205.298C218.161 204.893 217.969 204.424 217.905 203.89H219.969C220.033 204.2 220.204 204.466 220.481 204.69C220.769 204.904 221.137 205.01 221.585 205.01C222.033 205.01 222.358 204.92 222.561 204.738C222.774 204.557 222.881 204.349 222.881 204.114C222.881 203.773 222.732 203.544 222.433 203.426C222.134 203.298 221.718 203.176 221.185 203.058C220.844 202.984 220.497 202.893 220.145 202.786C219.793 202.68 219.468 202.546 219.169 202.386C218.881 202.216 218.646 202.002 218.465 201.746C218.284 201.48 218.193 201.154 218.193 200.77C218.193 200.066 218.47 199.474 219.025 198.994C219.59 198.514 220.38 198.274 221.393 198.274C222.332 198.274 223.078 198.493 223.633 198.93C224.198 199.368 224.534 199.97 224.641 200.738H222.705C222.588 200.152 222.145 199.858 221.377 199.858C220.993 199.858 220.694 199.933 220.481 200.082C220.278 200.232 220.177 200.418 220.177 200.642C220.177 200.877 220.332 201.064 220.641 201.202C220.95 201.341 221.361 201.469 221.873 201.586C222.428 201.714 222.934 201.858 223.393 202.018C223.862 202.168 224.236 202.397 224.513 202.706C224.79 203.005 224.929 203.437 224.929 204.002C224.94 204.493 224.812 204.936 224.545 205.33C224.278 205.725 223.894 206.034 223.393 206.258C222.892 206.482 222.3 206.594 221.617 206.594Z" fill="#788A9B"/>
</svg>
