<svg width="21" height="20" viewBox="0 0 21 20" fill="none" xmlns="http://www.w3.org/2000/svg">
<path d="M19.47 6.99938C19.6678 6.99938 19.8611 6.94073 20.0256 6.83085C20.19 6.72097 20.3182 6.56479 20.3939 6.38206C20.4696 6.19934 20.4894 5.99827 20.4508 5.80429C20.4122 5.61031 20.317 5.43213 20.1771 5.29227C20.0373 5.15242 19.8591 5.05718 19.6651 5.01859C19.4711 4.98001 19.2701 4.99981 19.0873 5.0755C18.9046 5.15119 18.7484 5.27936 18.6386 5.44381C18.5287 5.60826 18.47 5.8016 18.47 5.99938C18.47 6.2646 18.5754 6.51895 18.7629 6.70649C18.9505 6.89402 19.2048 6.99938 19.47 6.99938ZM16.47 6.99938C16.6678 6.99938 16.8611 6.94073 17.0256 6.83085C17.19 6.72097 17.3182 6.56479 17.3939 6.38206C17.4696 6.19934 17.4894 5.99827 17.4508 5.80429C17.4122 5.61031 17.317 5.43213 17.1771 5.29227C17.0373 5.15242 16.8591 5.05718 16.6651 5.01859C16.4711 4.98001 16.2701 4.99981 16.0873 5.0755C15.9046 5.15119 15.7484 5.27936 15.6386 5.44381C15.5287 5.60826 15.47 5.8016 15.47 5.99938C15.47 6.2646 15.5754 6.51895 15.7629 6.70649C15.9505 6.89402 16.2048 6.99938 16.47 6.99938ZM13.47 6.99938C13.6678 6.99938 13.8611 6.94073 14.0256 6.83085C14.19 6.72097 14.3182 6.56479 14.3939 6.38206C14.4696 6.19934 14.4894 5.99827 14.4508 5.80429C14.4122 5.61031 14.317 5.43213 14.1771 5.29227C14.0373 5.15242 13.8591 5.05718 13.6651 5.01859C13.4711 4.98001 13.2701 4.99981 13.0873 5.0755C12.9046 5.15119 12.7484 5.27936 12.6386 5.44381C12.5287 5.60826 12.47 5.8016 12.47 5.99938C12.47 6.1307 12.4959 6.26074 12.5461 6.38206C12.5964 6.50339 12.6701 6.61363 12.7629 6.70649C12.8558 6.79935 12.966 6.873 13.0873 6.92326C13.2087 6.97351 13.3387 6.99938 13.47 6.99938ZM17.91 10.9994C17.69 10.9994 17.46 10.9294 17.24 10.8794C16.7945 10.7812 16.3567 10.6509 15.93 10.4894C15.4661 10.3206 14.9562 10.3294 14.4983 10.514C14.0405 10.6986 13.6671 11.046 13.45 11.4894L13.23 11.9394C12.2545 11.3952 11.3565 10.7225 10.56 9.93938C9.7807 9.1433 9.10838 8.24912 8.56003 7.27938L9.00002 6.99938C9.44339 6.7823 9.79081 6.40891 9.97542 5.95107C10.16 5.49323 10.1688 4.98329 10 4.51938C9.84125 4.0918 9.71096 3.65418 9.61002 3.20938C9.56002 2.97938 9.52002 2.75938 9.49002 2.52938C9.36859 1.825 8.99965 1.18712 8.44965 0.730619C7.89964 0.274117 7.20472 0.0289887 6.49002 0.0393798H3.49002C3.06727 0.038826 2.64917 0.127628 2.26314 0.299964C1.87711 0.472299 1.53186 0.724278 1.25002 1.03938C0.963714 1.36188 0.750297 1.74231 0.624322 2.15475C0.498346 2.56719 0.462772 3.00195 0.520025 3.42938C1.04674 7.61642 2.9524 11.509 5.93642 14.493C8.92044 17.477 12.813 19.3827 17 19.9094C17.1298 19.9193 17.2602 19.9193 17.39 19.9094C18.1857 19.9094 18.9487 19.5933 19.5113 19.0307C20.074 18.4681 20.39 17.705 20.39 16.9094V13.9094C20.3796 13.2116 20.1263 12.5393 19.6737 12.0081C19.221 11.477 18.5973 11.1203 17.91 10.9994ZM18.4 16.9994C18.4017 17.1443 18.3718 17.2879 18.3124 17.4202C18.2531 17.5524 18.1657 17.6702 18.0563 17.7653C17.9469 17.8604 17.8181 17.9306 17.6789 17.9711C17.5397 18.0115 17.3933 18.0211 17.25 17.9994C13.5162 17.5121 10.0471 15.8075 7.38002 13.1494C4.71502 10.4642 3.01327 6.97282 2.54002 3.21938C2.5183 3.07271 2.52946 2.92305 2.5727 2.78123C2.61594 2.63941 2.69017 2.50898 2.79002 2.39938C2.88262 2.29397 2.99635 2.20922 3.12385 2.15064C3.25134 2.09206 3.38973 2.06097 3.53002 2.05938H6.53003C6.76257 2.05421 6.98965 2.13026 7.17217 2.27445C7.35469 2.41864 7.48124 2.62195 7.53002 2.84938C7.57002 3.12271 7.62003 3.39271 7.68003 3.65938C7.79554 4.18652 7.94928 4.70456 8.14003 5.20938L6.74002 5.85938C6.62032 5.9143 6.51265 5.99233 6.42318 6.08898C6.33372 6.18562 6.26423 6.29899 6.2187 6.42257C6.17317 6.54615 6.1525 6.67751 6.15787 6.8091C6.16325 6.94069 6.19457 7.06992 6.25002 7.18938C7.68923 10.2721 10.1673 12.7502 13.25 14.1894C13.4935 14.2894 13.7666 14.2894 14.01 14.1894C14.2582 14.097 14.4596 13.91 14.57 13.6694L15.2 12.2694C15.717 12.4543 16.2446 12.6079 16.78 12.7294C17.04 12.7894 17.32 12.8394 17.59 12.8794C17.8156 12.9302 18.0166 13.0576 18.1588 13.2399C18.301 13.4222 18.3757 13.6482 18.37 13.8794L18.4 16.9994Z" fill="#078FF7"/>
</svg>
