<svg width="803" height="220" viewBox="0 0 803 220" fill="none" xmlns="http://www.w3.org/2000/svg">
<rect width="803" height="220" rx="4" fill="#DBEFFE"/>
<path d="M376.678 113.903H419.322L406.962 92.2715L398.309 105.25L389.656 97.2158L376.678 113.903Z" fill="#71BFFB"/>
<circle cx="389.502" cy="85.9357" r="2.93568" fill="#71BFFB"/>
<path d="M348.565 141.902V130.702H352.709C353.605 130.702 354.346 130.852 354.933 131.15C355.519 131.449 355.957 131.86 356.245 132.382C356.533 132.905 356.677 133.492 356.677 134.142C356.677 134.761 356.538 135.332 356.261 135.854C355.983 136.366 355.551 136.782 354.965 137.102C354.378 137.412 353.626 137.566 352.709 137.566H350.613V141.902H348.565ZM350.613 135.902H352.581C353.295 135.902 353.807 135.748 354.117 135.438C354.437 135.118 354.597 134.686 354.597 134.142C354.597 133.588 354.437 133.156 354.117 132.846C353.807 132.526 353.295 132.366 352.581 132.366H350.613V135.902ZM358.235 141.902V130.382H360.283V141.902H358.235ZM365.112 142.094C364.429 142.094 363.869 141.988 363.432 141.774C362.995 141.55 362.669 141.257 362.456 140.894C362.243 140.532 362.136 140.132 362.136 139.694C362.136 138.958 362.424 138.361 363 137.902C363.576 137.444 364.44 137.214 365.592 137.214H367.608V137.022C367.608 136.478 367.453 136.078 367.144 135.822C366.835 135.566 366.451 135.438 365.992 135.438C365.576 135.438 365.213 135.54 364.904 135.742C364.595 135.934 364.403 136.222 364.328 136.606H362.328C362.381 136.03 362.573 135.529 362.904 135.102C363.245 134.676 363.683 134.35 364.216 134.126C364.749 133.892 365.347 133.774 366.008 133.774C367.139 133.774 368.029 134.057 368.68 134.622C369.331 135.188 369.656 135.988 369.656 137.022V141.902H367.912L367.72 140.622C367.485 141.049 367.155 141.401 366.728 141.678C366.312 141.956 365.773 142.094 365.112 142.094ZM365.576 140.494C366.163 140.494 366.616 140.302 366.936 139.918C367.267 139.534 367.475 139.06 367.56 138.494H365.816C365.272 138.494 364.883 138.596 364.648 138.798C364.413 138.99 364.296 139.23 364.296 139.518C364.296 139.828 364.413 140.068 364.648 140.238C364.883 140.409 365.192 140.494 365.576 140.494ZM375.498 142.094C374.688 142.094 373.973 141.918 373.354 141.566C372.736 141.214 372.245 140.724 371.882 140.094C371.53 139.465 371.354 138.745 371.354 137.934C371.354 137.124 371.53 136.404 371.882 135.774C372.245 135.145 372.736 134.654 373.354 134.302C373.973 133.95 374.688 133.774 375.498 133.774C376.512 133.774 377.365 134.041 378.058 134.574C378.752 135.097 379.194 135.822 379.386 136.75H377.226C377.12 136.366 376.906 136.068 376.586 135.854C376.277 135.63 375.909 135.518 375.482 135.518C374.917 135.518 374.437 135.732 374.042 136.158C373.648 136.585 373.45 137.177 373.45 137.934C373.45 138.692 373.648 139.284 374.042 139.71C374.437 140.137 374.917 140.35 375.482 140.35C375.909 140.35 376.277 140.244 376.586 140.03C376.906 139.817 377.12 139.513 377.226 139.118H379.386C379.194 140.014 378.752 140.734 378.058 141.278C377.365 141.822 376.512 142.094 375.498 142.094ZM385.06 142.094C384.26 142.094 383.551 141.924 382.932 141.582C382.313 141.241 381.828 140.761 381.476 140.142C381.124 139.524 380.948 138.809 380.948 137.998C380.948 137.177 381.119 136.446 381.46 135.806C381.812 135.166 382.292 134.67 382.9 134.318C383.519 133.956 384.244 133.774 385.076 133.774C385.855 133.774 386.543 133.945 387.14 134.286C387.737 134.628 388.201 135.097 388.532 135.694C388.873 136.281 389.044 136.937 389.044 137.662C389.044 137.78 389.039 137.902 389.028 138.03C389.028 138.158 389.023 138.292 389.012 138.43H382.98C383.023 139.049 383.236 139.534 383.62 139.886C384.015 140.238 384.489 140.414 385.044 140.414C385.46 140.414 385.807 140.324 386.084 140.142C386.372 139.95 386.585 139.705 386.724 139.406H388.804C388.655 139.908 388.404 140.366 388.052 140.782C387.711 141.188 387.284 141.508 386.772 141.742C386.271 141.977 385.7 142.094 385.06 142.094ZM385.076 135.438C384.575 135.438 384.132 135.582 383.748 135.87C383.364 136.148 383.119 136.574 383.012 137.15H386.964C386.932 136.628 386.74 136.212 386.388 135.902C386.036 135.593 385.599 135.438 385.076 135.438ZM394.947 141.902V135.678H393.859V133.966H394.947V133.038C394.947 132.078 395.187 131.396 395.667 130.99C396.158 130.585 396.819 130.382 397.651 130.382H398.531V132.126H397.971C397.619 132.126 397.368 132.196 397.219 132.334C397.07 132.473 396.995 132.708 396.995 133.038V133.966H398.707V135.678H396.995V141.902H394.947ZM403.825 142.094C403.057 142.094 402.363 141.918 401.745 141.566C401.137 141.214 400.651 140.729 400.289 140.11C399.937 139.481 399.761 138.756 399.761 137.934C399.761 137.113 399.942 136.393 400.305 135.774C400.667 135.145 401.153 134.654 401.761 134.302C402.379 133.95 403.073 133.774 403.841 133.774C404.598 133.774 405.281 133.95 405.889 134.302C406.507 134.654 406.993 135.145 407.345 135.774C407.707 136.393 407.889 137.113 407.889 137.934C407.889 138.756 407.707 139.481 407.345 140.11C406.993 140.729 406.507 141.214 405.889 141.566C405.27 141.918 404.582 142.094 403.825 142.094ZM403.825 140.318C404.358 140.318 404.822 140.121 405.217 139.726C405.611 139.321 405.809 138.724 405.809 137.934C405.809 137.145 405.611 136.553 405.217 136.158C404.822 135.753 404.363 135.55 403.841 135.55C403.297 135.55 402.827 135.753 402.433 136.158C402.049 136.553 401.857 137.145 401.857 137.934C401.857 138.724 402.049 139.321 402.433 139.726C402.827 140.121 403.291 140.318 403.825 140.318ZM409.72 141.902V133.966H411.544L411.736 135.454C412.024 134.942 412.413 134.537 412.904 134.238C413.405 133.929 413.992 133.774 414.664 133.774V135.934H414.088C413.64 135.934 413.24 136.004 412.888 136.142C412.536 136.281 412.258 136.521 412.056 136.862C411.864 137.204 411.768 137.678 411.768 138.286V141.902H409.72ZM419.204 141.902L423.3 130.702H425.604L429.7 141.902H427.524L426.628 139.31H422.26L421.348 141.902H419.204ZM422.82 137.71H426.068L424.436 133.054L422.82 137.71ZM434.368 142.094C433.621 142.094 432.954 141.913 432.368 141.55C431.781 141.188 431.317 140.692 430.976 140.062C430.634 139.433 430.464 138.718 430.464 137.918C430.464 137.118 430.634 136.409 430.976 135.79C431.317 135.161 431.781 134.67 432.368 134.318C432.954 133.956 433.621 133.774 434.368 133.774C434.965 133.774 435.488 133.886 435.936 134.11C436.384 134.334 436.746 134.649 437.024 135.054V130.382H439.072V141.902H437.248L437.024 140.766C436.768 141.118 436.426 141.428 436 141.694C435.584 141.961 435.04 142.094 434.368 142.094ZM434.8 140.302C435.461 140.302 436 140.084 436.416 139.646C436.842 139.198 437.056 138.628 437.056 137.934C437.056 137.241 436.842 136.676 436.416 136.238C436 135.79 435.461 135.566 434.8 135.566C434.149 135.566 433.61 135.785 433.184 136.222C432.757 136.66 432.544 137.225 432.544 137.918C432.544 138.612 432.757 139.182 433.184 139.63C433.61 140.078 434.149 140.302 434.8 140.302ZM444.437 142.094C443.733 142.094 443.115 141.982 442.581 141.758C442.048 141.524 441.621 141.204 441.301 140.798C440.981 140.393 440.789 139.924 440.725 139.39H442.789C442.853 139.7 443.024 139.966 443.301 140.19C443.589 140.404 443.957 140.51 444.405 140.51C444.853 140.51 445.179 140.42 445.381 140.238C445.595 140.057 445.701 139.849 445.701 139.614C445.701 139.273 445.552 139.044 445.253 138.926C444.955 138.798 444.539 138.676 444.005 138.558C443.664 138.484 443.317 138.393 442.965 138.286C442.613 138.18 442.288 138.046 441.989 137.886C441.701 137.716 441.467 137.502 441.285 137.246C441.104 136.98 441.013 136.654 441.013 136.27C441.013 135.566 441.291 134.974 441.845 134.494C442.411 134.014 443.2 133.774 444.213 133.774C445.152 133.774 445.899 133.993 446.453 134.43C447.019 134.868 447.355 135.47 447.461 136.238H445.525C445.408 135.652 444.965 135.358 444.197 135.358C443.813 135.358 443.515 135.433 443.301 135.582C443.099 135.732 442.997 135.918 442.997 136.142C442.997 136.377 443.152 136.564 443.461 136.702C443.771 136.841 444.181 136.969 444.693 137.086C445.248 137.214 445.755 137.358 446.213 137.518C446.683 137.668 447.056 137.897 447.333 138.206C447.611 138.505 447.749 138.937 447.749 139.502C447.76 139.993 447.632 140.436 447.365 140.83C447.099 141.225 446.715 141.534 446.213 141.758C445.712 141.982 445.12 142.094 444.437 142.094Z" fill="#788A9B"/>
</svg>
