<svg width="18" height="18" viewBox="0 0 18 18" fill="none" xmlns="http://www.w3.org/2000/svg">
<path d="M9.16671 0.666992C7.51853 0.666992 5.90737 1.15573 4.53696 2.07141C3.16655 2.98709 2.09845 4.28858 1.46772 5.8113C0.836985 7.33401 0.671957 9.00957 0.9935 10.6261C1.31504 12.2426 2.10872 13.7274 3.27415 14.8929C4.43959 16.0583 5.92445 16.852 7.54096 17.1735C9.15747 17.4951 10.833 17.3301 12.3557 16.6993C13.8785 16.0686 15.1799 15.0005 16.0956 13.6301C17.0113 12.2597 17.5 10.6485 17.5 9.00033C17.5 7.90598 17.2845 6.82234 16.8657 5.8113C16.4469 4.80025 15.8331 3.88159 15.0593 3.10777C14.2854 2.33395 13.3668 1.72012 12.3557 1.30133C11.3447 0.88254 10.2611 0.666992 9.16671 0.666992ZM9.16671 15.667C7.84817 15.667 6.55924 15.276 5.46291 14.5435C4.36658 13.8109 3.5121 12.7697 3.00751 11.5515C2.50293 10.3334 2.37091 8.99293 2.62814 7.69972C2.88538 6.40652 3.52032 5.21863 4.45267 4.28628C5.38502 3.35393 6.5729 2.71899 7.86611 2.46176C9.15932 2.20452 10.4998 2.33654 11.7179 2.84113C12.9361 3.34571 13.9773 4.2002 14.7098 5.29652C15.4424 6.39285 15.8334 7.68178 15.8334 9.00033C15.8334 10.7684 15.131 12.4641 13.8808 13.7144C12.6305 14.9646 10.9348 15.667 9.16671 15.667ZM9.16671 4.00033C8.9457 4.00033 8.73374 4.08812 8.57746 4.2444C8.42118 4.40068 8.33338 4.61265 8.33338 4.83366V8.51699L6.58338 9.52533C6.42284 9.6163 6.29704 9.75797 6.22569 9.92814C6.15435 10.0983 6.1415 10.2873 6.18917 10.4656C6.23683 10.6439 6.3423 10.8013 6.48905 10.9131C6.63581 11.025 6.81553 11.0849 7.00004 11.0837C7.14602 11.0847 7.28971 11.0473 7.41671 10.9753L9.58338 9.72533L9.65838 9.65033L9.79171 9.54199C9.8243 9.50074 9.85224 9.45603 9.87504 9.40866C9.9022 9.36392 9.92455 9.31643 9.94171 9.26699C9.96438 9.21401 9.97844 9.15774 9.98338 9.10033L10 9.00033V4.83366C10 4.61265 9.91225 4.40068 9.75597 4.2444C9.59969 4.08812 9.38772 4.00033 9.16671 4.00033Z" fill="#078FF7"/>
</svg>
