<svg width="18" height="18" viewBox="0 0 18 18" fill="none" xmlns="http://www.w3.org/2000/svg">
<path d="M4.83331 4.00034C4.66849 4.00034 4.50737 4.04921 4.37033 4.14078C4.23329 4.23235 4.12648 4.3625 4.06341 4.51477C4.00033 4.66704 3.98383 4.8346 4.01599 4.99625C4.04814 5.1579 4.12751 5.30638 4.24405 5.42293C4.36059 5.53947 4.50908 5.61884 4.67073 5.65099C4.83238 5.68315 4.99994 5.66665 5.15221 5.60357C5.30448 5.5405 5.43463 5.43369 5.5262 5.29665C5.61777 5.15961 5.66664 4.99849 5.66664 4.83367C5.66664 4.61266 5.57884 4.4007 5.42256 4.24442C5.26628 4.08814 5.05432 4.00034 4.83331 4.00034ZM17.0916 8.81701L9.19164 0.933673C9.11394 0.849892 9.01984 0.782986 8.91519 0.737111C8.81054 0.691236 8.69757 0.667374 8.58331 0.667006H3.58331C3.47363 0.666372 3.36492 0.687393 3.26338 0.728863C3.16185 0.770334 3.06951 0.831438 2.99164 0.908673L0.908307 2.98367C0.831072 3.06154 0.769968 3.15389 0.728497 3.25542C0.687027 3.35695 0.666006 3.46567 0.66664 3.57534V8.57534C0.669709 8.79598 0.756028 9.00731 0.908307 9.16701L8.81664 17.0837C8.97633 17.236 9.18767 17.3223 9.40831 17.3253C9.51798 17.326 9.6267 17.305 9.72823 17.2635C9.82976 17.222 9.92211 17.1609 9.99997 17.0837L17.0916 9.99201C17.1689 9.91414 17.23 9.82179 17.2715 9.72026C17.3129 9.61873 17.3339 9.51001 17.3333 9.40034C17.3282 9.18259 17.242 8.9746 17.0916 8.81701ZM9.40831 15.3253L2.33331 8.24201V3.91701L3.91664 2.33367H8.23331L15.3166 9.40867L9.40831 15.3253Z" fill="#078FF7"/>
</svg>
