<svg width="18" height="18" viewBox="0 0 18 18" fill="none" xmlns="http://www.w3.org/2000/svg">
<path d="M10.6666 5.66699H11.5C11.721 5.66699 11.9329 5.5792 12.0892 5.42291C12.2455 5.26663 12.3333 5.05467 12.3333 4.83366C12.3333 4.61265 12.2455 4.40068 12.0892 4.2444C11.9329 4.08812 11.721 4.00033 11.5 4.00033H10.6666C10.4456 4.00033 10.2337 4.08812 10.0774 4.2444C9.92109 4.40068 9.83329 4.61265 9.83329 4.83366C9.83329 5.05467 9.92109 5.26663 10.0774 5.42291C10.2337 5.5792 10.4456 5.66699 10.6666 5.66699ZM10.6666 9.00033H11.5C11.721 9.00033 11.9329 8.91253 12.0892 8.75625C12.2455 8.59997 12.3333 8.38801 12.3333 8.16699C12.3333 7.94598 12.2455 7.73402 12.0892 7.57774C11.9329 7.42146 11.721 7.33366 11.5 7.33366H10.6666C10.4456 7.33366 10.2337 7.42146 10.0774 7.57774C9.92109 7.73402 9.83329 7.94598 9.83329 8.16699C9.83329 8.38801 9.92109 8.59997 10.0774 8.75625C10.2337 8.91253 10.4456 9.00033 10.6666 9.00033ZM6.49996 5.66699H7.33329C7.55431 5.66699 7.76627 5.5792 7.92255 5.42291C8.07883 5.26663 8.16663 5.05467 8.16663 4.83366C8.16663 4.61265 8.07883 4.40068 7.92255 4.2444C7.76627 4.08812 7.55431 4.00033 7.33329 4.00033H6.49996C6.27895 4.00033 6.06698 4.08812 5.9107 4.2444C5.75442 4.40068 5.66663 4.61265 5.66663 4.83366C5.66663 5.05467 5.75442 5.26663 5.9107 5.42291C6.06698 5.5792 6.27895 5.66699 6.49996 5.66699ZM6.49996 9.00033H7.33329C7.55431 9.00033 7.76627 8.91253 7.92255 8.75625C8.07883 8.59997 8.16663 8.38801 8.16663 8.16699C8.16663 7.94598 8.07883 7.73402 7.92255 7.57774C7.76627 7.42146 7.55431 7.33366 7.33329 7.33366H6.49996C6.27895 7.33366 6.06698 7.42146 5.9107 7.57774C5.75442 7.73402 5.66663 7.94598 5.66663 8.16699C5.66663 8.38801 5.75442 8.59997 5.9107 8.75625C6.06698 8.91253 6.27895 9.00033 6.49996 9.00033ZM16.5 15.667H15.6666V1.50033C15.6666 1.27931 15.5788 1.06735 15.4225 0.91107C15.2663 0.75479 15.0543 0.666992 14.8333 0.666992H3.16663C2.94561 0.666992 2.73365 0.75479 2.57737 0.91107C2.42109 1.06735 2.33329 1.27931 2.33329 1.50033V15.667H1.49996C1.27895 15.667 1.06698 15.7548 0.910704 15.9111C0.754423 16.0674 0.666626 16.2793 0.666626 16.5003C0.666626 16.7213 0.754423 16.9333 0.910704 17.0896C1.06698 17.2459 1.27895 17.3337 1.49996 17.3337H16.5C16.721 17.3337 16.9329 17.2459 17.0892 17.0896C17.2455 16.9333 17.3333 16.7213 17.3333 16.5003C17.3333 16.2793 17.2455 16.0674 17.0892 15.9111C16.9329 15.7548 16.721 15.667 16.5 15.667ZM9.83329 15.667H8.16663V12.3337H9.83329V15.667ZM14 15.667H11.5V11.5003C11.5 11.2793 11.4122 11.0674 11.2559 10.9111C11.0996 10.7548 10.8876 10.667 10.6666 10.667H7.33329C7.11228 10.667 6.90032 10.7548 6.74404 10.9111C6.58776 11.0674 6.49996 11.2793 6.49996 11.5003V15.667H3.99996V2.33366H14V15.667Z" fill="#078FF7"/>
</svg>
