<svg width="389" height="220" viewBox="0 0 389 220" fill="none" xmlns="http://www.w3.org/2000/svg">
<rect width="389" height="220" rx="4" fill="#DBEFFE"/>
<path d="M169.678 113.902H212.322L199.962 92.2705L191.309 105.249L182.656 97.2148L169.678 113.902Z" fill="#71BFFB"/>
<circle cx="182.502" cy="85.9357" r="2.93568" fill="#71BFFB"/>
<path d="M141.565 141.902V130.702H145.709C146.605 130.702 147.346 130.852 147.933 131.15C148.519 131.449 148.957 131.86 149.245 132.382C149.533 132.905 149.677 133.492 149.677 134.142C149.677 134.761 149.538 135.332 149.261 135.854C148.983 136.366 148.551 136.782 147.965 137.102C147.378 137.412 146.626 137.566 145.709 137.566H143.613V141.902H141.565ZM143.613 135.902H145.581C146.295 135.902 146.807 135.748 147.117 135.438C147.437 135.118 147.597 134.686 147.597 134.142C147.597 133.588 147.437 133.156 147.117 132.846C146.807 132.526 146.295 132.366 145.581 132.366H143.613V135.902ZM151.235 141.902V130.382H153.283V141.902H151.235ZM158.112 142.094C157.429 142.094 156.869 141.988 156.432 141.774C155.995 141.55 155.669 141.257 155.456 140.894C155.243 140.532 155.136 140.132 155.136 139.694C155.136 138.958 155.424 138.361 156 137.902C156.576 137.444 157.44 137.214 158.592 137.214H160.608V137.022C160.608 136.478 160.453 136.078 160.144 135.822C159.835 135.566 159.451 135.438 158.992 135.438C158.576 135.438 158.213 135.54 157.904 135.742C157.595 135.934 157.403 136.222 157.328 136.606H155.328C155.381 136.03 155.573 135.529 155.904 135.102C156.245 134.676 156.683 134.35 157.216 134.126C157.749 133.892 158.347 133.774 159.008 133.774C160.139 133.774 161.029 134.057 161.68 134.622C162.331 135.188 162.656 135.988 162.656 137.022V141.902H160.912L160.72 140.622C160.485 141.049 160.155 141.401 159.728 141.678C159.312 141.956 158.773 142.094 158.112 142.094ZM158.576 140.494C159.163 140.494 159.616 140.302 159.936 139.918C160.267 139.534 160.475 139.06 160.56 138.494H158.816C158.272 138.494 157.883 138.596 157.648 138.798C157.413 138.99 157.296 139.23 157.296 139.518C157.296 139.828 157.413 140.068 157.648 140.238C157.883 140.409 158.192 140.494 158.576 140.494ZM168.498 142.094C167.688 142.094 166.973 141.918 166.354 141.566C165.736 141.214 165.245 140.724 164.882 140.094C164.53 139.465 164.354 138.745 164.354 137.934C164.354 137.124 164.53 136.404 164.882 135.774C165.245 135.145 165.736 134.654 166.354 134.302C166.973 133.95 167.688 133.774 168.498 133.774C169.512 133.774 170.365 134.041 171.058 134.574C171.752 135.097 172.194 135.822 172.386 136.75H170.226C170.12 136.366 169.906 136.068 169.586 135.854C169.277 135.63 168.909 135.518 168.482 135.518C167.917 135.518 167.437 135.732 167.042 136.158C166.648 136.585 166.45 137.177 166.45 137.934C166.45 138.692 166.648 139.284 167.042 139.71C167.437 140.137 167.917 140.35 168.482 140.35C168.909 140.35 169.277 140.244 169.586 140.03C169.906 139.817 170.12 139.513 170.226 139.118H172.386C172.194 140.014 171.752 140.734 171.058 141.278C170.365 141.822 169.512 142.094 168.498 142.094ZM178.06 142.094C177.26 142.094 176.551 141.924 175.932 141.582C175.313 141.241 174.828 140.761 174.476 140.142C174.124 139.524 173.948 138.809 173.948 137.998C173.948 137.177 174.119 136.446 174.46 135.806C174.812 135.166 175.292 134.67 175.9 134.318C176.519 133.956 177.244 133.774 178.076 133.774C178.855 133.774 179.543 133.945 180.14 134.286C180.737 134.628 181.201 135.097 181.532 135.694C181.873 136.281 182.044 136.937 182.044 137.662C182.044 137.78 182.039 137.902 182.028 138.03C182.028 138.158 182.023 138.292 182.012 138.43H175.98C176.023 139.049 176.236 139.534 176.62 139.886C177.015 140.238 177.489 140.414 178.044 140.414C178.46 140.414 178.807 140.324 179.084 140.142C179.372 139.95 179.585 139.705 179.724 139.406H181.804C181.655 139.908 181.404 140.366 181.052 140.782C180.711 141.188 180.284 141.508 179.772 141.742C179.271 141.977 178.7 142.094 178.06 142.094ZM178.076 135.438C177.575 135.438 177.132 135.582 176.748 135.87C176.364 136.148 176.119 136.574 176.012 137.15H179.964C179.932 136.628 179.74 136.212 179.388 135.902C179.036 135.593 178.599 135.438 178.076 135.438ZM187.947 141.902V135.678H186.859V133.966H187.947V133.038C187.947 132.078 188.187 131.396 188.667 130.99C189.158 130.585 189.819 130.382 190.651 130.382H191.531V132.126H190.971C190.619 132.126 190.368 132.196 190.219 132.334C190.07 132.473 189.995 132.708 189.995 133.038V133.966H191.707V135.678H189.995V141.902H187.947ZM196.825 142.094C196.057 142.094 195.363 141.918 194.745 141.566C194.137 141.214 193.651 140.729 193.289 140.11C192.937 139.481 192.761 138.756 192.761 137.934C192.761 137.113 192.942 136.393 193.305 135.774C193.667 135.145 194.153 134.654 194.761 134.302C195.379 133.95 196.073 133.774 196.841 133.774C197.598 133.774 198.281 133.95 198.889 134.302C199.507 134.654 199.993 135.145 200.345 135.774C200.707 136.393 200.889 137.113 200.889 137.934C200.889 138.756 200.707 139.481 200.345 140.11C199.993 140.729 199.507 141.214 198.889 141.566C198.27 141.918 197.582 142.094 196.825 142.094ZM196.825 140.318C197.358 140.318 197.822 140.121 198.217 139.726C198.611 139.321 198.809 138.724 198.809 137.934C198.809 137.145 198.611 136.553 198.217 136.158C197.822 135.753 197.363 135.55 196.841 135.55C196.297 135.55 195.827 135.753 195.433 136.158C195.049 136.553 194.857 137.145 194.857 137.934C194.857 138.724 195.049 139.321 195.433 139.726C195.827 140.121 196.291 140.318 196.825 140.318ZM202.72 141.902V133.966H204.544L204.736 135.454C205.024 134.942 205.413 134.537 205.904 134.238C206.405 133.929 206.992 133.774 207.664 133.774V135.934H207.088C206.64 135.934 206.24 136.004 205.888 136.142C205.536 136.281 205.258 136.521 205.056 136.862C204.864 137.204 204.768 137.678 204.768 138.286V141.902H202.72ZM212.204 141.902L216.3 130.702H218.604L222.7 141.902H220.524L219.628 139.31H215.26L214.348 141.902H212.204ZM215.82 137.71H219.068L217.436 133.054L215.82 137.71ZM227.368 142.094C226.621 142.094 225.954 141.913 225.368 141.55C224.781 141.188 224.317 140.692 223.976 140.062C223.634 139.433 223.464 138.718 223.464 137.918C223.464 137.118 223.634 136.409 223.976 135.79C224.317 135.161 224.781 134.67 225.368 134.318C225.954 133.956 226.621 133.774 227.368 133.774C227.965 133.774 228.488 133.886 228.936 134.11C229.384 134.334 229.746 134.649 230.024 135.054V130.382H232.072V141.902H230.248L230.024 140.766C229.768 141.118 229.426 141.428 229 141.694C228.584 141.961 228.04 142.094 227.368 142.094ZM227.8 140.302C228.461 140.302 229 140.084 229.416 139.646C229.842 139.198 230.056 138.628 230.056 137.934C230.056 137.241 229.842 136.676 229.416 136.238C229 135.79 228.461 135.566 227.8 135.566C227.149 135.566 226.61 135.785 226.184 136.222C225.757 136.66 225.544 137.225 225.544 137.918C225.544 138.612 225.757 139.182 226.184 139.63C226.61 140.078 227.149 140.302 227.8 140.302ZM237.437 142.094C236.733 142.094 236.115 141.982 235.581 141.758C235.048 141.524 234.621 141.204 234.301 140.798C233.981 140.393 233.789 139.924 233.725 139.39H235.789C235.853 139.7 236.024 139.966 236.301 140.19C236.589 140.404 236.957 140.51 237.405 140.51C237.853 140.51 238.179 140.42 238.381 140.238C238.595 140.057 238.701 139.849 238.701 139.614C238.701 139.273 238.552 139.044 238.253 138.926C237.955 138.798 237.539 138.676 237.005 138.558C236.664 138.484 236.317 138.393 235.965 138.286C235.613 138.18 235.288 138.046 234.989 137.886C234.701 137.716 234.467 137.502 234.285 137.246C234.104 136.98 234.013 136.654 234.013 136.27C234.013 135.566 234.291 134.974 234.845 134.494C235.411 134.014 236.2 133.774 237.213 133.774C238.152 133.774 238.899 133.993 239.453 134.43C240.019 134.868 240.355 135.47 240.461 136.238H238.525C238.408 135.652 237.965 135.358 237.197 135.358C236.813 135.358 236.515 135.433 236.301 135.582C236.099 135.732 235.997 135.918 235.997 136.142C235.997 136.377 236.152 136.564 236.461 136.702C236.771 136.841 237.181 136.969 237.693 137.086C238.248 137.214 238.755 137.358 239.213 137.518C239.683 137.668 240.056 137.897 240.333 138.206C240.611 138.505 240.749 138.937 240.749 139.502C240.76 139.993 240.632 140.436 240.365 140.83C240.099 141.225 239.715 141.534 239.213 141.758C238.712 141.982 238.12 142.094 237.437 142.094Z" fill="#788A9B"/>
</svg>
